<svg width="20" height="9" viewBox="0 0 20 9" fill="none" xmlns="http://www.w3.org/2000/svg">
    <path d="M8.40167 1.91675C8.053 1.52457 7.6254 1.21048 7.1469 0.995062C6.66839 0.779647 6.14976 0.667765 5.625 0.666748H4.375C3.38044 0.666748 2.42661 1.06184 1.72335 1.7651C1.02009 2.46836 0.625 3.42219 0.625 4.41675C0.625 5.41131 1.02009 6.36514 1.72335 7.0684C2.42661 7.77166 3.38044 8.16675 4.375 8.16675H5.625C6.14973 8.16552 6.66829 8.05355 7.14676 7.83814C7.62524 7.62274 8.05287 7.30877 8.40167 6.91675" stroke="#F50756" stroke-width="1.25" stroke-linecap="round" stroke-linejoin="round"/>
    <path d="M11.5986 1.91675C11.9473 1.52452 12.3749 1.21041 12.8534 0.994989C13.3319 0.77957 13.8505 0.667713 14.3753 0.666748H15.6253C16.6199 0.666748 17.5737 1.06184 18.2769 1.7651C18.9802 2.46836 19.3753 3.42219 19.3753 4.41675C19.3753 5.41131 18.9802 6.36514 18.2769 7.0684C17.5737 7.77166 16.6199 8.16675 15.6253 8.16675H14.3753C13.8506 8.16563 13.332 8.0537 12.8535 7.83829C12.375 7.62288 11.9474 7.30885 11.5986 6.91675" stroke="#F50756" stroke-width="1.25" stroke-linecap="round" stroke-linejoin="round"/>
    <path d="M5.625 4.41602H14.375" stroke="#F50756" stroke-width="1.25" stroke-linecap="round" stroke-linejoin="round"/>
</svg>
