<svg width="24" height="24" viewBox="0 0 24 24" fill="none" xmlns="http://www.w3.org/2000/svg">
<path d="M19 8.70977L13.667 4.56177C13.199 4.19768 12.6229 4 12.03 4C11.437 4 10.861 4.19768 10.393 4.56177L5.05897 8.70977C4.73841 8.95905 4.47906 9.2783 4.30072 9.64312C4.12239 10.0079 4.02978 10.4087 4.02997 10.8148V18.0148C4.02997 18.5452 4.24068 19.0539 4.61575 19.429C4.99083 19.8041 5.49954 20.0148 6.02997 20.0148H18.03C18.5604 20.0148 19.0691 19.8041 19.4442 19.429C19.8193 19.0539 20.03 18.5452 20.03 18.0148V10.8148C20.03 9.99177 19.65 9.21477 19 8.70977Z" stroke="#091D2C" stroke-width="1.5" stroke-linecap="round" stroke-linejoin="round"/>
<path d="M16 15C13.79 16.333 10.208 16.333 8 15" stroke="#091D2C" stroke-width="1.5" stroke-linecap="round" stroke-linejoin="round"/>
</svg>
