<svg width="24" height="24" viewBox="0 0 24 24" fill="none" xmlns="http://www.w3.org/2000/svg">
<path d="M9.59241 6.03674L10.8888 7.33311" stroke="#091D2C" stroke-width="1.5" stroke-linecap="round" stroke-linejoin="round"/>
<path d="M13.4816 9.92615L14.7779 11.2225" stroke="#091D2C" stroke-width="1.5" stroke-linecap="round" stroke-linejoin="round"/>
<path d="M17.3707 13.8148L18.6671 15.1112" stroke="#091D2C" stroke-width="1.5" stroke-linecap="round" stroke-linejoin="round"/>
<path d="M3.11094 12.5185L12.1855 3.44392C12.5293 3.1001 12.9956 2.90695 13.4818 2.90695C13.9681 2.90695 14.4344 3.1001 14.7782 3.44392L16.7227 5.38846C16.3789 5.73228 16.1858 6.1986 16.1858 6.68483C16.1858 7.17106 16.3789 7.63737 16.7227 7.98119C17.0666 8.32501 17.5329 8.51816 18.0191 8.51816C18.5053 8.51816 18.9717 8.32501 19.3155 7.98119L21.26 9.92573C21.6038 10.2695 21.797 10.7359 21.797 11.2221C21.797 11.7083 21.6038 12.1746 21.26 12.5185L12.1855 21.593C11.8417 21.9368 11.3753 22.13 10.8891 22.13C10.4029 22.13 9.93657 21.9368 9.59275 21.593L7.64821 19.6485C7.99202 19.3046 8.18518 18.8383 8.18518 18.3521C8.18518 17.8659 7.99202 17.3995 7.64821 17.0557C7.30439 16.7119 6.83807 16.5188 6.35184 16.5188C5.86561 16.5188 5.3993 16.7119 5.05548 17.0557L3.11094 15.1112C2.76712 14.7674 2.57397 14.301 2.57397 13.8148C2.57397 13.3286 2.76712 12.8623 3.11094 12.5185" stroke="#091D2C" stroke-width="1.5" stroke-linecap="round" stroke-linejoin="round"/>
</svg>
