<svg xmlns="http://www.w3.org/2000/svg" width="130" height="49" fill="none">
    <path fill="#fff" d="M50.651 16.983V9.906h1.113v6.144h3.37v.933h-4.483zM56.772 11c-.344 0-.645-.266-.645-.605 0-.34.3-.616.645-.616.356 0 .645.276.645.616 0 .34-.289.605-.645.605zm-.49 5.984v-5.125h1.002v5.125h-1.001zm2.073-.668l.479-.7c.366.382 1.078.732 1.801.732.757 0 1.157-.297 1.157-.732 0-.51-.611-.68-1.301-.828-.912-.202-1.98-.435-1.98-1.539 0-.817.734-1.517 2.047-1.517.923 0 1.59.318 2.046.732l-.445.669c-.311-.361-.912-.627-1.59-.627-.679 0-1.102.255-1.102.669 0 .446.579.594 1.246.743.935.201 2.047.446 2.047 1.623 0 .881-.756 1.57-2.169 1.57-.901 0-1.69-.264-2.236-.795zm7.1.796c-.845 0-1.28-.457-1.28-1.263v-3.152h-.889v-.838h.89v-1.4h1.001v1.4h1.09v.838h-1.09v2.94c0 .36.178.626.523.626.233 0 .445-.096.545-.201l.256.721c-.212.19-.523.329-1.046.329zm1.538-2.696c0-1.485 1.124-2.684 2.692-2.684 1.613 0 2.614 1.199 2.614 2.77v.233H68.05c.078.87.745 1.591 1.824 1.591.568 0 1.19-.212 1.591-.604l.467.626c-.534.498-1.29.764-2.158.764-1.602 0-2.78-1.083-2.78-2.696zm2.692-1.899c-1.079 0-1.59.828-1.646 1.528h3.281c-.022-.679-.5-1.528-1.635-1.528zm7.445 4.467v-3.278c0-.85-.456-1.125-1.146-1.125-.623 0-1.19.36-1.48.742v3.662h-1v-5.126h1v.722c.357-.414 1.069-.85 1.903-.85 1.135 0 1.724.574 1.724 1.656v3.598H77.13zm7.737.128c-1.668 0-2.714-1.21-2.714-2.695 0-1.475 1.046-2.685 2.714-2.685 1.68 0 2.714 1.21 2.714 2.685 0 1.485-1.034 2.695-2.714 2.695zm0-.849c1.08 0 1.669-.87 1.669-1.846 0-.966-.59-1.836-1.669-1.836-1.068 0-1.668.87-1.668 1.836 0 .976.6 1.846 1.668 1.846zm7.556.722v-3.28c0-.848-.456-1.124-1.145-1.124-.623 0-1.19.36-1.48.743v3.66h-1.001v-5.125h1.001v.722c.356-.414 1.068-.85 1.902-.85 1.135 0 1.724.574 1.724 1.656v3.598h-1z"/>
    <path fill="#1ED760" fill-rule="evenodd" d="M39.196 22.78c-4.727-2.808-12.524-3.066-17.037-1.697a1.371 1.371 0 11-.796-2.625c5.18-1.572 13.791-1.268 19.233 1.962a1.372 1.372 0 01-1.4 2.36zm-.155 4.157a1.144 1.144 0 01-1.572.377c-3.941-2.423-9.951-3.125-14.614-1.71a1.145 1.145 0 01-1.426-.761 1.145 1.145 0 01.762-1.426c5.326-1.616 11.948-.834 16.474 1.948.538.332.707 1.035.376 1.572zm-1.794 3.993a.913.913 0 01-1.257.305c-3.444-2.105-7.778-2.58-12.883-1.414a.914.914 0 11-.407-1.782c5.586-1.277 10.378-.727 14.244 1.635a.914.914 0 01.303 1.257zM30.521 9.778c-8.099 0-14.665 6.566-14.665 14.665 0 8.1 6.566 14.665 14.665 14.665 8.1 0 14.665-6.565 14.665-14.665 0-8.099-6.565-14.665-14.665-14.665z" clip-rule="evenodd"/>
    <path fill="#1DD15D" d="M112.045 35.684c-.897 0-1.6-.742-1.6-1.6 0-.897.703-1.639 1.639-1.639.898 0 1.6.742 1.6 1.6 0 .897-.702 1.639-1.639 1.639zm.039-3.083c-.819 0-1.443.664-1.443 1.483 0 .82.624 1.444 1.443 1.444.82 0 1.444-.664 1.444-1.483a1.44 1.44 0 00-1.444-1.444zm.351 1.64l.469.623h-.391l-.429-.585h-.351v.585h-.312v-1.716h.741c.39 0 .664.195.664.546a.552.552 0 01-.391.546zm-.273-.781h-.429v.546h.429c.195 0 .351-.117.351-.273-.039-.195-.156-.273-.351-.273zM56.836 27.646c-2.575-.625-3.044-1.054-3.044-1.951 0-.859.82-1.444 1.99-1.444s2.302.43 3.512 1.327c.039.039.078.039.117.039.039 0 .078-.04.117-.078l1.249-1.756c.039-.078.039-.156-.04-.234-1.443-1.132-3.043-1.717-4.916-1.717-2.77 0-4.72 1.678-4.72 4.058 0 2.536 1.677 3.472 4.564 4.175 2.458.585 2.888 1.053 2.888 1.872 0 .937-.859 1.522-2.185 1.522-1.483 0-2.732-.507-4.097-1.678-.04-.038-.078-.038-.117-.038-.04 0-.078.039-.117.078l-1.405 1.677c-.078.078-.039.156 0 .234 1.6 1.405 3.55 2.185 5.658 2.185 3.004 0 4.916-1.638 4.916-4.175.039-2.184-1.249-3.355-4.37-4.096zM67.995 25.11c-1.288 0-2.342.507-3.239 1.56V25.5a.168.168 0 00-.156-.157h-2.302a.168.168 0 00-.156.157v13.07c0 .078.078.156.156.156H64.6a.168.168 0 00.156-.156v-4.136c.859.976 1.951 1.483 3.239 1.483 2.419 0 4.838-1.834 4.838-5.384 0-3.59-2.42-5.424-4.838-5.424zm2.185 5.384c0 1.795-1.093 3.043-2.693 3.043-1.56 0-2.77-1.326-2.77-3.043 0-1.756 1.17-3.044 2.77-3.044 1.561 0 2.693 1.288 2.693 3.044zM79.076 25.11c-3.083 0-5.54 2.38-5.54 5.423 0 3.004 2.418 5.384 5.5 5.384 3.122 0 5.541-2.38 5.541-5.423.04-3.005-2.38-5.385-5.501-5.385zm0 8.466c-1.639 0-2.888-1.327-2.888-3.082 0-1.756 1.21-3.044 2.849-3.044 1.677 0 2.926 1.327 2.926 3.083 0 1.756-1.21 3.043-2.887 3.043zM91.21 25.305h-2.536V22.73a.168.168 0 00-.156-.156h-2.302a.168.168 0 00-.156.156v2.575h-1.093a.168.168 0 00-.156.157v1.99c0 .077.078.155.156.155h1.093v5.112c0 2.068 1.014 3.121 3.043 3.121.82 0 1.522-.156 2.146-.546.039-.04.078-.078.078-.156v-1.873a.296.296 0 00-.078-.156.119.119 0 00-.156 0c-.43.234-.859.312-1.366.312-.741 0-1.053-.351-1.053-1.092v-4.721h2.536a.168.168 0 00.156-.157v-1.99c.039-.077-.039-.156-.156-.156zM100.027 25.305v-.312c0-.937.352-1.366 1.171-1.366.468 0 .858.078 1.287.234.039 0 .118 0 .157-.039.039-.039.078-.078.078-.156v-1.95c0-.079-.039-.157-.117-.157-.469-.117-1.054-.273-1.912-.273-2.107 0-3.239 1.21-3.239 3.473v.468H96.36a.168.168 0 00-.156.156v1.99c0 .078.078.156.156.156h1.092v7.881c0 .079.078.157.156.157h2.302c.078 0 .156-.078.156-.157v-7.803h2.146l3.278 7.882c-.39.819-.742.975-1.249.975-.39 0-.819-.117-1.248-.351-.039-.04-.078-.04-.117 0-.039 0-.078.039-.117.078l-.781 1.716c-.039.079 0 .157.078.235.82.429 1.561.624 2.458.624 1.717 0 2.654-.78 3.473-2.926l3.98-10.301c.039-.039 0-.117 0-.156-.039-.04-.078-.078-.156-.078h-2.38c-.078 0-.118.039-.157.117l-2.458 7.023-2.692-7.023c-.039-.078-.078-.117-.156-.117h-3.941zM94.916 25.305h-2.302a.168.168 0 00-.156.156v10.027c0 .078.078.156.156.156h2.302a.168.168 0 00.156-.156V25.461c.04-.078-.039-.156-.156-.156zM93.785 20.74c-.897 0-1.639.742-1.639 1.639s.742 1.639 1.64 1.639c.897 0 1.638-.742 1.638-1.639s-.742-1.639-1.639-1.639z"/>
</svg>