<svg width="20" height="20" viewBox="0 0 20 20" fill="none" xmlns="http://www.w3.org/2000/svg">
<path d="M0.625 10C0.625 12.4864 1.61272 14.871 3.37087 16.6291C5.12903 18.3873 7.5136 19.375 10 19.375C12.4864 19.375 14.871 18.3873 16.6291 16.6291C18.3873 14.871 19.375 12.4864 19.375 10C19.375 7.5136 18.3873 5.12903 16.6291 3.37087C14.871 1.61272 12.4864 0.625 10 0.625C7.5136 0.625 5.12903 1.61272 3.37087 3.37087C1.61272 5.12903 0.625 7.5136 0.625 10V10Z" stroke="#F50756" stroke-width="1.25" stroke-linecap="round" stroke-linejoin="round"/>
<path d="M8.125 11.875C8.125 12.2458 8.23497 12.6084 8.441 12.9167C8.64702 13.225 8.93986 13.4654 9.28247 13.6073C9.62508 13.7492 10.0021 13.7863 10.3658 13.714C10.7295 13.6416 11.0636 13.463 11.3258 13.2008C11.588 12.9386 11.7666 12.6045 11.839 12.2408C11.9113 11.8771 11.8742 11.5001 11.7323 11.1575C11.5904 10.8149 11.35 10.522 11.0417 10.316C10.7334 10.11 10.3708 10 10 10C9.62916 10 9.26665 9.89003 8.95831 9.68401C8.64996 9.47798 8.40964 9.18514 8.26773 8.84253C8.12581 8.49992 8.08868 8.12292 8.16103 7.75921C8.23338 7.39549 8.41195 7.0614 8.67418 6.79918C8.9364 6.53695 9.27049 6.35838 9.63421 6.28603C9.99792 6.21368 10.3749 6.25081 10.7175 6.39273C11.0601 6.53464 11.353 6.77496 11.559 7.08331C11.765 7.39165 11.875 7.75416 11.875 8.125" stroke="#F50756" stroke-width="1.25" stroke-linecap="round" stroke-linejoin="round"/>
<path d="M10 5V6.25" stroke="#F50756" stroke-width="1.25" stroke-linecap="round" stroke-linejoin="round"/>
<path d="M10 13.75V15" stroke="#F50756" stroke-width="1.25" stroke-linecap="round" stroke-linejoin="round"/>
</svg>
