<svg width="14" height="15" viewBox="0 0 14 15" fill="none" xmlns="http://www.w3.org/2000/svg">
<path d="M7.90072 6.41016C7.50811 6.87858 7.26859 7.45614 7.21447 8.06494C7.16035 8.67373 7.29423 9.28449 7.59805 9.81482C7.8667 9.83455 8.13287 9.7519 8.34309 9.58347C8.55332 9.41504 8.69204 9.17331 8.73138 8.90682C9.13363 9.12666 9.46479 9.45671 9.68598 9.85822C9.90716 10.2597 10.0092 10.716 9.98005 11.1735C9.9804 11.5313 9.91024 11.8857 9.77359 12.2164C9.63694 12.5471 9.43646 12.8477 9.18362 13.1009C8.93078 13.3541 8.63053 13.555 8.30002 13.6922C7.96951 13.8293 7.61522 13.9 7.25738 13.9002C6.53812 13.8905 5.85103 13.6005 5.34238 13.0918C4.83374 12.5832 4.54371 11.8961 4.53405 11.1768C4.44307 10.1129 4.73103 9.05101 5.34707 8.17879C5.96311 7.30658 6.86758 6.68015 7.90072 6.41016V6.41016Z" stroke="white" stroke-width="1.25" stroke-linecap="round" stroke-linejoin="round"/>
<path d="M2.17577 4.47146H2.38577L3.88977 6.35146C4.45934 4.6146 4.38624 2.73095 3.68377 1.04346C4.99324 1.10937 6.26382 1.51061 7.37365 2.2087C8.48348 2.9068 9.39533 3.87833 10.0218 5.03012L11.3858 3.70146C12.1827 4.515 12.7316 5.53854 12.9685 6.65248C13.2053 7.76643 13.1202 8.92476 12.7231 9.99213C12.326 11.0595 11.6334 11.9918 10.7261 12.6802C9.81881 13.3685 8.73437 13.7844 7.5995 13.8793C6.46462 13.9742 5.32617 13.7441 4.31719 13.216C3.30821 12.6878 2.47037 11.8835 1.90157 10.8969C1.33278 9.91024 1.05651 8.78212 1.10507 7.64432C1.15362 6.50652 1.52499 5.40603 2.17577 4.47146V4.47146Z" stroke="white" stroke-width="1.25" stroke-linecap="round" stroke-linejoin="round"/>
</svg>
