<svg width="25" height="25" viewBox="0 0 25 25" fill="none" xmlns="http://www.w3.org/2000/svg">
<path d="M16.4062 17.1875C16.4063 17.6019 16.5709 17.9993 16.8639 18.2924C17.1569 18.5854 17.5543 18.75 17.9687 18.75C18.3832 18.75 18.7806 18.5854 19.0736 18.2924C19.3666 17.9993 19.5312 17.6019 19.5312 17.1875C19.5312 16.7731 19.3666 16.3757 19.0736 16.0826C18.7806 15.7896 18.3832 15.625 17.9687 15.625C17.5543 15.625 17.1569 15.7896 16.8639 16.0826C16.5709 16.3757 16.4063 16.7731 16.4062 17.1875V17.1875Z" stroke="#F50756" stroke-width="1.5" stroke-linecap="round" stroke-linejoin="round"/>
<path d="M3.90625 17.1875C3.90625 17.6019 4.07087 17.9993 4.3639 18.2924C4.65692 18.5854 5.05435 18.75 5.46875 18.75C5.88315 18.75 6.28058 18.5854 6.5736 18.2924C6.86663 17.9993 7.03125 17.6019 7.03125 17.1875C7.03125 16.7731 6.86663 16.3757 6.5736 16.0826C6.28058 15.7896 5.88315 15.625 5.46875 15.625C5.05435 15.625 4.65692 15.7896 4.3639 16.0826C4.07087 16.3757 3.90625 16.7731 3.90625 17.1875Z" stroke="#F50756" stroke-width="1.5" stroke-linecap="round" stroke-linejoin="round"/>
<path d="M16.4062 17.1875H7.03125" stroke="#F50756" stroke-width="1.5" stroke-linecap="round" stroke-linejoin="round"/>
<path d="M3.90626 17.1875H2.34376C1.92935 17.1875 1.53193 17.0229 1.2389 16.7299C0.945876 16.4368 0.781256 16.0394 0.781256 15.625V11.8833C0.780088 11.2668 0.961301 10.6638 1.30209 10.15L3.90626 5.46875H11.6729C12.1703 5.46875 12.6605 5.58746 13.1027 5.81502C13.545 6.04257 13.9265 6.3724 14.2156 6.77708L17.1875 10.9375H20.7906C21.5304 10.9376 22.2461 11.2 22.8105 11.6782C23.3749 12.1564 23.7514 12.8193 23.8729 13.549L24.2188 15.625C24.2188 16.0394 24.0541 16.4368 23.7611 16.7299C23.4681 17.0229 23.0707 17.1875 22.6563 17.1875H19.5313" stroke="#F50756" stroke-width="1.5" stroke-linecap="round" stroke-linejoin="round"/>
<path d="M17.1875 10.9375H0.929199" stroke="#F50756" stroke-width="1.5" stroke-linecap="round" stroke-linejoin="round"/>
<path d="M7.03125 5.46875V10.9375" stroke="#F50756" stroke-width="1.5" stroke-linecap="round" stroke-linejoin="round"/>
<path d="M3.90625 5.46875H1.5625" stroke="#F50756" stroke-width="1.5" stroke-linecap="round" stroke-linejoin="round"/>
</svg>
