<svg xmlns="http://www.w3.org/2000/svg" width="20" height="20" fill="none">
    <path stroke="#F50756" stroke-linecap="round" stroke-linejoin="round" stroke-width="1.25" d="M7.5 6.25a2.5 2.5 0 105 0 2.5 2.5 0 00-5 0v0z"/><path stroke="#F50756" stroke-linecap="round" stroke-linejoin="round" stroke-width="1.25" d="M10 .625a5.625 5.625 0 015.625 5.625c0 2.71-4.277 8.773-5.372 10.28a.313.313 0 01-.506 0C8.652 15.023 4.375 8.96 4.375 6.25A5.625 5.625 0 0110 .625v0z"/><path stroke="#F50756" stroke-linecap="round" stroke-linejoin="round" stroke-width="1.25" d="M14.982 14.82c2.277.45 3.768 1.203 3.768 2.055 0 1.38-3.917 2.5-8.75 2.5s-8.75-1.12-8.75-2.5c0-.85 1.484-1.6 3.75-2.052"/>
</svg>