<svg width="18" height="17" viewBox="0 0 18 17" fill="none" xmlns="http://www.w3.org/2000/svg">
<path d="M8.31116 0.599557C8.57147 -0.00491577 9.42853 -0.00491577 9.68884 0.599557L11.5277 4.8695C11.6362 5.12163 11.8739 5.2943 12.1472 5.31965L16.7764 5.74899C17.4318 5.80977 17.6966 6.62488 17.2022 7.05925L13.7094 10.1276C13.5032 10.3087 13.4124 10.5881 13.4728 10.8559L14.4949 15.3912C14.6396 16.0332 13.9463 16.537 13.3804 16.201L9.38292 13.8274C9.14688 13.6872 8.85312 13.6872 8.61708 13.8274L4.61963 16.201C4.05373 16.537 3.36036 16.0332 3.50506 15.3912L4.52723 10.8559C4.58758 10.5881 4.49681 10.3087 4.29057 10.1276L0.79784 7.05925C0.303393 6.62488 0.568239 5.80977 1.22357 5.74899L5.85275 5.31965C6.1261 5.2943 6.36375 5.12163 6.47233 4.8695L8.31116 0.599557Z" fill="#F50756"/>
</svg>
