<svg width="25" height="25" viewBox="0 0 25 25" fill="none" xmlns="http://www.w3.org/2000/svg">
<path d="M6.25 8.59375V23.4375C6.25 23.6447 6.33231 23.8434 6.47882 23.9899C6.62534 24.1364 6.82405 24.2187 7.03125 24.2187H17.9687C18.1759 24.2187 18.3747 24.1364 18.5212 23.9899C18.6677 23.8434 18.75 23.6447 18.75 23.4375V8.59375" stroke="#F50756" stroke-width="1.5" stroke-linecap="round" stroke-linejoin="round"/>
<path d="M18.75 13.2812H22.6562C22.8634 13.2812 23.0622 13.1989 23.2087 13.0524C23.3552 12.9059 23.4375 12.7072 23.4375 12.5V7.03125C23.4375 5.37365 22.779 3.78393 21.6069 2.61183C20.4348 1.43973 18.8451 0.78125 17.1875 0.78125H15.625C15.625 1.61005 15.2958 2.40491 14.7097 2.99096C14.1237 3.57701 13.3288 3.90625 12.5 3.90625C11.6712 3.90625 10.8763 3.57701 10.2903 2.99096C9.70424 2.40491 9.375 1.61005 9.375 0.78125H7.8125C6.1549 0.78125 4.56518 1.43973 3.39308 2.61183C2.22098 3.78393 1.5625 5.37365 1.5625 7.03125V12.5C1.5625 12.7072 1.64481 12.9059 1.79132 13.0524C1.93784 13.1989 2.13655 13.2812 2.34375 13.2812H6.25" stroke="#F50756" stroke-width="1.5" stroke-linecap="round" stroke-linejoin="round"/>
</svg>
