<svg width="25" height="25" viewBox="0 0 25 25" fill="none" xmlns="http://www.w3.org/2000/svg">
<path d="M2.34378 4.08645V12.0177C2.34381 14.5246 3.10349 16.9727 4.5227 19.0392C5.94191 21.1057 7.95401 22.6937 10.2938 23.5937L11.3782 24.0104C12.1003 24.2882 12.8998 24.2882 13.6219 24.0104L14.7063 23.5937C17.0461 22.6937 19.0582 21.1057 20.4774 19.0392C21.8966 16.9727 22.6563 14.5246 22.6563 12.0177V4.08645C22.6583 3.788 22.574 3.49532 22.4136 3.24363C22.2532 2.99193 22.0235 2.79194 21.7521 2.6677C18.8353 1.39457 15.6825 0.751725 12.5 0.781246C9.31759 0.751725 6.16479 1.39457 3.24795 2.6677C2.97657 2.79194 2.74687 2.99193 2.58646 3.24363C2.42606 3.49532 2.34179 3.788 2.34378 4.08645V4.08645Z" stroke="#F50756" stroke-width="1.5" stroke-linecap="round" stroke-linejoin="round"/>
<path d="M12.0457 6.76462C12.088 6.68045 12.1529 6.60969 12.2331 6.56025C12.3133 6.5108 12.4056 6.48462 12.4999 6.48462C12.5941 6.48462 12.6864 6.5108 12.7666 6.56025C12.8468 6.60969 12.9117 6.68045 12.954 6.76462L14.0082 8.89066C14.0448 8.96377 14.0987 9.0269 14.1651 9.07462C14.2315 9.12233 14.3085 9.15322 14.3894 9.16462L16.7561 9.50733C16.8485 9.52029 16.9354 9.55873 17.0072 9.61835C17.079 9.67796 17.1327 9.75639 17.1624 9.84483C17.1915 9.93298 17.1951 10.0276 17.1728 10.1177C17.1505 10.2078 17.1032 10.2898 17.0363 10.3542L15.3176 12.0209C15.2598 12.0766 15.2165 12.1455 15.1914 12.2218C15.1664 12.298 15.1603 12.3793 15.1738 12.4584L15.579 14.8084C15.5947 14.9003 15.584 14.9947 15.5483 15.0808C15.5125 15.1669 15.4531 15.2411 15.3769 15.2948C15.3002 15.3493 15.2098 15.3815 15.1159 15.388C15.022 15.3944 14.9281 15.3748 14.8446 15.3313L12.7363 14.2292C12.6633 14.1912 12.5822 14.1714 12.4999 14.1714C12.4175 14.1714 12.3364 14.1912 12.2634 14.2292L10.1551 15.3323C10.0716 15.3758 9.97771 15.3954 9.88379 15.389C9.78987 15.3826 9.69955 15.3503 9.62277 15.2959C9.5466 15.2421 9.4872 15.1679 9.45144 15.0818C9.41568 14.9958 9.40502 14.9013 9.42069 14.8094L9.8259 12.4594C9.83938 12.3803 9.83333 12.2991 9.80828 12.2228C9.78323 12.1466 9.73993 12.0776 9.68215 12.0219L7.9634 10.3552C7.89653 10.2908 7.84922 10.2089 7.82692 10.1187C7.80462 10.0286 7.80824 9.93403 7.83736 9.84587C7.86714 9.75749 7.9209 9.67912 7.99263 9.61953C8.06437 9.55993 8.15126 9.52145 8.2436 9.50837L10.6113 9.1667C10.6921 9.15515 10.7689 9.12419 10.8351 9.07648C10.9013 9.02877 10.955 8.96572 10.9915 8.89275L12.0457 6.76462Z" stroke="#F50756" stroke-width="1.5" stroke-linecap="round" stroke-linejoin="round"/>
</svg>
