<svg width="15" height="27" viewBox="0 0 15 27" fill="none" xmlns="http://www.w3.org/2000/svg">
    <path d="M14.5555 8.45261C14.5071 8.39753 14.4477 8.35325 14.3811 8.32264C14.3145 8.29204 14.2422 8.27579 14.1689 8.27496H10.2292V6.80151C10.2292 6.50891 10.2919 6.17451 10.7622 6.17451H13.8972C13.966 6.17744 14.0346 6.16488 14.0979 6.13775C14.1612 6.11062 14.2176 6.06961 14.2629 6.01776C14.355 5.92221 14.4073 5.79518 14.4092 5.66246V1.48246C14.4092 1.34389 14.3542 1.21099 14.2562 1.113C14.1582 1.01501 14.0253 0.959961 13.8867 0.959961H9.36187C4.34587 0.959961 3.95922 5.24446 3.95922 6.55071V8.27496H1.34672C1.20814 8.27496 1.07524 8.33001 0.977256 8.428C0.879268 8.52599 0.824219 8.65889 0.824219 8.79746V12.9775C0.824219 13.116 0.879268 13.2489 0.977256 13.3469C1.07524 13.4449 1.20814 13.5 1.34672 13.5H3.95922V25.5175C3.95922 25.656 4.01427 25.7889 4.11225 25.8869C4.21024 25.9849 4.34314 26.04 4.48172 26.04H9.70672C9.84529 26.04 9.97819 25.9849 10.0762 25.8869C10.1742 25.7889 10.2292 25.656 10.2292 25.5175V13.5H13.73C13.8599 13.5006 13.9855 13.4528 14.0821 13.3658C14.1787 13.2789 14.2395 13.159 14.2525 13.0297L14.6914 8.84971C14.6974 8.77773 14.6884 8.70527 14.6651 8.63692C14.6417 8.56857 14.6044 8.50581 14.5555 8.45261Z" fill="#2069FA"/>
</svg>
