<svg width="30" height="30" viewBox="0 0 30 30" fill="none" xmlns="http://www.w3.org/2000/svg">
    <path d="M15.4126 7.71948C11.3386 7.71948 7.96289 11.0369 7.96289 15.1692C7.96289 19.3015 11.2804 22.619 15.4126 22.619C19.5449 22.619 22.8624 19.2433 22.8624 15.1692C22.8624 11.0951 19.4867 7.71948 15.4126 7.71948ZM15.4126 19.9417C12.7936 19.9417 10.6401 17.7883 10.6401 15.1692C10.6401 12.5502 12.7936 10.3967 15.4126 10.3967C18.0317 10.3967 20.1851 12.5502 20.1851 15.1692C20.1851 17.7883 18.0317 19.9417 15.4126 19.9417Z" fill="#2069FA"/>
    <path d="M23.1527 9.23284C24.0848 9.23284 24.8405 8.47717 24.8405 7.54501C24.8405 6.61284 24.0848 5.85718 23.1527 5.85718C22.2205 5.85718 21.4648 6.61284 21.4648 7.54501C21.4648 8.47717 22.2205 9.23284 23.1527 9.23284Z" fill="#2069FA"/>
    <path d="M27.5182 3.17982C26.005 1.60839 23.8515 0.793579 21.4071 0.793579H9.41767C4.35418 0.793579 0.978516 4.16924 0.978516 9.23273V21.164C0.978516 23.6666 1.79333 25.82 3.42296 27.3915C4.99439 28.9047 7.08963 29.6613 9.47587 29.6613H21.3489C23.8515 29.6613 25.9468 28.8465 27.46 27.3915C29.0314 25.8782 29.8462 23.7248 29.8462 21.2222V9.23273C29.8462 6.78829 29.0314 4.69305 27.5182 3.17982ZM27.2854 21.2222C27.2854 23.0264 26.6452 24.4814 25.5976 25.4708C24.5499 26.4602 23.0949 26.9841 21.3489 26.9841H9.47587C7.72984 26.9841 6.27481 26.4602 5.22719 25.4708C4.17957 24.4232 3.65576 22.9682 3.65576 21.164V9.23273C3.65576 7.4867 4.17957 6.03167 5.22719 4.98406C6.21661 3.99464 7.72984 3.47083 9.47587 3.47083H21.4653C23.2113 3.47083 24.6663 3.99464 25.714 5.04226C26.7034 6.08988 27.2854 7.5449 27.2854 9.23273V21.2222Z" fill="#2069FA"/>
</svg>
