<svg width="33" height="27" viewBox="0 0 33 27" fill="none" xmlns="http://www.w3.org/2000/svg">
    <path d="M31.8646 5.85502C31.9624 5.7737 32.0357 5.66682 32.0765 5.54628C32.1172 5.42574 32.1236 5.29627 32.0951 5.17228C32.0666 5.04829 32.0043 4.93464 31.915 4.84398C31.8257 4.75332 31.7131 4.6892 31.5896 4.65877L30.5033 4.38377C30.4045 4.35904 30.3125 4.31269 30.2338 4.24805C30.1552 4.18341 30.0918 4.10211 30.0484 4.01002C30.005 3.91792 29.9826 3.81733 29.9828 3.71551C29.983 3.6137 30.0058 3.5132 30.0496 3.42127L30.6546 2.19752C30.7117 2.07894 30.7336 1.94644 30.7177 1.81577C30.7017 1.6851 30.6486 1.56176 30.5646 1.46039C30.4806 1.35903 30.3693 1.28391 30.2439 1.24396C30.1185 1.20401 29.9842 1.2009 29.8571 1.23502L27.1071 2.00502C27.0046 2.0349 26.8966 2.04052 26.7916 2.02143C26.6866 2.00234 26.5874 1.95906 26.5021 1.89502C25.312 1.00249 23.8646 0.52002 22.3771 0.52002C20.5537 0.52002 18.805 1.24435 17.5157 2.53366C16.2264 3.82297 15.5021 5.57166 15.5021 7.39502V7.89002C15.5027 7.97447 15.4722 8.05619 15.4164 8.11959C15.3606 8.18299 15.2834 8.22364 15.1996 8.23377C11.3358 8.68752 7.63705 6.72127 3.64956 2.12877C3.56293 2.03324 3.45165 1.96344 3.32793 1.92705C3.20421 1.89066 3.07286 1.8891 2.94831 1.92252C2.8361 1.97409 2.73986 2.05494 2.66969 2.15656C2.59953 2.25818 2.55803 2.37682 2.54956 2.50002C1.99881 4.76236 2.22148 7.14398 3.18206 9.26502C3.21048 9.32128 3.22288 9.38426 3.21792 9.4471C3.21296 9.50993 3.19081 9.57019 3.15391 9.62129C3.11701 9.67238 3.06676 9.71235 3.00868 9.73682C2.95059 9.76129 2.8869 9.76931 2.82456 9.76002L1.28456 9.45752C1.17519 9.43994 1.0632 9.44904 0.958106 9.48405C0.853016 9.51907 0.757943 9.57895 0.680979 9.65862C0.604015 9.73828 0.54744 9.83536 0.516069 9.9416C0.484699 10.0478 0.479463 10.1601 0.500805 10.2688C0.619521 11.324 0.974045 12.339 1.53813 13.2387C2.10222 14.1384 2.86143 14.8997 3.75956 15.4663C3.81767 15.4944 3.86669 15.5384 3.90098 15.5931C3.93528 15.6478 3.95347 15.7111 3.95347 15.7756C3.95347 15.8402 3.93528 15.9035 3.90098 15.9582C3.86669 16.0129 3.81767 16.0569 3.75956 16.085L3.03081 16.3738C2.9423 16.4092 2.86215 16.4628 2.79544 16.5309C2.72872 16.599 2.67691 16.6803 2.64329 16.7695C2.60967 16.8587 2.59498 16.9539 2.60014 17.0492C2.60531 17.1444 2.63023 17.2375 2.67331 17.3225C3.07631 18.2043 3.68717 18.9753 4.45352 19.5692C5.21986 20.1631 6.11882 20.5623 7.0733 20.7325C7.13967 20.7566 7.197 20.8005 7.23752 20.8583C7.27804 20.9162 7.29978 20.985 7.29978 21.0556C7.29978 21.1262 7.27804 21.1951 7.23752 21.2529C7.197 21.3107 7.13967 21.3547 7.0733 21.3788C5.2038 22.152 3.19754 22.5401 1.17456 22.52C0.992219 22.4836 0.802864 22.521 0.648147 22.6242C0.493429 22.7273 0.386023 22.8877 0.349556 23.07C0.313088 23.2524 0.350547 23.4417 0.453692 23.5964C0.556837 23.7511 0.717219 23.8586 0.899555 23.895C4.40243 25.5564 8.21618 26.4606 12.0921 26.5488C15.5013 26.6008 18.8499 25.644 21.7171 23.7988C24.0755 22.2245 26.0078 20.0911 27.3417 17.5888C28.6756 15.0865 29.3697 12.2931 29.3621 9.45752V8.26127C29.3629 8.16143 29.3855 8.06297 29.4282 7.97274C29.4709 7.8825 29.5328 7.80267 29.6096 7.73877L31.8646 5.85502Z" fill="#2069FA"/>
</svg>
