<svg width="11" height="14" viewBox="0 0 11 14" fill="none" xmlns="http://www.w3.org/2000/svg">
<g clip-path="url(#clip0)">
<path fill-rule="evenodd" clip-rule="evenodd" d="M6.91834 1.94259L3.32814 6.18108C2.79374 6.81205 2.87137 7.76649 3.50031 8.30241C4.12925 8.83809 5.08123 8.76072 5.61564 8.1295L6.15029 7.49829L6.93401 6.57307L8.70376 4.48416C8.85561 4.30462 9.12624 4.28252 9.30503 4.43479C9.48381 4.58732 9.50586 4.85847 9.35425 5.03777L8.77895 5.71712L7.40008 7.34478C7.20905 7.5705 7.23648 7.91214 7.46156 8.10396C7.68663 8.29554 8.02731 8.26778 8.21859 8.04207L9.59721 6.41441L10.3104 5.57246C10.8448 4.94173 10.7674 3.98705 10.1382 3.45137C9.92564 3.27011 9.67607 3.1591 9.41818 3.11587L9.41671 3.11562C9.40887 3.1144 9.40103 3.11317 9.39295 3.11194H9.39173C9.36797 3.10826 9.34397 3.10506 9.32021 3.10285L9.31703 3.10261C9.29376 3.10015 9.27049 3.09843 9.24698 3.0972L9.24282 3.09696C9.2198 3.09573 9.19702 3.09524 9.17424 3.09524H9.16836C9.14608 3.09524 9.12354 3.09573 9.10126 3.09671L9.09464 3.09696C9.0726 3.09794 9.05081 3.09966 9.02876 3.10187L9.02093 3.10236L9.00035 3.10433L8.99349 3.10531C8.98149 3.10654 8.96949 3.10826 8.95749 3.10997C8.95431 3.11047 8.95088 3.11096 8.9477 3.11145L8.92835 3.1144C8.92516 3.11464 8.92222 3.11513 8.91904 3.11587C8.90802 3.11759 8.89675 3.1198 8.88573 3.12176L8.8752 3.12397C8.86932 3.12496 8.8632 3.12618 8.85708 3.12741C8.85316 3.12815 8.84949 3.12913 8.84557 3.13011C8.83553 3.13232 8.82548 3.13454 8.81544 3.13675C8.81128 3.13773 8.80736 3.13871 8.80369 3.13969C8.79781 3.14117 8.79218 3.14264 8.78654 3.14411L8.77332 3.14755L8.7503 3.15418C8.74442 3.15566 8.73829 3.15738 8.73217 3.15934C8.72703 3.16082 8.72213 3.16253 8.71723 3.16401C8.71209 3.16548 8.70719 3.16696 8.70229 3.16867C8.69739 3.17039 8.6925 3.17187 8.68735 3.17359C8.67902 3.17629 8.6707 3.17924 8.66237 3.18218C8.65772 3.1839 8.65306 3.18562 8.64841 3.18734C8.64302 3.18906 8.63788 3.19127 8.63249 3.19324C8.62784 3.19496 8.62343 3.19643 8.61902 3.19839C8.61045 3.20183 8.60188 3.20527 8.5933 3.20846C8.58914 3.21018 8.58522 3.2119 8.5813 3.21362C8.57543 3.21632 8.56955 3.21853 8.56367 3.22124C8.55975 3.22295 8.55583 3.22467 8.55167 3.22664C8.5431 3.23032 8.53428 3.2345 8.52546 3.23843C8.52228 3.2399 8.51934 3.24162 8.51591 3.24309C8.50954 3.24629 8.50293 3.24924 8.49656 3.25243C8.49289 3.25439 8.48922 3.25636 8.48554 3.25783C8.47746 3.26201 8.46938 3.26643 8.46154 3.27036L8.45297 3.27527C8.44562 3.27895 8.43827 3.28313 8.43068 3.28755L8.42113 3.29295C8.41354 3.29713 8.40619 3.3013 8.39884 3.30573L8.39198 3.3099C8.38341 3.31506 8.37533 3.31997 8.367 3.32537C8.36382 3.32734 8.36088 3.3293 8.3577 3.33102C8.3506 3.33569 8.34349 3.34036 8.33639 3.34502L8.33051 3.34895C8.3217 3.35485 8.31312 3.3605 8.30455 3.36688C8.30186 3.3686 8.29916 3.37057 8.29622 3.37253C8.28937 3.37744 8.28251 3.38236 8.27565 3.38751C8.27369 3.38899 8.27149 3.39071 8.26953 3.39218C8.26071 3.39857 8.25238 3.40495 8.24406 3.41134C8.24161 3.4133 8.2394 3.41527 8.2372 3.41699C8.2301 3.42239 8.22348 3.42804 8.21663 3.43344L8.21026 3.4386C8.20193 3.44548 8.19361 3.4526 8.18528 3.45997L8.17989 3.46439C8.17328 3.47053 8.16642 3.47667 8.15956 3.48281L8.15319 3.48846C8.14511 3.49583 8.13703 3.50344 8.12895 3.5113L8.12478 3.51499C8.11793 3.52186 8.11107 3.52874 8.10421 3.53537L8.09833 3.54151C8.0905 3.54962 8.08266 3.55772 8.07482 3.56583L8.07237 3.56828C8.06552 3.5759 8.05841 3.58376 8.05155 3.59137L8.04568 3.598C8.03784 3.6066 8.03049 3.61544 8.02314 3.62404L6.11575 5.87579L5.33178 6.801L4.93478 7.26962C4.78293 7.44892 4.5123 7.47127 4.33351 7.31875C4.15472 7.16671 4.13268 6.89531 4.28428 6.71602L7.87473 2.47728C8.40913 1.84631 8.33174 0.891871 7.70255 0.355951C7.07361 -0.17997 6.12188 -0.102112 5.58723 0.528614L3.395 3.11661L1.85914 4.9297L0.12711 6.97465C0.124172 6.97833 0.121233 6.98201 0.118294 6.98545C0.115355 6.98914 0.112661 6.99258 0.109722 6.99626C0.107028 6.99994 0.104333 7.00338 0.101639 7.00707C0.0989453 7.011 0.0964962 7.01443 0.0938021 7.01836C0.091353 7.02229 0.0886589 7.02573 0.0862098 7.02966C0.0837607 7.03359 0.0813115 7.03728 0.0791073 7.04096C0.0766581 7.04464 0.0744539 7.04882 0.0722497 7.05275C0.0700455 7.05643 0.0678412 7.06036 0.065637 7.06429C0.0634328 7.06822 0.0612286 7.07215 0.0592692 7.07608L0.0533913 7.08787C0.051432 7.09205 0.0497176 7.09598 0.0477583 7.10015C0.045799 7.10408 0.0443295 7.10801 0.0423702 7.11219C0.0406558 7.11612 0.0391863 7.12029 0.0374719 7.12447C0.0357575 7.1284 0.034288 7.13257 0.0328185 7.1365C0.031349 7.14092 0.0298795 7.1451 0.02841 7.14903C0.0269406 7.1532 0.025716 7.15738 0.0244914 7.16155C0.0230219 7.16598 0.0217974 7.16991 0.0205728 7.17408C0.0195931 7.17826 0.0183686 7.18268 0.017144 7.18685C0.0139601 7.19938 0.0112661 7.21215 0.00881691 7.22492C0.00808217 7.2291 0.00734743 7.23352 0.00661268 7.23794C0.00587794 7.24212 0.00538811 7.24629 0.00465337 7.25047C0.00416354 7.25489 0.00367371 7.25906 0.00318389 7.26348C0.00269406 7.2679 0.00244914 7.27208 0.00195931 7.2765C0.00146949 7.28068 0.00122457 7.2851 0.000979657 7.28952C0.000734743 7.29369 0.000489828 7.29811 0.000244914 7.30229C0.000244914 7.30671 0 7.31089 0 7.31531C0 7.31973 0 7.3239 0 7.32832C0 7.3325 0 7.33692 0.000244914 7.3411C0.000489828 7.34552 0.000489828 7.34994 0.000979657 7.35411C0.00122457 7.35853 0.00146949 7.36271 0.0017144 7.36713C0.00220423 7.37131 0.00244914 7.37548 0.00293897 7.3799C0.0034288 7.38408 0.00391863 7.3885 0.00465337 7.39267C0.00489828 7.39709 0.00563303 7.40152 0.00636777 7.40545C0.0068576 7.40987 0.00759234 7.41404 0.00832708 7.41822C0.00930674 7.42264 0.0100415 7.42681 0.0107762 7.43099C0.011511 7.43516 0.0124906 7.43959 0.0134703 7.44351C0.0144499 7.44794 0.0154296 7.45211 0.0166542 7.45629C0.0176338 7.46046 0.0188584 7.46464 0.0198381 7.46881C0.0210626 7.47323 0.0222872 7.47716 0.0235118 7.48134C0.0247363 7.48551 0.0259609 7.48969 0.0274304 7.49387C0.0288999 7.49779 0.0301244 7.50197 0.0315939 7.5059C0.0330634 7.51008 0.0347778 7.51425 0.0360024 7.51818C0.0377168 7.52236 0.0394312 7.52629 0.0409007 7.53046C0.0426151 7.53439 0.0443295 7.53832 0.0460439 7.5425C0.0477583 7.54618 0.0497176 7.55035 0.051432 7.55429C0.0533913 7.55821 0.0553506 7.56214 0.057065 7.56607H0.0573099C0.0592692 7.57 0.0609836 7.57393 0.0631879 7.57762C0.0653921 7.58155 0.0673514 7.58548 0.0695556 7.58916C0.0717599 7.59309 0.0739641 7.59678 0.0761683 7.60071C0.0783725 7.60439 0.0808217 7.60807 0.0830259 7.61176C0.0854751 7.61569 0.0876793 7.61913 0.0903733 7.62306C0.0925776 7.62674 0.0952716 7.63018 0.0977208 7.63386C0.100415 7.63755 0.102864 7.64123 0.105558 7.64467C0.108252 7.64811 0.110946 7.65179 0.11364 7.65548C0.116334 7.65891 0.119028 7.66235 0.121967 7.66579C0.124906 7.66923 0.1276 7.67267 0.130784 7.67611C0.133478 7.6793 0.136662 7.68274 0.139601 7.68618C0.14254 7.68937 0.145724 7.69281 0.148908 7.69625C0.152092 7.69944 0.155276 7.70263 0.158215 7.70583C0.161643 7.70926 0.164827 7.71221 0.168256 7.7154C0.171685 7.7186 0.174869 7.72155 0.178298 7.72474C0.181726 7.72793 0.185155 7.73063 0.188584 7.73383L3.82287 10.8297L5.8341 12.5429L6.99108 13.5285C7.62002 14.0644 8.57175 13.9866 9.1064 13.3558C9.64056 12.7251 9.56317 11.7707 8.93398 11.2345L7.24775 9.79818L6.68885 9.32194L6.40083 9.07682C6.17576 8.885 5.83533 8.91275 5.64405 9.13847C5.45302 9.36418 5.48045 9.70558 5.70552 9.89765L5.99354 10.1428L6.55243 10.619L8.07654 11.9171C8.25532 12.0696 8.27737 12.341 8.12552 12.5203C7.97367 12.6996 7.70329 12.7219 7.5245 12.5699L4.51818 10.0089L1.29315 7.26152L2.67789 5.62698L4.2135 3.81389L6.26809 1.38849C6.41994 1.20944 6.69057 1.18734 6.86935 1.33962C7.04814 1.4919 7.07018 1.76354 6.91834 1.94259Z" fill="white"/>
<path fill-rule="evenodd" clip-rule="evenodd" d="M2.97412 7.22048C2.99175 7.62475 3.16981 8.02141 3.49971 8.30239C4.12889 8.83831 5.08063 8.7607 5.61503 8.12973L6.14968 7.49851L6.93365 6.57305L8.70316 4.48414C8.855 4.30484 9.12563 4.28274 9.30467 4.43502C9.48345 4.58729 9.50549 4.85869 9.35389 5.03774L9.17339 5.25093C9.21527 5.35237 9.29585 5.51914 9.47047 5.66675C9.61571 5.78882 9.82535 5.89762 10.0556 5.87306L10.3098 5.57268C10.8442 4.94195 10.7668 3.98727 10.1379 3.45135C9.92503 3.27033 9.67547 3.15956 9.41782 3.11609L9.41635 3.11584C9.40826 3.11462 9.40043 3.11314 9.39259 3.11191H9.39112C9.36736 3.10848 9.34361 3.10528 9.31985 3.10283L9.31642 3.10258C9.29315 3.10037 9.26989 3.09865 9.24662 3.09742L9.24246 3.09718C9.21944 3.09595 9.19666 3.09546 9.17364 3.09546H9.168C9.14547 3.09546 9.12318 3.0957 9.10065 3.09693L9.09428 3.09718C9.07224 3.09816 9.0502 3.09988 9.0284 3.1016L9.02032 3.10234C9.01371 3.10307 9.00685 3.10381 8.99999 3.10455L8.99313 3.10553C8.98113 3.10676 8.96913 3.10848 8.95713 3.1102C8.9537 3.11069 8.95052 3.11118 8.94709 3.11167C8.94072 3.11241 8.93436 3.11339 8.92799 3.11437C8.9248 3.11486 8.92186 3.11535 8.91868 3.11609C8.90741 3.11806 8.89639 3.12002 8.88537 3.12198L8.87484 3.12395C8.86872 3.12518 8.8626 3.12641 8.85672 3.12763C8.8528 3.12837 8.84888 3.12935 8.84521 3.13009C8.83516 3.1323 8.82488 3.13476 8.81484 3.13697C8.81092 3.13795 8.807 3.13893 8.80308 3.13991C8.7972 3.14139 8.79182 3.14262 8.78594 3.14409L8.77271 3.14777L8.74993 3.15416C8.74381 3.15588 8.73769 3.1576 8.73157 3.15956C8.72667 3.16104 8.72177 3.16276 8.71663 3.16398C8.71173 3.16546 8.70658 3.16718 8.70169 3.1689C8.69679 3.17037 8.69189 3.17209 8.68699 3.17356C8.67867 3.17651 8.67034 3.17946 8.66201 3.1824C8.65736 3.18388 8.6527 3.1856 8.64805 3.18756C8.64266 3.18953 8.63727 3.19149 8.63213 3.19346C8.62748 3.19493 8.62307 3.19665 8.61842 3.19837C8.60984 3.20181 8.60127 3.20525 8.5927 3.20869C8.58878 3.2104 8.58486 3.21212 8.58094 3.21384C8.57507 3.21605 8.56919 3.21876 8.56331 3.22146C8.55939 3.22318 8.55547 3.22465 8.55131 3.22661C8.54249 3.23054 8.53368 3.23447 8.5251 3.23865C8.52192 3.24012 8.51874 3.24184 8.51555 3.24332C8.50894 3.24626 8.50257 3.24946 8.49596 3.25265C8.49253 3.25461 8.48886 3.25633 8.48518 3.25805C8.4771 3.26223 8.46902 3.2664 8.46118 3.27058L8.45261 3.27525L8.43032 3.28728L8.42053 3.29317C8.41318 3.2971 8.40559 3.30153 8.39824 3.30595L8.39138 3.30988C8.38305 3.31503 8.37473 3.32019 8.36664 3.3256C8.36322 3.32731 8.36028 3.32928 8.35709 3.33124C8.34999 3.33591 8.34289 3.34058 8.33578 3.34524L8.33015 3.34893C8.32133 3.35507 8.31276 3.36096 8.30419 3.36686C8.30125 3.36882 8.29856 3.37079 8.29586 3.37275C8.28901 3.37766 8.28215 3.38258 8.27529 3.38773C8.27309 3.38921 8.27088 3.39068 8.26892 3.39216C8.26035 3.39854 8.25202 3.40517 8.2437 3.4118C8.24125 3.41352 8.23904 3.41549 8.23659 3.41721C8.22974 3.42237 8.22312 3.42801 8.21627 3.43366L8.20965 3.43882C8.20133 3.4457 8.193 3.45282 8.18492 3.45994L8.17953 3.46461C8.17267 3.47051 8.16581 3.47689 8.15896 3.48279L8.15283 3.48868C8.14451 3.49605 8.13642 3.50366 8.12859 3.51128L8.12442 3.51521C8.11757 3.52184 8.11071 3.52896 8.10385 3.53559L8.09797 3.54149C8.08989 3.54984 8.08205 3.55794 8.07422 3.56605L8.07201 3.5685C8.06491 3.57612 8.05805 3.58373 8.05095 3.59159L8.04507 3.59822C8.03748 3.60682 8.03013 3.61542 8.02254 3.62401L6.11515 5.87576L5.33142 6.80122L4.93441 7.26984C4.78232 7.44914 4.51194 7.47124 4.33291 7.31872C4.20628 7.2109 4.15828 7.04315 4.19526 6.89062C4.03484 6.91715 3.87222 6.93115 3.71107 6.95792C3.43334 7.00385 3.15903 7.0876 2.97412 7.22048Z" fill="white"/>
<path fill-rule="evenodd" clip-rule="evenodd" d="M6.9184 1.94308L3.3282 6.18132C2.96304 6.61262 2.88368 7.19496 3.07104 7.69158C3.2513 7.80014 3.48691 7.87652 3.73794 7.81782C3.95861 7.766 4.19104 7.6093 4.43007 7.38088C4.39603 7.36516 4.36346 7.34453 4.33358 7.31899C4.15479 7.16696 4.13275 6.89556 4.28435 6.71626L7.87479 2.47753C8.40919 1.84656 8.33155 0.892116 7.70261 0.356195C7.07367 -0.179726 6.12194 -0.101868 5.58729 0.528859L3.67329 2.78822C3.71688 2.88106 3.76317 2.96654 3.80995 3.04243C4.00613 3.35951 4.21675 3.51277 4.27725 3.73898L6.26815 1.38874C6.42 1.20969 6.69063 1.18758 6.86942 1.33986C7.0482 1.49214 7.07049 1.76379 6.9184 1.94308Z" fill="white"/>
</g>
<defs>
<clipPath id="clip0">
<rect width="10.7824" height="13.9998" fill="white"/>
</clipPath>
</defs>
</svg>
