<?xml version="1.0" encoding="UTF-8" standalone="no"?>
<svg
   xmlns:dc="http://purl.org/dc/elements/1.1/"
   xmlns:cc="http://creativecommons.org/ns#"
   xmlns:rdf="http://www.w3.org/1999/02/22-rdf-syntax-ns#"
   xmlns:svg="http://www.w3.org/2000/svg"
   xmlns="http://www.w3.org/2000/svg"
   width="21"
   height="19"
   viewBox="0 0 21 19"
   fill="none"
   version="1.1"
   id="svg840">
  <metadata
     id="metadata846">
    <rdf:RDF>
      <cc:Work
         rdf:about="">
        <dc:format>image/svg+xml</dc:format>
        <dc:type
           rdf:resource="http://purl.org/dc/dcmitype/StillImage" />
        <dc:title></dc:title>
      </cc:Work>
    </rdf:RDF>
  </metadata>
  <defs
     id="defs844" />
  <path
     d="M10.3757 17.4053L2.38573 9.07198C1.68351 8.37031 1.22003 7.46536 1.06103 6.48548C0.902028 5.50559 1.05558 4.50052 1.49989 3.61281V3.61281C1.83494 2.94291 2.32437 2.36221 2.92785 1.91855C3.53133 1.47489 4.23159 1.18098 4.97094 1.06102C5.71029 0.941065 6.46756 0.998503 7.18035 1.2286C7.89315 1.4587 8.54107 1.85487 9.07073 2.38448L10.3757 3.68864L11.6807 2.38448C12.2104 1.85487 12.8583 1.4587 13.5711 1.2286C14.2839 0.998503 15.0412 0.941065 15.7805 1.06102C16.5199 1.18098 17.2201 1.47489 17.8236 1.91855C18.4271 2.36221 18.9165 2.94291 19.2516 3.61281C19.6953 4.50018 19.8486 5.50466 19.6897 6.48398C19.5309 7.4633 19.068 8.36784 18.3666 9.06948L10.3757 17.4053Z"
     stroke="#F50756"
     stroke-width="1.5"
     stroke-linecap="round"
     stroke-linejoin="round"
     id="path838"
     style="fill:#f50756;fill-opacity:1" />
</svg>
