<?xml version="1.0" encoding="UTF-8"?>
<svg width="142px" height="128px" viewBox="0 0 142 128" version="1.1" xmlns="http://www.w3.org/2000/svg" xmlns:xlink="http://www.w3.org/1999/xlink">
    <g id="Page-1" stroke="none" stroke-width="1" fill="none" fill-rule="evenodd">
        <g id="festivalpass-15" transform="translate(-106.000000, -116.000000)">
            <g id="Group" transform="translate(106.117000, 116.047081)">
                <path d="M5.361,88.2279186 C6.083,88.2279186 6.704,88.2809186 7.224,88.3869186 C7.743,88.4919186 8.108,88.5889186 8.32,88.6769186 L7.871,90.7899186 C7.659,90.6849186 7.359,90.5829186 6.973,90.4869186 C6.585,90.3899186 6.11,90.3409186 5.546,90.3409186 C4.402,90.3409186 3.601,90.6539186 3.143,91.2789186 C2.685,91.9039186 2.456,92.7449186 2.456,93.8009186 L2.456,94.9899186 L7.738,94.9899186 L7.738,97.0499186 L2.456,97.0499186 L2.456,108.723919 L0,108.723919 L0,93.7479186 C0,91.9869186 0.431,90.6269186 1.294,89.6679186 C2.157,88.7079186 3.513,88.2279186 5.361,88.2279186 Z M9.429,101.882919 C9.429,100.667919 9.605,99.6069186 9.957,98.7009186 C10.309,97.7929186 10.776,97.0409186 11.357,96.4419186 C11.938,95.8439186 12.607,95.3939186 13.365,95.0949186 C14.121,94.7959186 14.896,94.6469186 15.688,94.6469186 C17.537,94.6469186 18.955,95.2229186 19.941,96.3759186 C20.927,97.5299186 21.42,99.2859186 21.42,101.644919 C21.42,101.750919 21.42,101.886919 21.42,102.054919 C21.42,102.221919 21.411,102.375919 21.393,102.516919 L11.991,102.516919 C12.097,103.942919 12.511,105.025919 13.232,105.765919 C13.954,106.504919 15.081,106.874919 16.613,106.874919 C17.475,106.874919 18.202,106.799919 18.792,106.649919 C19.381,106.500919 19.826,106.354919 20.126,106.213919 L20.469,108.273919 C20.169,108.432919 19.646,108.599919 18.897,108.776919 C18.149,108.951919 17.299,109.039919 16.349,109.039919 C15.151,109.039919 14.117,108.859919 13.245,108.498919 C12.374,108.137919 11.656,107.639919 11.093,107.006919 C10.529,106.371919 10.112,105.619919 9.838,104.748919 C9.566,103.876919 9.429,102.921919 9.429,101.882919 Z M18.858,100.535919 C18.875,99.4269186 18.598,98.5149186 18.026,97.8019186 C17.454,97.0889186 16.666,96.7329186 15.662,96.7329186 C15.098,96.7329186 14.601,96.8429186 14.17,97.0629186 C13.738,97.2829186 13.373,97.5689186 13.074,97.9209186 C12.774,98.2729186 12.541,98.6779186 12.374,99.1359186 C12.207,99.5939186 12.097,100.060919 12.044,100.535919 L18.858,100.535919 Z M28.154,106.953919 C29.158,106.953919 29.902,106.821919 30.386,106.557919 C30.87,106.292919 31.112,105.870919 31.112,105.289919 C31.112,104.690919 30.875,104.215919 30.399,103.863919 C29.924,103.510919 29.14,103.114919 28.049,102.675919 C27.521,102.463919 27.015,102.247919 26.53,102.027919 C26.046,101.807919 25.628,101.548919 25.276,101.248919 C24.923,100.949919 24.642,100.587919 24.431,100.165919 C24.219,99.7439186 24.114,99.2239186 24.114,98.6079186 C24.114,97.3929186 24.563,96.4289186 25.461,95.7159186 C26.358,95.0029186 27.582,94.6469186 29.131,94.6469186 C29.519,94.6469186 29.906,94.6689186 30.294,94.7119186 C30.681,94.7559186 31.042,94.8089186 31.377,94.8709186 C31.711,94.9319186 32.006,94.9979186 32.261,95.0689186 C32.517,95.1389186 32.714,95.2009186 32.856,95.2539186 L32.407,97.3669186 C32.142,97.2259186 31.729,97.0799186 31.165,96.9309186 C30.602,96.7809186 29.924,96.7059186 29.131,96.7059186 C28.445,96.7059186 27.846,96.8429186 27.336,97.1159186 C26.825,97.3889186 26.57,97.8149186 26.57,98.3969186 C26.57,98.6959186 26.627,98.9599186 26.741,99.1889186 C26.856,99.4179186 27.032,99.6249186 27.27,99.8099186 C27.508,99.9949186 27.802,100.165919 28.154,100.323919 C28.506,100.482919 28.929,100.649919 29.422,100.825919 C30.074,101.072919 30.655,101.314919 31.165,101.552919 C31.676,101.790919 32.112,102.067919 32.472,102.384919 C32.834,102.701919 33.111,103.084919 33.305,103.533919 C33.498,103.982919 33.595,104.532919 33.595,105.183919 C33.595,106.451919 33.124,107.410919 32.182,108.062919 C31.24,108.714919 29.898,109.039919 28.154,109.039919 C26.94,109.039919 25.989,108.938919 25.302,108.736919 C24.615,108.533919 24.148,108.379919 23.902,108.273919 L24.351,106.161919 C24.633,106.266919 25.082,106.425919 25.698,106.636919 C26.315,106.847919 27.133,106.953919 28.154,106.953919 Z M39.036,94.9899186 L44.239,94.9899186 L44.239,97.0499186 L39.036,97.0499186 L39.036,103.387919 C39.036,104.074919 39.089,104.642919 39.195,105.091919 C39.3,105.540919 39.459,105.892919 39.67,106.148919 C39.881,106.403919 40.146,106.583919 40.463,106.689919 C40.78,106.795919 41.149,106.847919 41.572,106.847919 C42.311,106.847919 42.905,106.764919 43.354,106.596919 C43.804,106.429919 44.116,106.311919 44.292,106.240919 L44.767,108.273919 C44.521,108.397919 44.089,108.551919 43.474,108.736919 C42.857,108.920919 42.153,109.013919 41.36,109.013919 C40.427,109.013919 39.657,108.894919 39.05,108.656919 C38.442,108.419919 37.953,108.062919 37.583,107.587919 C37.214,107.112919 36.954,106.526919 36.804,105.831919 C36.655,105.135919 36.58,104.330919 36.58,103.414919 L36.58,91.1599186 L39.036,90.7369186 L39.036,94.9899186 Z M47.356,108.723919 L49.812,108.723919 L49.812,94.9899186 L47.356,94.9899186 L47.356,108.723919 Z M48.571,92.5069186 C48.13,92.5069186 47.757,92.3619186 47.448,92.0709186 C47.14,91.7799186 46.986,91.3889186 46.986,90.8959186 C46.986,90.4029186 47.14,90.0109186 47.448,89.7199186 C47.757,89.4299186 48.13,89.2849186 48.571,89.2849186 C49.011,89.2849186 49.385,89.4299186 49.693,89.7199186 C50.001,90.0109186 50.155,90.4029186 50.155,90.8959186 C50.155,91.3889186 50.001,91.7799186 49.693,92.0709186 C49.385,92.3619186 49.011,92.5069186 48.571,92.5069186 Z M64.761,94.9899186 C64.074,97.5599186 63.269,100.024919 62.344,102.384919 C61.42,104.743919 60.526,106.856919 59.663,108.723919 L57.445,108.723919 C56.582,106.856919 55.688,104.743919 54.764,102.384919 C53.84,100.024919 53.034,97.5599186 52.347,94.9899186 L54.989,94.9899186 C55.2,95.8529186 55.45,96.7719186 55.741,97.7499186 C56.032,98.7269186 56.34,99.6949186 56.666,100.654919 C56.992,101.613919 57.321,102.542919 57.656,103.440919 C57.99,104.338919 58.307,105.140919 58.607,105.844919 C58.906,105.140919 59.223,104.338919 59.557,103.440919 C59.892,102.542919 60.222,101.613919 60.548,100.654919 C60.874,99.6949186 61.182,98.7269186 61.472,97.7499186 C61.763,96.7719186 62.014,95.8529186 62.225,94.9899186 L64.761,94.9899186 Z M71.944,106.953919 C72.526,106.953919 73.04,106.940919 73.49,106.913919 C73.938,106.887919 74.313,106.838919 74.612,106.768919 L74.612,102.675919 C74.436,102.586919 74.15,102.512919 73.754,102.450919 C73.357,102.388919 72.878,102.358919 72.314,102.358919 C71.944,102.358919 71.553,102.384919 71.139,102.437919 C70.725,102.489919 70.346,102.599919 70.003,102.767919 C69.66,102.934919 69.374,103.163919 69.145,103.454919 C68.916,103.744919 68.802,104.127919 68.802,104.602919 C68.802,105.483919 69.083,106.095919 69.646,106.438919 C70.21,106.781919 70.976,106.953919 71.944,106.953919 Z M71.733,94.6469186 C72.719,94.6469186 73.552,94.7739186 74.229,95.0289186 C74.907,95.2849186 75.452,95.6449186 75.867,96.1119186 C76.28,96.5789186 76.576,97.1339186 76.751,97.7759186 C76.927,98.4179186 77.015,99.1269186 77.015,99.9019186 L77.015,108.485919 C76.804,108.520919 76.509,108.568919 76.13,108.630919 C75.752,108.692919 75.325,108.749919 74.85,108.802919 C74.374,108.855919 73.859,108.903919 73.304,108.947919 C72.75,108.991919 72.199,109.013919 71.654,109.013919 C70.879,109.013919 70.166,108.934919 69.515,108.776919 C68.863,108.617919 68.299,108.366919 67.824,108.022919 C67.349,107.679919 66.979,107.226919 66.715,106.662919 C66.451,106.099919 66.319,105.421919 66.319,104.628919 C66.319,103.872919 66.473,103.220919 66.781,102.675919 C67.089,102.129919 67.507,101.688919 68.036,101.354919 C68.564,101.019919 69.18,100.773919 69.884,100.614919 C70.588,100.456919 71.328,100.376919 72.103,100.376919 C72.349,100.376919 72.605,100.390919 72.869,100.416919 C73.133,100.443919 73.384,100.478919 73.621,100.522919 C73.859,100.566919 74.066,100.606919 74.242,100.640919 C74.418,100.676919 74.542,100.702919 74.612,100.720919 L74.612,100.033919 C74.612,99.6289186 74.568,99.2279186 74.48,98.8319186 C74.392,98.4359186 74.233,98.0839186 74.005,97.7759186 C73.775,97.4679186 73.463,97.2209186 73.067,97.0369186 C72.671,96.8509186 72.156,96.7589186 71.522,96.7589186 C70.712,96.7589186 70.003,96.8159186 69.396,96.9309186 C68.788,97.0449186 68.335,97.1639186 68.036,97.2869186 L67.745,95.2539186 C68.062,95.1129186 68.59,94.9769186 69.33,94.8439186 C70.069,94.7119186 70.871,94.6469186 71.733,94.6469186 Z M85.203,108.986919 C83.688,108.951919 82.615,108.626919 81.981,108.009919 C81.347,107.393919 81.03,106.433919 81.03,105.131919 L81.03,88.6509186 L83.486,88.2279186 L83.486,104.734919 C83.486,105.140919 83.521,105.474919 83.592,105.738919 C83.662,106.002919 83.777,106.213919 83.935,106.371919 C84.094,106.530919 84.305,106.649919 84.569,106.728919 C84.833,106.808919 85.159,106.874919 85.546,106.926919 L85.203,108.986919 Z M96.93,101.882919 C96.93,100.667919 96.657,99.6949186 96.111,98.9639186 C95.565,98.2339186 94.755,97.8679186 93.681,97.8679186 C93.329,97.8679186 93.003,97.8809186 92.704,97.9079186 C92.404,97.9349186 92.158,97.9649186 91.964,98.0009186 L91.964,105.104919 C92.211,105.262919 92.532,105.395919 92.928,105.500919 C93.324,105.606919 93.725,105.659919 94.13,105.659919 C95.997,105.659919 96.93,104.399919 96.93,101.882919 Z M100.944,101.776919 C100.944,102.850919 100.812,103.827919 100.548,104.708919 C100.284,105.588919 99.896,106.345919 99.386,106.979919 C98.875,107.613919 98.241,108.106919 97.484,108.459919 C96.727,108.810919 95.856,108.986919 94.87,108.986919 C94.324,108.986919 93.813,108.934919 93.338,108.828919 C92.862,108.723919 92.404,108.573919 91.964,108.379919 L91.964,113.609919 L88.029,113.609919 L88.029,95.3069186 C88.381,95.2009186 88.786,95.0989186 89.244,95.0029186 C89.702,94.9059186 90.181,94.8219186 90.684,94.7519186 C91.185,94.6819186 91.696,94.6239186 92.215,94.5799186 C92.735,94.5359186 93.232,94.5139186 93.708,94.5139186 C94.852,94.5139186 95.873,94.6859186 96.772,95.0289186 C97.669,95.3729186 98.426,95.8569186 99.042,96.4819186 C99.659,97.1069186 100.13,97.8679186 100.455,98.7659186 C100.781,99.6649186 100.944,100.667919 100.944,101.776919 Z M109.29,105.975919 C109.677,105.975919 110.047,105.967919 110.399,105.949919 C110.752,105.932919 111.033,105.905919 111.244,105.870919 L111.244,102.885919 C111.086,102.850919 110.848,102.815919 110.531,102.780919 C110.215,102.745919 109.924,102.727919 109.66,102.727919 C109.29,102.727919 108.942,102.749919 108.617,102.793919 C108.291,102.837919 108.005,102.921919 107.758,103.044919 C107.512,103.167919 107.318,103.334919 107.177,103.546919 C107.036,103.757919 106.966,104.021919 106.966,104.338919 C106.966,104.954919 107.173,105.382919 107.587,105.619919 C108,105.857919 108.568,105.975919 109.29,105.975919 Z M108.973,94.4609186 C110.135,94.4609186 111.103,94.5929186 111.878,94.8569186 C112.653,95.1219186 113.273,95.4999186 113.74,95.9929186 C114.207,96.4859186 114.537,97.0849186 114.731,97.7889186 C114.924,98.4939186 115.022,99.2769186 115.022,100.139919 L115.022,108.326919 C114.457,108.450919 113.675,108.594919 112.671,108.762919 C111.667,108.929919 110.452,109.013919 109.026,109.013919 C108.128,109.013919 107.313,108.934919 106.583,108.776919 C105.852,108.617919 105.223,108.357919 104.694,107.996919 C104.167,107.635919 103.761,107.164919 103.479,106.583919 C103.198,106.002919 103.057,105.289919 103.057,104.444919 C103.057,103.634919 103.22,102.947919 103.546,102.384919 C103.871,101.820919 104.307,101.371919 104.853,101.037919 C105.399,100.702919 106.024,100.460919 106.728,100.310919 C107.433,100.161919 108.163,100.086919 108.921,100.086919 C109.431,100.086919 109.884,100.108919 110.281,100.152919 C110.677,100.196919 110.998,100.253919 111.244,100.323919 L111.244,99.9549186 C111.244,99.2859186 111.042,98.7489186 110.637,98.3439186 C110.232,97.9389186 109.527,97.7359186 108.524,97.7359186 C107.855,97.7359186 107.195,97.7849186 106.543,97.8809186 C105.891,97.9789186 105.328,98.1149186 104.853,98.2909186 L104.351,95.1219186 C104.58,95.0509186 104.866,94.9769186 105.21,94.8969186 C105.553,94.8179186 105.927,94.7479186 106.332,94.6859186 C106.737,94.6239186 107.164,94.5719186 107.613,94.5269186 C108.062,94.4829186 108.515,94.4609186 108.973,94.4609186 Z M122.575,105.896919 C123.297,105.896919 123.807,105.826919 124.107,105.685919 C124.406,105.544919 124.556,105.271919 124.556,104.866919 C124.556,104.549919 124.362,104.272919 123.974,104.035919 C123.587,103.797919 122.997,103.529919 122.205,103.229919 C121.589,103.000919 121.03,102.762919 120.528,102.516919 C120.026,102.269919 119.599,101.974919 119.247,101.631919 C118.895,101.288919 118.622,100.878919 118.428,100.403919 C118.235,99.9279186 118.138,99.3559186 118.138,98.6869186 C118.138,97.3839186 118.622,96.3539186 119.59,95.5969186 C120.559,94.8399186 121.888,94.4609186 123.578,94.4609186 C124.423,94.4609186 125.233,94.5359186 126.008,94.6859186 C126.783,94.8349186 127.399,94.9979186 127.857,95.1739186 L127.171,98.2379186 C126.713,98.0799186 126.215,97.9389186 125.678,97.8149186 C125.141,97.6929186 124.538,97.6309186 123.869,97.6309186 C122.636,97.6309186 122.02,97.9739186 122.02,98.6609186 C122.02,98.8189186 122.047,98.9599186 122.1,99.0829186 C122.152,99.2069186 122.258,99.3259186 122.417,99.4399186 C122.575,99.5539186 122.79,99.6779186 123.063,99.8099186 C123.336,99.9459186 123.684,100.090919 124.107,100.249919 C124.969,100.570919 125.683,100.882919 126.246,101.195919 C126.809,101.503919 127.254,101.842919 127.58,102.199919 C127.906,102.560919 128.135,102.960919 128.266,103.401919 C128.399,103.840919 128.465,104.347919 128.465,104.928919 C128.465,106.297919 127.949,107.336919 126.919,108.040919 C125.889,108.740919 124.432,109.092919 122.548,109.092919 C121.316,109.092919 120.29,108.986919 119.471,108.776919 C118.653,108.564919 118.085,108.388919 117.768,108.247919 L118.428,105.051919 C119.097,105.315919 119.784,105.522919 120.488,105.672919 C121.193,105.821919 121.888,105.896919 122.575,105.896919 Z M135.385,105.896919 C136.106,105.896919 136.617,105.826919 136.916,105.685919 C137.216,105.544919 137.366,105.271919 137.366,104.866919 C137.366,104.549919 137.172,104.272919 136.784,104.035919 C136.397,103.797919 135.807,103.529919 135.015,103.229919 C134.398,103.000919 133.839,102.762919 133.338,102.516919 C132.836,102.269919 132.409,101.974919 132.057,101.631919 C131.705,101.288919 131.432,100.878919 131.238,100.403919 C131.044,99.9279186 130.948,99.3559186 130.948,98.6869186 C130.948,97.3839186 131.432,96.3539186 132.4,95.5969186 C133.368,94.8399186 134.698,94.4609186 136.388,94.4609186 C137.233,94.4609186 138.043,94.5359186 138.818,94.6859186 C139.593,94.8349186 140.209,94.9979186 140.667,95.1739186 L139.98,98.2379186 C139.522,98.0799186 139.024,97.9389186 138.488,97.8149186 C137.951,97.6929186 137.348,97.6309186 136.679,97.6309186 C135.446,97.6309186 134.83,97.9739186 134.83,98.6609186 C134.83,98.8189186 134.856,98.9599186 134.909,99.0829186 C134.962,99.2069186 135.068,99.3259186 135.226,99.4399186 C135.385,99.5539186 135.6,99.6779186 135.873,99.8099186 C136.146,99.9459186 136.494,100.090919 136.916,100.249919 C137.779,100.570919 138.492,100.882919 139.056,101.195919 C139.619,101.503919 140.064,101.842919 140.39,102.199919 C140.715,102.560919 140.944,102.960919 141.076,103.401919 C141.208,103.840919 141.274,104.347919 141.274,104.928919 C141.274,106.297919 140.759,107.336919 139.729,108.040919 C138.699,108.740919 137.242,109.092919 135.358,109.092919 C134.126,109.092919 133.1,108.986919 132.281,108.776919 C131.462,108.564919 130.895,108.388919 130.578,108.247919 L131.238,105.051919 C131.907,105.315919 132.593,105.522919 133.298,105.672919 C134.002,105.821919 134.698,105.896919 135.385,105.896919 L135.385,105.896919 Z" id="Fill-2" fill="#0E181F"></path>
                <path d="M50.052,122.357919 C50.806,122.357919 51.417,122.968919 51.417,123.722919 C51.417,124.475919 50.806,125.087919 50.052,125.087919 C49.298,125.087919 48.687,124.475919 48.687,123.722919 C48.687,122.968919 49.298,122.357919 50.052,122.357919 Z M92.903,127.215919 C92.237,127.200919 91.765,127.057919 91.486,126.786919 C91.208,126.515919 91.069,126.093919 91.069,125.521919 L91.069,118.276919 L92.148,118.091919 L92.148,125.347919 C92.148,125.525919 92.164,125.671919 92.194,125.788919 C92.225,125.904919 92.276,125.997919 92.346,126.066919 C92.415,126.136919 92.508,126.188919 92.624,126.223919 C92.74,126.258919 92.884,126.287919 93.054,126.310919 L92.903,127.215919 Z M94.261,127.100919 L95.341,127.100919 L95.341,121.063919 L94.261,121.063919 L94.261,127.100919 Z M94.795,119.972919 C94.601,119.972919 94.437,119.908919 94.302,119.780919 C94.166,119.652919 94.098,119.480919 94.098,119.263919 C94.098,119.046919 94.166,118.874919 94.302,118.746919 C94.437,118.619919 94.601,118.555919 94.795,118.555919 C94.989,118.555919 95.153,118.619919 95.288,118.746919 C95.424,118.874919 95.492,119.046919 95.492,119.263919 C95.492,119.480919 95.424,119.652919 95.288,119.780919 C95.153,119.908919 94.989,119.972919 94.795,119.972919 Z M101.912,121.063919 C101.61,122.192919 101.256,123.276919 100.849,124.313919 C100.443,125.351919 100.05,126.279919 99.671,127.100919 L98.696,127.100919 C98.317,126.279919 97.924,125.351919 97.518,124.313919 C97.111,123.276919 96.757,122.192919 96.455,121.063919 L97.616,121.063919 C97.709,121.442919 97.819,121.846919 97.947,122.276919 C98.075,122.705919 98.21,123.131919 98.353,123.553919 C98.497,123.975919 98.642,124.383919 98.789,124.778919 C98.935,125.173919 99.075,125.525919 99.206,125.834919 C99.338,125.525919 99.477,125.173919 99.625,124.778919 C99.772,124.383919 99.917,123.975919 100.06,123.553919 C100.203,123.131919 100.339,122.705919 100.466,122.276919 C100.594,121.846919 100.704,121.442919 100.797,121.063919 L101.912,121.063919 Z M102.527,124.093919 C102.527,123.558919 102.605,123.092919 102.759,122.694919 C102.914,122.295919 103.119,121.964919 103.375,121.701919 C103.63,121.438919 103.924,121.241919 104.257,121.109919 C104.59,120.977919 104.93,120.912919 105.279,120.912919 C106.091,120.912919 106.714,121.165919 107.148,121.672919 C107.581,122.179919 107.798,122.951919 107.798,123.988919 C107.798,124.035919 107.798,124.095919 107.798,124.168919 C107.798,124.242919 107.794,124.309919 107.786,124.371919 L103.653,124.371919 C103.7,124.998919 103.882,125.474919 104.199,125.799919 C104.516,126.124919 105.012,126.287919 105.685,126.287919 C106.064,126.287919 106.384,126.254919 106.643,126.188919 C106.902,126.123919 107.098,126.059919 107.229,125.997919 L107.38,126.902919 C107.248,126.972919 107.018,127.045919 106.689,127.123919 C106.36,127.200919 105.987,127.239919 105.569,127.239919 C105.042,127.239919 104.588,127.160919 104.205,127.001919 C103.822,126.842919 103.506,126.624919 103.259,126.345919 C103.011,126.066919 102.827,125.736919 102.707,125.352919 C102.587,124.969919 102.527,124.549919 102.527,124.093919 Z M106.672,123.501919 C106.679,123.013919 106.558,122.612919 106.306,122.299919 C106.054,121.986919 105.708,121.829919 105.267,121.829919 C105.019,121.829919 104.801,121.877919 104.611,121.974919 C104.421,122.071919 104.261,122.196919 104.129,122.352919 C103.998,122.506919 103.895,122.684919 103.822,122.885919 C103.748,123.087919 103.7,123.291919 103.677,123.501919 L106.672,123.501919 Z M58.375,127.215919 C57.709,127.200919 57.237,127.057919 56.959,126.786919 C56.68,126.515919 56.541,126.093919 56.541,125.521919 L56.541,118.276919 L57.62,118.090919 L57.62,125.346919 C57.62,125.524919 57.636,125.671919 57.666,125.787919 C57.698,125.904919 57.748,125.996919 57.818,126.066919 C57.887,126.135919 57.98,126.188919 58.096,126.223919 C58.212,126.258919 58.356,126.287919 58.526,126.310919 L58.375,127.215919 Z M59.733,127.099919 L60.813,127.099919 L60.813,121.062919 L59.733,121.062919 L59.733,127.099919 Z M60.267,119.971919 C60.074,119.971919 59.909,119.907919 59.774,119.779919 C59.638,119.652919 59.571,119.479919 59.571,119.263919 C59.571,119.046919 59.638,118.874919 59.774,118.746919 C59.909,118.619919 60.074,118.554919 60.267,118.554919 C60.461,118.554919 60.625,118.619919 60.76,118.746919 C60.896,118.874919 60.964,119.046919 60.964,119.263919 C60.964,119.479919 60.896,119.652919 60.76,119.779919 C60.625,119.907919 60.461,119.971919 60.267,119.971919 Z M67.384,121.062919 C67.082,122.192919 66.728,123.276919 66.321,124.313919 C65.915,125.350919 65.522,126.279919 65.143,127.099919 L64.168,127.099919 C63.789,126.279919 63.396,125.350919 62.99,124.313919 C62.583,123.276919 62.229,122.192919 61.927,121.062919 L63.089,121.062919 C63.181,121.442919 63.291,121.846919 63.419,122.276919 C63.547,122.705919 63.682,123.131919 63.826,123.553919 C63.969,123.974919 64.114,124.383919 64.261,124.777919 C64.408,125.172919 64.547,125.524919 64.679,125.834919 C64.811,125.524919 64.95,125.172919 65.097,124.777919 C65.244,124.383919 65.389,123.974919 65.532,123.553919 C65.675,123.131919 65.811,122.705919 65.939,122.276919 C66.066,121.846919 66.177,121.442919 66.27,121.062919 L67.384,121.062919 Z M67.999,124.093919 C67.999,123.558919 68.077,123.092919 68.231,122.694919 C68.386,122.295919 68.591,121.964919 68.847,121.701919 C69.102,121.438919 69.396,121.240919 69.729,121.109919 C70.062,120.977919 70.403,120.912919 70.751,120.912919 C71.564,120.912919 72.186,121.165919 72.62,121.672919 C73.053,122.179919 73.27,122.951919 73.27,123.988919 C73.27,124.034919 73.27,124.095919 73.27,124.168919 C73.27,124.242919 73.266,124.309919 73.258,124.371919 L69.126,124.371919 C69.172,124.998919 69.354,125.474919 69.671,125.799919 C69.988,126.124919 70.484,126.287919 71.157,126.287919 C71.536,126.287919 71.856,126.254919 72.115,126.188919 C72.374,126.122919 72.57,126.058919 72.701,125.996919 L72.852,126.902919 C72.72,126.971919 72.491,127.045919 72.161,127.123919 C71.833,127.200919 71.459,127.239919 71.041,127.239919 C70.515,127.239919 70.06,127.159919 69.677,127.001919 C69.294,126.842919 68.978,126.623919 68.731,126.344919 C68.483,126.066919 68.299,125.735919 68.179,125.352919 C68.059,124.969919 67.999,124.549919 67.999,124.093919 Z M72.144,123.500919 C72.152,123.013919 72.03,122.612919 71.778,122.299919 C71.527,121.985919 71.18,121.828919 70.739,121.828919 C70.492,121.828919 70.273,121.877919 70.083,121.974919 C69.893,122.071919 69.733,122.196919 69.601,122.351919 C69.47,122.506919 69.367,122.684919 69.294,122.885919 C69.22,123.086919 69.172,123.291919 69.149,123.500919 L72.144,123.500919 Z M78.727,122.339919 C78.595,122.231919 78.405,122.126919 78.158,122.026919 C77.91,121.925919 77.639,121.875919 77.345,121.875919 C77.035,121.875919 76.77,121.931919 76.55,122.043919 C76.329,122.156919 76.149,122.311919 76.01,122.507919 C75.871,122.705919 75.77,122.939919 75.708,123.210919 C75.646,123.481919 75.615,123.771919 75.615,124.081919 C75.615,124.785919 75.789,125.329919 76.138,125.712919 C76.486,126.095919 76.951,126.287919 77.531,126.287919 C77.825,126.287919 78.071,126.273919 78.268,126.246919 C78.465,126.219919 78.618,126.190919 78.727,126.159919 L78.727,122.339919 Z M78.727,118.276919 L79.806,118.090919 L79.806,126.925919 C79.559,126.995919 79.241,127.064919 78.854,127.134919 C78.467,127.204919 78.022,127.239919 77.519,127.239919 C77.055,127.239919 76.637,127.165919 76.265,127.018919 C75.894,126.871919 75.576,126.662919 75.314,126.391919 C75.05,126.120919 74.847,125.789919 74.704,125.398919 C74.561,125.008919 74.489,124.568919 74.489,124.081919 C74.489,123.616919 74.549,123.191919 74.669,122.804919 C74.789,122.417919 74.965,122.084919 75.197,121.805919 C75.429,121.527919 75.714,121.310919 76.051,121.155919 C76.387,121.000919 76.772,120.923919 77.206,120.923919 C77.554,120.923919 77.862,120.969919 78.129,121.062919 C78.396,121.155919 78.595,121.244919 78.727,121.329919 L78.727,118.276919 Z M30.15,127.213919 C29.484,127.197919 29.012,127.054919 28.734,126.783919 C28.455,126.512919 28.316,126.090919 28.316,125.518919 L28.316,118.273919 L29.395,118.088919 L29.395,125.344919 C29.395,125.522919 29.411,125.669919 29.442,125.785919 C29.473,125.901919 29.523,125.994919 29.593,126.063919 C29.662,126.133919 29.755,126.185919 29.871,126.220919 C29.987,126.255919 30.131,126.284919 30.301,126.307919 L30.15,127.213919 Z M31.508,127.097919 L32.588,127.097919 L32.588,121.060919 L31.508,121.060919 L31.508,127.097919 Z M32.042,119.968919 C31.849,119.968919 31.684,119.904919 31.549,119.777919 C31.413,119.649919 31.346,119.477919 31.346,119.260919 C31.346,119.043919 31.413,118.871919 31.549,118.744919 C31.684,118.616919 31.849,118.552919 32.042,118.552919 C32.236,118.552919 32.4,118.616919 32.536,118.744919 C32.671,118.871919 32.739,119.043919 32.739,119.260919 C32.739,119.477919 32.671,119.649919 32.536,119.777919 C32.4,119.904919 32.236,119.968919 32.042,119.968919 Z M36.802,118.088919 C37.119,118.088919 37.392,118.111919 37.621,118.157919 C37.849,118.204919 38.01,118.246919 38.103,118.285919 L37.905,119.214919 C37.812,119.167919 37.681,119.123919 37.51,119.080919 C37.34,119.038919 37.131,119.016919 36.884,119.016919 C36.38,119.016919 36.028,119.154919 35.827,119.428919 C35.626,119.703919 35.525,120.073919 35.525,120.537919 L35.525,121.060919 L37.847,121.060919 L37.847,121.965919 L35.525,121.965919 L35.525,127.097919 L34.446,127.097919 L34.446,120.514919 C34.446,119.740919 34.635,119.142919 35.014,118.720919 C35.394,118.299919 35.99,118.088919 36.802,118.088919 Z M38.59,124.090919 C38.59,123.555919 38.668,123.089919 38.823,122.691919 C38.977,122.292919 39.182,121.961919 39.437,121.698919 C39.693,121.435919 39.987,121.238919 40.32,121.106919 C40.653,120.974919 40.993,120.909919 41.342,120.909919 C42.154,120.909919 42.777,121.162919 43.211,121.669919 C43.644,122.176919 43.861,122.948919 43.861,123.985919 C43.861,124.032919 43.861,124.092919 43.861,124.165919 C43.861,124.239919 43.857,124.307919 43.849,124.368919 L39.716,124.368919 C39.763,124.995919 39.945,125.471919 40.262,125.796919 C40.579,126.121919 41.074,126.284919 41.748,126.284919 C42.127,126.284919 42.446,126.251919 42.706,126.185919 C42.965,126.119919 43.16,126.056919 43.292,125.994919 L43.443,126.899919 C43.311,126.969919 43.081,127.042919 42.752,127.120919 C42.423,127.197919 42.05,127.236919 41.632,127.236919 C41.106,127.236919 40.651,127.157919 40.268,126.998919 C39.884,126.839919 39.569,126.620919 39.321,126.342919 C39.074,126.063919 38.89,125.732919 38.77,125.349919 C38.65,124.966919 38.59,124.546919 38.59,124.090919 Z M42.735,123.498919 C42.743,123.010919 42.621,122.609919 42.369,122.296919 C42.118,121.982919 41.771,121.826919 41.33,121.826919 C41.082,121.826919 40.864,121.874919 40.674,121.971919 C40.484,122.068919 40.324,122.193919 40.192,122.348919 C40.061,122.503919 39.958,122.681919 39.884,122.882919 C39.811,123.083919 39.763,123.289919 39.74,123.498919 L42.735,123.498919 Z M85.645,122.357919 C86.399,122.357919 87.01,122.968919 87.01,123.722919 C87.01,124.475919 86.399,125.087919 85.645,125.087919 C84.892,125.087919 84.281,124.475919 84.281,123.722919 C84.281,122.968919 84.892,122.357919 85.645,122.357919 L85.645,122.357919 Z" id="Fill-3" fill="#0E181F"></path>
                <path d="M75.274,11.4729186 L54.014,36.4999186 C50.85,40.2249186 51.309,45.8619186 55.034,49.0259186 C58.759,52.1899186 64.395,51.7309186 67.559,48.0059186 L85.846,26.4789186 C86.746,25.4199186 88.348,25.2889186 89.407,26.1889186 C90.466,27.0879186 90.597,28.6899186 89.699,29.7489186 L78.127,43.3719186 C76.994,44.7039186 77.158,46.7209186 78.491,47.8539186 C79.824,48.9859186 81.841,48.8219186 82.973,47.4889186 L95.36,32.9069186 C98.525,29.1819186 98.066,23.5449186 94.341,20.3809186 C93.082,19.3109186 91.604,18.6559186 90.077,18.4009186 L90.069,18.3999186 C90.022,18.3919186 89.975,18.3849186 89.928,18.3769186 L89.92,18.3759186 C89.78,18.3549186 89.638,18.3379186 89.497,18.3239186 L89.478,18.3219186 C89.34,18.3079186 89.202,18.2979186 89.064,18.2899186 L89.038,18.2889186 C88.903,18.2819186 88.768,18.2789186 88.632,18.2779186 L88.598,18.2779186 C88.465,18.2779186 88.333,18.2809186 88.2,18.2869186 L88.161,18.2889186 C88.031,18.2949186 87.901,18.3049186 87.771,18.3159186 L87.725,18.3209186 C87.684,18.3249186 87.644,18.3289186 87.603,18.3329186 L87.563,18.3379186 C87.491,18.3469186 87.42,18.3559186 87.349,18.3659186 C87.33,18.3679186 87.31,18.3709186 87.291,18.3739186 C87.253,18.3789186 87.215,18.3849186 87.177,18.3909186 C87.158,18.3939186 87.14,18.3969186 87.122,18.3999186 C87.056,18.4109186 86.99,18.4229186 86.924,18.4359186 C86.904,18.4389186 86.883,18.4429186 86.862,18.4469186 C86.826,18.4539186 86.79,18.4619186 86.755,18.4689186 C86.732,18.4739186 86.709,18.4789186 86.686,18.4839186 C86.626,18.4969186 86.567,18.5109186 86.507,18.5249186 C86.484,18.5299186 86.461,18.5359186 86.438,18.5419186 C86.404,18.5499186 86.37,18.5589186 86.337,18.5669186 C86.311,18.5739186 86.284,18.5809186 86.258,18.5879186 C86.213,18.5999186 86.167,18.6129186 86.122,18.6259186 C86.086,18.6359186 86.051,18.6459186 86.015,18.6569186 C85.985,18.6659186 85.955,18.6749186 85.926,18.6839186 C85.896,18.6939186 85.867,18.7029186 85.837,18.7119186 C85.808,18.7219186 85.779,18.7309186 85.75,18.7409186 C85.7,18.7579186 85.651,18.7749186 85.601,18.7919186 C85.574,18.8019186 85.546,18.8119186 85.518,18.8219186 C85.487,18.8339186 85.456,18.8449186 85.425,18.8569186 C85.398,18.8669186 85.371,18.8769186 85.344,18.8879186 C85.293,18.9069186 85.243,18.9279186 85.192,18.9479186 C85.168,18.9579186 85.145,18.9679186 85.122,18.9779186 C85.087,18.9929186 85.052,19.0069186 85.018,19.0219186 C84.994,19.0329186 84.97,19.0429186 84.947,19.0529186 C84.895,19.0769186 84.843,19.0999186 84.791,19.1239186 C84.772,19.1329186 84.753,19.1429186 84.735,19.1519186 C84.696,19.1699186 84.658,19.1879186 84.62,19.2069186 C84.598,19.2179186 84.577,19.2289186 84.555,19.2399186 C84.507,19.2639186 84.46,19.2879186 84.412,19.3139186 L84.362,19.3409186 C84.317,19.3639186 84.274,19.3889186 84.23,19.4129186 L84.172,19.4459186 C84.128,19.4699186 84.084,19.4959186 84.041,19.5219186 L84,19.5459186 C83.95,19.5759186 83.901,19.6059186 83.852,19.6369186 C83.834,19.6479186 83.815,19.6599186 83.797,19.6719186 C83.755,19.6989186 83.713,19.7259186 83.671,19.7539186 L83.636,19.7769186 C83.585,19.8109186 83.534,19.8459186 83.483,19.8809186 C83.467,19.8929186 83.45,19.9049186 83.434,19.9159186 C83.393,19.9449186 83.353,19.9739186 83.312,20.0039186 C83.3,20.0129186 83.287,20.0219186 83.275,20.0319186 C83.224,20.0689186 83.174,20.1079186 83.124,20.1459186 C83.111,20.1569186 83.097,20.1679186 83.083,20.1789186 C83.043,20.2109186 83.002,20.2429186 82.962,20.2759186 C82.949,20.2859186 82.937,20.2959186 82.924,20.3069186 C82.875,20.3479186 82.825,20.3889186 82.777,20.4309186 L82.745,20.4589186 C82.704,20.4939186 82.664,20.5299186 82.624,20.5669186 L82.586,20.6009186 C82.538,20.6449186 82.49,20.6889186 82.443,20.7349186 L82.419,20.7579186 C82.378,20.7979186 82.337,20.8379186 82.297,20.8779186 L82.262,20.9139186 C82.215,20.9609186 82.168,21.0089186 82.122,21.0579186 L82.108,21.0729186 C82.067,21.1169186 82.025,21.1619186 81.985,21.2079186 L81.949,21.2479186 C81.904,21.2979186 81.859,21.3489186 81.815,21.4009186 L63.529,42.9279186 C62.629,43.9869186 61.027,44.1169186 59.967,43.2179186 C58.909,42.3189186 58.778,40.7169186 59.676,39.6579186 L80.937,14.6289186 C84.101,10.9039186 83.643,5.26791858 79.918,2.10391858 C76.193,-1.06108142 70.556,-0.60208142 67.392,3.12291858 L35.059,41.1859186 C35.041,41.2069186 35.024,41.2279186 35.007,41.2489186 C34.99,41.2709186 34.973,41.2919186 34.956,41.3129186 C34.94,41.3349186 34.924,41.3559186 34.908,41.3779186 C34.892,41.3999186 34.877,41.4219186 34.862,41.4439186 C34.847,41.4659186 34.832,41.4879186 34.817,41.5109186 C34.803,41.5329186 34.788,41.5549186 34.774,41.5779186 C34.761,41.6009186 34.747,41.6239186 34.734,41.6459186 C34.721,41.6689186 34.708,41.6919186 34.695,41.7149186 C34.682,41.7379186 34.67,41.7619186 34.658,41.7849186 C34.646,41.8079186 34.634,41.8319186 34.622,41.8549186 C34.611,41.8789186 34.6,41.9019186 34.589,41.9259186 C34.579,41.9499186 34.568,41.9739186 34.558,41.9979186 C34.548,42.0219186 34.538,42.0459186 34.528,42.0699186 C34.519,42.0939186 34.509,42.1179186 34.501,42.1429186 C34.492,42.1669186 34.483,42.1919186 34.475,42.2159186 C34.467,42.2409186 34.458,42.2649186 34.451,42.2899186 C34.443,42.3149186 34.436,42.3389186 34.429,42.3639186 C34.422,42.3889186 34.415,42.4139186 34.408,42.4379186 C34.389,42.5129186 34.372,42.5879186 34.359,42.6639186 C34.354,42.6889186 34.35,42.7149186 34.346,42.7399186 C34.342,42.7649186 34.338,42.7899186 34.335,42.8159186 C34.331,42.8409186 34.328,42.8659186 34.325,42.8919186 C34.323,42.9169186 34.32,42.9419186 34.318,42.9679186 C34.316,42.9929186 34.314,43.0189186 34.312,43.0449186 C34.311,43.0699186 34.31,43.0949186 34.308,43.1209186 C34.308,43.1459186 34.307,43.1719186 34.306,43.1969186 C34.306,43.2229186 34.306,43.2479186 34.306,43.2739186 C34.307,43.2989186 34.307,43.3249186 34.308,43.3499186 C34.309,43.3759186 34.31,43.4009186 34.311,43.4259186 C34.313,43.4519186 34.315,43.4769186 34.317,43.5029186 C34.319,43.5279186 34.321,43.5529186 34.324,43.5789186 C34.327,43.6039186 34.33,43.6289186 34.333,43.6549186 C34.336,43.6799186 34.34,43.7049186 34.344,43.7299186 C34.348,43.7549186 34.351,43.7809186 34.356,43.8059186 C34.361,43.8309186 34.365,43.8559186 34.37,43.8809186 C34.375,43.9059186 34.381,43.9309186 34.386,43.9559186 C34.392,43.9809186 34.398,44.0049186 34.404,44.0299186 C34.41,44.0549186 34.417,44.0799186 34.424,44.1039186 C34.431,44.1289186 34.438,44.1529186 34.445,44.1779186 C34.453,44.2019186 34.461,44.2269186 34.469,44.2509186 C34.477,44.2749186 34.485,44.2989186 34.494,44.3229186 C34.502,44.3479186 34.511,44.3719186 34.52,44.3959186 C34.529,44.4199186 34.539,44.4429186 34.549,44.4669186 C34.559,44.4909186 34.569,44.5149186 34.579,44.5379186 C34.59,44.5619186 34.6,44.5849186 34.611,44.6079186 C34.622,44.6319186 34.634,44.6549186 34.645,44.6779186 C34.657,44.7009186 34.669,44.7239186 34.681,44.7469186 C34.693,44.7699186 34.705,44.7919186 34.718,44.8149186 C34.731,44.8369186 34.744,44.8599186 34.757,44.8819186 C34.77,44.9049186 34.784,44.9269186 34.798,44.9489186 C34.812,44.9709186 34.826,44.9919186 34.841,45.0139186 C34.855,45.0359186 34.87,45.0569186 34.885,45.0789186 C34.9,45.0999186 34.915,45.1219186 34.931,45.1429186 C34.947,45.1639186 34.963,45.1849186 34.979,45.2049186 L34.979,45.2059186 C34.995,45.2259186 35.012,45.2469186 35.028,45.2669186 C35.045,45.2879186 35.062,45.3079186 35.08,45.3279186 C35.097,45.3479186 35.115,45.3679186 35.133,45.3879186 C35.151,45.4069186 35.169,45.4269186 35.187,45.4459186 C35.206,45.4659186 35.225,45.4849186 35.244,45.5039186 C35.263,45.5229186 35.282,45.5409186 35.302,45.5599186 C35.322,45.5779186 35.342,45.5969186 35.362,45.6149186 C35.382,45.6329186 35.403,45.6509186 35.424,45.6689186 L75.704,79.8859186 C79.429,83.0499186 85.066,82.5909186 88.23,78.8659186 C91.394,75.1409186 90.935,69.5049186 87.211,66.3409186 L72.21,53.5979186 C70.877,52.4659186 68.86,52.6299186 67.728,53.9629186 C66.596,55.2959186 66.76,57.3129186 68.093,58.4449186 L82.132,70.3709186 C83.191,71.2709186 83.322,72.8729186 82.422,73.9319186 C81.523,74.9909186 79.922,75.1219186 78.863,74.2239186 L41.964,42.8799186 L71.423,8.20191858 C72.322,7.14191858 73.925,7.01191858 74.984,7.91191858 C76.043,8.81091858 76.174,10.4139186 75.274,11.4729186" id="Fill-4" fill="#21AFD9"></path>
                <path d="M51.92,42.6369186 C52.025,45.0249186 53.079,47.3659186 55.034,49.0259186 C58.759,52.1899186 64.395,51.7309186 67.559,48.0059186 L85.846,26.4789186 C86.746,25.4199186 88.348,25.2899186 89.407,26.1889186 C90.466,27.0889186 90.597,28.6899186 89.699,29.7489186 L88.63,31.0069186 C88.879,31.6049186 89.355,32.5909186 90.39,33.4619186 C91.249,34.1829186 92.491,34.8249186 93.854,34.6799186 L95.36,32.9069186 C98.525,29.1819186 98.066,23.5459186 94.341,20.3809186 C93.082,19.3109186 91.604,18.6569186 90.077,18.4009186 L90.069,18.3999186 C90.022,18.3919186 89.975,18.3849186 89.928,18.3769186 L89.92,18.3759186 C89.78,18.3549186 89.638,18.3379186 89.497,18.3229186 L89.478,18.3219186 C89.34,18.3079186 89.202,18.2979186 89.064,18.2909186 L89.038,18.2889186 C88.903,18.2819186 88.768,18.2789186 88.633,18.2789186 L88.598,18.2779186 C88.465,18.2779186 88.333,18.2809186 88.2,18.2869186 L88.161,18.2889186 C88.031,18.2949186 87.901,18.3049186 87.771,18.3159186 L87.725,18.3209186 C87.685,18.3249186 87.644,18.3289186 87.604,18.3329186 L87.563,18.3379186 C87.492,18.3469186 87.42,18.3559186 87.349,18.3659186 C87.33,18.3679186 87.31,18.3709186 87.291,18.3739186 C87.253,18.3789186 87.215,18.3849186 87.177,18.3919186 C87.158,18.3939186 87.14,18.3969186 87.122,18.3999186 C87.055,18.4109186 86.99,18.4229186 86.924,18.4349186 C86.904,18.4389186 86.883,18.4429186 86.862,18.4469186 C86.827,18.4539186 86.791,18.4619186 86.755,18.4689186 C86.732,18.4739186 86.709,18.4789186 86.686,18.4839186 C86.627,18.4969186 86.567,18.5109186 86.507,18.5249186 C86.484,18.5299186 86.46,18.5359186 86.438,18.5419186 C86.404,18.5499186 86.37,18.5579186 86.336,18.5669186 C86.31,18.5739186 86.284,18.5809186 86.258,18.5879186 C86.213,18.5999186 86.167,18.6129186 86.122,18.6259186 C86.086,18.6359186 86.051,18.6459186 86.015,18.6569186 C85.985,18.6659186 85.955,18.6759186 85.926,18.6839186 C85.896,18.6939186 85.867,18.7029186 85.837,18.7129186 C85.808,18.7219186 85.779,18.7309186 85.75,18.7409186 C85.701,18.7579186 85.651,18.7739186 85.601,18.7919186 C85.574,18.8019186 85.546,18.8119186 85.518,18.8219186 C85.487,18.8339186 85.456,18.8449186 85.425,18.8569186 C85.398,18.8669186 85.371,18.8769186 85.344,18.8869186 C85.293,18.9069186 85.243,18.9279186 85.192,18.9479186 C85.168,18.9579186 85.145,18.9679186 85.122,18.9779186 C85.087,18.9919186 85.053,19.0069186 85.018,19.0219186 C84.994,19.0319186 84.97,19.0429186 84.947,19.0529186 C84.895,19.0769186 84.842,19.0999186 84.791,19.1239186 C84.772,19.1329186 84.754,19.1429186 84.735,19.1519186 C84.696,19.1699186 84.658,19.1889186 84.62,19.2069186 C84.598,19.2179186 84.576,19.2289186 84.555,19.2399186 C84.507,19.2639186 84.459,19.2879186 84.412,19.3129186 L84.362,19.3409186 C84.317,19.3639186 84.274,19.3889186 84.23,19.4129186 L84.172,19.4459186 C84.128,19.4699186 84.084,19.4959186 84.041,19.5219186 L84,19.5459186 C83.95,19.5759186 83.901,19.6059186 83.852,19.6369186 C83.833,19.6479186 83.815,19.6599186 83.797,19.6719186 C83.755,19.6989186 83.713,19.7259186 83.671,19.7539186 L83.636,19.7769186 C83.584,19.8109186 83.534,19.8459186 83.483,19.8809186 C83.467,19.8929186 83.45,19.9049186 83.434,19.9159186 C83.393,19.9459186 83.352,19.9749186 83.312,20.0039186 C83.3,20.0139186 83.287,20.0229186 83.275,20.0319186 C83.224,20.0699186 83.174,20.1079186 83.124,20.1459186 C83.111,20.1569186 83.097,20.1679186 83.084,20.1789186 C83.043,20.2099186 83.002,20.2429186 82.962,20.2749186 C82.949,20.2859186 82.937,20.2959186 82.924,20.3059186 C82.875,20.3479186 82.825,20.3889186 82.777,20.4309186 L82.745,20.4589186 C82.704,20.4939186 82.664,20.5309186 82.624,20.5669186 L82.586,20.5999186 C82.538,20.6449186 82.49,20.6899186 82.443,20.7349186 L82.419,20.7579186 C82.378,20.7979186 82.337,20.8379186 82.297,20.8779186 L82.262,20.9139186 C82.215,20.9609186 82.168,21.0089186 82.122,21.0579186 L82.108,21.0729186 C82.067,21.1169186 82.025,21.1619186 81.984,21.2079186 L81.949,21.2479186 C81.904,21.2979186 81.86,21.3489186 81.815,21.4009186 L63.528,42.9279186 C62.629,43.9869186 61.026,44.1169186 59.968,43.2179186 C59.217,42.5799186 58.933,41.5889186 59.152,40.6889186 C58.202,40.8449186 57.24,40.9279186 56.285,41.0859186 C54.64,41.3579186 53.016,41.8509186 51.92,42.6369186" id="Fill-5" fill="#76337F"></path>
                <path d="M75.274,11.4729186 L54.014,36.4999186 C51.851,39.0459186 51.382,42.4849186 52.491,45.4169186 C53.559,46.0589186 54.955,46.5109186 56.44,46.1629186 C57.748,45.8569186 59.124,44.9329186 60.539,43.5829186 C60.337,43.4899186 60.145,43.3679186 59.968,43.2179186 C58.909,42.3189186 58.778,40.7169186 59.676,39.6579186 L80.937,14.6289186 C84.102,10.9039186 83.643,5.26791858 79.918,2.10391858 C76.193,-1.06108142 70.556,-0.60108142 67.392,3.12291858 L56.059,16.4649186 C56.316,17.0129186 56.589,17.5169186 56.867,17.9649186 C58.028,19.8369186 59.277,20.7419186 59.635,22.0789186 L71.423,8.20191858 C72.322,7.14291858 73.925,7.01191858 74.984,7.91091858 C76.043,8.81091858 76.174,10.4139186 75.274,11.4729186" id="Fill-6" fill="#4E4C8D"></path>
                <path d="M56.651,15.7679186 L35.059,41.1859186 C35.041,41.2069186 35.024,41.2279186 35.007,41.2489186 C34.99,41.2709186 34.973,41.2919186 34.956,41.3129186 C34.94,41.3349186 34.924,41.3559186 34.908,41.3779186 C34.893,41.3999186 34.877,41.4219186 34.862,41.4439186 C34.846,41.4659186 34.832,41.4879186 34.817,41.5099186 C34.803,41.5329186 34.788,41.5549186 34.775,41.5779186 C34.761,41.6009186 34.747,41.6229186 34.734,41.6459186 C34.72,41.6689186 34.708,41.6919186 34.695,41.7149186 C34.682,41.7379186 34.67,41.7619186 34.658,41.7849186 C34.646,41.8079186 34.634,41.8319186 34.622,41.8549186 C34.611,41.8789186 34.6,41.9019186 34.59,41.9259186 C34.579,41.9499186 34.568,41.9739186 34.558,41.9979186 C34.548,42.0219186 34.538,42.0459186 34.528,42.0699186 C34.519,42.0939186 34.51,42.1179186 34.5,42.1429186 C34.492,42.1669186 34.483,42.1919186 34.475,42.2159186 C34.466,42.2409186 34.459,42.2649186 34.451,42.2899186 C34.443,42.3149186 34.436,42.3389186 34.429,42.3639186 C34.422,42.3889186 34.415,42.4129186 34.408,42.4389186 C34.389,42.5129186 34.372,42.5879186 34.359,42.6639186 C34.354,42.6889186 34.35,42.7149186 34.346,42.7399186 C34.342,42.7649186 34.338,42.7899186 34.335,42.8159186 C34.331,42.8409186 34.328,42.8659186 34.325,42.8919186 C34.322,42.9169186 34.32,42.9419186 34.318,42.9679186 C34.316,42.9929186 34.313,43.0189186 34.312,43.0439186 C34.311,43.0699186 34.31,43.0959186 34.308,43.1209186 C34.308,43.1459186 34.307,43.1719186 34.306,43.1969186 C34.306,43.2229186 34.306,43.2479186 34.306,43.2739186 C34.307,43.2989186 34.307,43.3249186 34.308,43.3499186 C34.309,43.3759186 34.31,43.4009186 34.311,43.4259186 C34.313,43.4519186 34.315,43.4769186 34.317,43.5029186 C34.319,43.5279186 34.321,43.5539186 34.324,43.5789186 C34.327,43.6039186 34.33,43.6289186 34.333,43.6549186 C34.336,43.6799186 34.34,43.7049186 34.344,43.7299186 C34.348,43.7559186 34.352,43.7809186 34.356,43.8059186 C34.36,43.8309186 34.365,43.8559186 34.37,43.8809186 C34.376,43.9059186 34.381,43.9309186 34.387,43.9559186 C34.392,43.9809186 34.398,44.0049186 34.404,44.0299186 C34.41,44.0549186 34.417,44.0789186 34.424,44.1039186 C34.431,44.1289186 34.438,44.1529186 34.445,44.1779186 C34.453,44.2019186 34.461,44.2269186 34.469,44.2509186 C34.477,44.2759186 34.485,44.2989186 34.494,44.3239186 C34.502,44.3479186 34.511,44.3709186 34.52,44.3959186 C34.53,44.4189186 34.539,44.4429186 34.549,44.4669186 C34.559,44.4909186 34.569,44.5149186 34.579,44.5379186 C34.59,44.5619186 34.6,44.5849186 34.611,44.6079186 C34.622,44.6319186 34.634,44.6549186 34.645,44.6779186 C34.656,44.7009186 34.668,44.7239186 34.681,44.7469186 C34.693,44.7699186 34.705,44.7919186 34.718,44.8149186 C34.731,44.8369186 34.744,44.8599186 34.757,44.8819186 C34.77,44.9039186 34.784,44.9259186 34.798,44.9489186 C34.812,44.9709186 34.826,44.9919186 34.84,45.0139186 C34.855,45.0359186 34.87,45.0579186 34.885,45.0789186 C34.9,45.0999186 34.916,45.1219186 34.931,45.1429186 C34.946,45.1639186 34.963,45.1849186 34.979,45.2059186 C34.995,45.2259186 35.011,45.2469186 35.029,45.2669186 C35.045,45.2879186 35.062,45.3079186 35.08,45.3279186 C35.097,45.3479186 35.115,45.3679186 35.133,45.3869186 C35.151,45.4069186 35.169,45.4269186 35.188,45.4459186 C35.206,45.4659186 35.225,45.4849186 35.244,45.5039186 C35.263,45.5229186 35.282,45.5409186 35.302,45.5599186 C35.322,45.5779186 35.342,45.5969186 35.362,45.6149186 C35.382,45.6329186 35.403,45.6509186 35.424,45.6689186 L66.23,71.8379186 C67.061,71.3639186 67.661,70.7859186 68.127,70.2599186 C69.425,68.7959186 69.693,67.7289186 69.421,66.4119186 C69.404,66.3269186 69.384,66.2409186 69.362,66.1529186 L41.964,42.8799186 L61.71,19.6359186 C61.424,18.3549186 60.518,17.3229186 59.311,16.6159186 C58.593,16.1959186 57.768,15.8909186 56.651,15.7679186" id="Fill-7" fill="#B01E7B"></path>
            </g>
        </g>
    </g>
</svg>