<svg xmlns="http://www.w3.org/2000/svg" xmlns:xlink="http://www.w3.org/1999/xlink" width="37" height="48" viewBox="0 0 37 48">
    <defs>
        <path id="a" d="M0 .286h20.405v32.557H0z"/>
    </defs>
    <g fill="none" fill-rule="evenodd">
        <path fill="#00B7EB" d="M23.74 6.661L11.42 21.193c-1.833 2.164-1.567 5.436.592 7.274a5.157 5.157 0 0 0 7.258-.593l1.835-2.164 2.69-3.173 6.072-7.162a1.466 1.466 0 0 1 2.063-.169c.614.523.69 1.453.17 2.067l-1.975 2.33-4.731 5.58a1.855 1.855 0 0 0 .21 2.603 1.847 1.847 0 0 0 2.598-.212l4.731-5.58 2.447-2.887c1.834-2.163 1.569-5.436-.59-7.273a5.097 5.097 0 0 0-2.471-1.15h-.005l-.082-.014h-.004a4.07 4.07 0 0 0-.245-.03l-.011-.002a4.545 4.545 0 0 0-.24-.018h-.015a4.41 4.41 0 0 0-.235-.007h-.02c-.077 0-.154.002-.23.005l-.023.001a4.08 4.08 0 0 0-.227.017l-.026.002-.071.006-.024.004c-.04.004-.082.01-.123.016l-.034.005-.066.01a.21.21 0 0 0-.032.005l-.114.02-.036.008-.063.012-.04.009-.103.023a1.41 1.41 0 0 0-.04.01l-.059.015-.045.012-.08.022-.061.018-.052.016a.912.912 0 0 0-.05.016l-.052.017-.086.03-.048.017-.054.02-.047.018-.088.034-.041.018c-.02.01-.04.017-.06.026a1.605 1.605 0 0 0-.042.019c-.03.012-.06.027-.09.04l-.032.016-.067.032a.391.391 0 0 1-.038.019c-.027.014-.055.03-.082.043l-.03.016c-.025.013-.05.027-.076.043l-.033.018a2.254 2.254 0 0 0-.076.044l-.024.014-.085.053-.032.02-.073.048-.02.013c-.03.02-.06.04-.09.062l-.028.019a3.731 3.731 0 0 0-.07.051l-.022.016-.087.066-.024.02-.07.056-.022.017a3.31 3.31 0 0 0-.086.074l-.018.015-.07.063-.022.02a3.549 3.549 0 0 0-.083.078l-.015.012a5.497 5.497 0 0 1-.07.07l-.02.021-.081.084-.008.008-.072.08-.02.022c-.027.03-.052.06-.077.09l-6.546 7.72-2.69 3.172-1.362 1.607a1.465 1.465 0 0 1-2.063.168 1.473 1.473 0 0 1-.17-2.066L27.023 8.494c1.834-2.163 1.569-5.435-.59-7.273-2.159-1.837-5.425-1.57-7.26.592l-7.522 8.873-5.27 6.217-5.944 7.011-.03.037-.03.037-.027.037-.027.04c-.008.013-.018.024-.026.038l-.024.039c-.009.012-.016.027-.024.04a1.656 1.656 0 0 0-.044.08l-.02.04-.02.043c-.007.013-.012.027-.018.04l-.017.043-.016.041-.015.043-.014.043a1.226 1.226 0 0 0-.025.087l-.029.13-.007.045-.007.043-.005.045-.004.044-.003.045-.003.044v.133c0 .015 0 .03.003.044l.002.045.004.044.006.044a.683.683 0 0 0 .021.131.644.644 0 0 0 .02.087l.011.043.013.043a.842.842 0 0 0 .013.042l.015.042.015.042.017.042.017.041.019.04a.883.883 0 0 1 .019.041c.008.014.013.027.021.04l.022.04.023.039.023.038.025.038.025.037.027.038c.01.011.019.024.028.037l.029.035c.01.012.019.024.03.035l.03.035.032.034.032.033.035.033.034.032.035.031 12.471 10.615 6.902 5.874 3.97 3.379c2.158 1.837 5.424 1.57 7.259-.592 1.833-2.163 1.567-5.435-.592-7.273l-5.786-4.925-1.918-1.633-.988-.84a1.845 1.845 0 0 0-2.597.211 1.855 1.855 0 0 0 .21 2.603l.99.84 1.917 1.633 5.23 4.451c.613.523.689 1.453.168 2.068a1.466 1.466 0 0 1-2.062.17l-10.317-8.78-11.066-9.42 4.751-5.604 5.27-6.217 7.05-8.316a1.467 1.467 0 0 1 2.063-.167c.614.522.69 1.453.169 2.067"/>
        <path fill="#853493" d="M10.208 24.757a5.152 5.152 0 0 0 1.803 3.71 5.157 5.157 0 0 0 7.259-.593l1.835-2.164 2.69-3.173 6.072-7.162a1.467 1.467 0 0 1 2.064-.169c.613.522.689 1.453.169 2.067l-.62.73c.144.349.42.92 1.02 1.426.498.419 1.218.792 2.008.708l.872-1.03c1.834-2.163 1.568-5.436-.59-7.273-.73-.62-1.587-1-2.47-1.15h-.006l-.081-.014h-.005a6.064 6.064 0 0 0-.245-.031l-.012-.001a5.725 5.725 0 0 0-.24-.018h-.014a4.42 4.42 0 0 0-.236-.007h-.02c-.076 0-.153.001-.23.006h-.022c-.076.004-.151.01-.226.016l-.028.002-.07.008-.023.003c-.041.004-.083.01-.124.016l-.034.005-.066.01a30.688 30.688 0 0 0-.146.026l-.036.006-.062.013-.04.008-.104.024-.04.01-.06.014-.045.013-.078.022-.063.018c-.017.005-.033.011-.051.015l-.051.017-.05.016-.086.03a3.877 3.877 0 0 0-.103.038l-.047.017-.088.036-.04.017a.936.936 0 0 0-.061.026l-.041.018-.09.041-.033.016-.067.032-.037.019-.083.043-.029.016-.076.041-.034.02a1.771 1.771 0 0 0-.077.044l-.023.014c-.029.017-.057.035-.085.054-.012.005-.022.012-.033.019l-.073.048-.02.013-.088.061-.029.02-.07.052-.022.015-.087.067-.024.019c-.024.017-.046.037-.07.056l-.023.018a3.499 3.499 0 0 0-.085.072l-.018.016-.07.062-.022.02a2.446 2.446 0 0 0-.083.078l-.014.014c-.024.022-.047.047-.07.07l-.02.02c-.029.028-.056.056-.082.084l-.008.008-.072.08-.02.022-.078.089-6.545 7.72-2.69 3.173-1.362 1.607c-.522.615-1.45.69-2.064.167-.434-.37-.599-.944-.472-1.467-.55.09-1.109.139-1.662.23-.953.158-1.894.445-2.528.9"/>
        <path fill="#5552A2" d="M23.74 6.662L11.42 21.193a5.18 5.18 0 0 0-.882 5.179c.619.372 1.427.634 2.289.432.757-.177 1.555-.715 2.375-1.498a1.473 1.473 0 0 1-.5-2.279l12.32-14.533c1.834-2.163 1.568-5.435-.59-7.273-2.159-1.837-5.425-1.57-7.26.592L12.606 9.56c.15.318.308.611.469.871.673 1.087 1.396 1.613 1.603 2.389L21.51 4.76a1.467 1.467 0 0 1 2.063-.167c.614.522.69 1.453.169 2.068"/>
        <g transform="translate(0 8.87)">
            <mask id="b" fill="#fff">
                <use xlink:href="#a"/>
            </mask>
            <path fill="#C3178C" d="M12.949.286l-1.299 1.53-5.27 6.217-5.943 7.012-.03.037a.632.632 0 0 0-.03.037l-.028.038c-.01.012-.018.024-.027.038l-.026.038-.024.039c-.009.013-.017.027-.024.04l-.022.04c-.008.013-.016.027-.022.04l-.02.04-.02.043a.613.613 0 0 0-.018.041l-.017.042a.51.51 0 0 0-.016.043l-.015.042-.014.042-.013.043a1.723 1.723 0 0 0-.04.174c-.004.015-.005.03-.008.045l-.007.043-.005.045-.004.045a.74.74 0 0 0-.003.044L0 16.168v.045c0 .015-.002.03 0 .044v.045c.001.014.001.03.003.044l.002.044.004.045a3.359 3.359 0 0 1 .012.087l.007.044.008.043a.812.812 0 0 0 .02.087.64.64 0 0 0 .011.043l.012.043.014.043a.8.8 0 0 0 .03.083c.006.015.01.028.017.042l.017.042.019.04c.007.013.012.027.02.04l.02.04a.596.596 0 0 0 .022.04l.023.04a.929.929 0 0 0 .023.037l.025.039.026.038.026.037.028.036.029.036.03.035.03.034.032.035c.01.012.022.022.032.033l.035.032c.01.011.022.021.034.032.012.011.024.02.035.032L13.12 28.262l5.38 4.58c.482-.274.83-.61 1.1-.916.752-.85.908-1.47.75-2.234-.01-.05-.021-.1-.034-.15l-4.81-4.094-11.067-9.42 4.75-5.604 5.271-6.216 1.421-1.676c-.165-.745-.69-1.343-1.39-1.753-.416-.245-.893-.422-1.541-.493" mask="url(#b)"/>
        </g>
    </g>
</svg>
