<svg xmlns="http://www.w3.org/2000/svg" xmlns:xlink="http://www.w3.org/1999/xlink" width="612" height="1082" viewBox="0 0 612 1082">
    <defs>
        <path id="a" d="M1129.436 250.098c-178.48 133.618-273.424 136.166-443.706 81.766-170.294-54.413-309.03-159.468-510.77-67.917C52.596 319.48-109.641 545.349 104.75 926.163c173.429 308.042 621.258 657.439 1094.073 545.071 308.384-73.306 612.148-389.209 671.32-801.707 30.708-213.995-6.549-468.708-175.32-602.988C1635.32 19.184 1580.615.036 1528.968.023c-144.04-.013-264.363 148.88-399.532 250.075"/>
    </defs>
    <g fill="none" fill-rule="evenodd" transform="scale(-1 1) rotate(-48 124.686 1285.554)">
        <mask id="b" fill="#fff">
            <use xlink:href="#a"/>
        </mask>
        <path fill="#2069FA" d="M1129.436 250.098c-178.48 133.618-273.424 136.166-443.706 81.766-170.294-54.413-309.03-159.468-510.77-67.917C52.596 319.48-109.641 545.349 104.75 926.163c173.429 308.042 621.258 657.439 1094.073 545.071 308.384-73.306 612.148-389.209 671.32-801.707 30.708-213.995-6.549-468.708-175.32-602.988C1635.32 19.184 1580.615.036 1528.968.023c-144.04-.013-264.363 148.88-399.532 250.075" mask="url(#b)" opacity=".1"/>
    </g>
</svg>
