<svg width="25" height="25" viewBox="0 0 25 25" fill="none" xmlns="http://www.w3.org/2000/svg">
<g clip-path="url(#clip0)">
<path d="M5.46875 20.6365V22.6156C5.46875 23.03 5.63337 23.4275 5.9264 23.7205C6.21942 24.0135 6.61685 24.1781 7.03125 24.1781C7.44565 24.1781 7.84308 24.0135 8.1361 23.7205C8.42913 23.4275 8.59375 23.03 8.59375 22.6156V21.0531" stroke="#F50756" stroke-width="1.5" stroke-linecap="round" stroke-linejoin="round"/>
<path d="M3.90625 5.43018H2.34375C1.92935 5.43018 1.53192 5.5948 1.2389 5.88782C0.94587 6.18085 0.78125 6.57827 0.78125 6.99268V10.1177" stroke="#F50756" stroke-width="1.5" stroke-linecap="round" stroke-linejoin="round"/>
<path d="M21.0938 5.43018H22.6562C23.0707 5.43018 23.4681 5.5948 23.7611 5.88782C24.0541 6.18085 24.2187 6.57827 24.2187 6.99268V10.1177" stroke="#F50756" stroke-width="1.5" stroke-linecap="round" stroke-linejoin="round"/>
<path d="M8.59375 21.0552H7.03125C6.20245 21.0552 5.40759 20.7259 4.82154 20.1399C4.23549 19.5538 3.90625 18.759 3.90625 17.9302V3.86768C3.90625 3.03887 4.23549 2.24402 4.82154 1.65797C5.40759 1.07192 6.20245 0.742676 7.03125 0.742676H17.9687C18.7976 0.742676 19.5924 1.07192 20.1785 1.65797C20.7645 2.24402 21.0937 3.03887 21.0937 3.86768V11.6802" stroke="#F50756" stroke-width="1.5" stroke-linecap="round" stroke-linejoin="round"/>
<path d="M8.59375 14.8052H3.90625" stroke="#F50756" stroke-width="1.5" stroke-linecap="round" stroke-linejoin="round"/>
<path d="M7.03125 17.9302H8.59375" stroke="#F50756" stroke-width="1.5" stroke-linecap="round" stroke-linejoin="round"/>
<path d="M10.1562 3.86768H14.8437" stroke="#F50756" stroke-width="1.5" stroke-linecap="round" stroke-linejoin="round"/>
<path d="M11.7188 14.8052H24.2187V24.1802H11.7188V14.8052Z" stroke="#F50756" stroke-width="1.5" stroke-linecap="round" stroke-linejoin="round"/>
<path d="M11.7188 17.9302H24.2187" stroke="#F50756" stroke-width="1.5" stroke-linecap="round" stroke-linejoin="round"/>
<path d="M14.8438 21.0552H17.1875" stroke="#F50756" stroke-width="1.5" stroke-linecap="round" stroke-linejoin="round"/>
</g>
<defs>
<clipPath id="clip0">
<rect width="25" height="25" fill="white"/>
</clipPath>
</defs>
</svg>
