<svg width="25" height="25" viewBox="0 0 25 25" fill="none" xmlns="http://www.w3.org/2000/svg">
<path d="M7.03027 0.78125V24.2187" stroke="#F50756" stroke-width="1.5" stroke-linecap="round" stroke-linejoin="round"/>
<path d="M10.1553 0.78125V7.8125C10.1528 8.64054 9.82277 9.43396 9.23725 10.0195C8.65173 10.605 7.85831 10.935 7.03027 10.9375C6.20223 10.935 5.40881 10.605 4.8233 10.0195C4.23778 9.43396 3.90775 8.64054 3.90527 7.8125V0.78125" stroke="#F50756" stroke-width="1.5" stroke-linecap="round" stroke-linejoin="round"/>
<path d="M16.4053 16.4063H19.5303C19.7376 16.4142 19.9444 16.3792 20.1375 16.3034C20.3306 16.2277 20.5061 16.1129 20.6528 15.9662C20.7995 15.8195 20.9143 15.6441 20.99 15.4509C21.0657 15.2578 21.1007 15.0511 21.0928 14.8438C20.9251 10.3563 20.7439 5.65629 17.8501 1.13858C17.7574 0.997238 17.6216 0.889506 17.4628 0.831317C17.3041 0.773127 17.1308 0.767568 16.9687 0.815463C16.8065 0.863358 16.6641 0.962163 16.5625 1.09727C16.4608 1.23237 16.4054 1.3966 16.4043 1.56566V24.2188" stroke="#F50756" stroke-width="1.5" stroke-linecap="round" stroke-linejoin="round"/>
</svg>
