<svg width="25" height="25" viewBox="0 0 25 25" fill="none" xmlns="http://www.w3.org/2000/svg">
<path d="M18.5512 19.8187C19.7668 19.614 20.9529 19.2622 22.0835 18.7708C22.4575 18.6027 22.7505 18.2944 22.8991 17.9122C23.0478 17.5301 23.0403 17.1048 22.8783 16.7281L21.445 13.3844C21.1948 12.8008 21.0658 12.1725 21.0658 11.5375V9.375C21.0658 7.0958 20.1604 4.90994 18.5487 3.2983C16.9371 1.68666 14.7512 0.78125 12.472 0.78125C10.1928 0.78125 8.00698 1.68666 6.39534 3.2983C4.78369 4.90994 3.87828 7.0958 3.87828 9.375V11.5375C3.87829 12.1725 3.74929 12.8008 3.49912 13.3844L2.06683 16.7281C1.9047 17.1047 1.89706 17.5298 2.04554 17.912C2.19403 18.2941 2.48675 18.6026 2.86058 18.7708C3.99113 19.2622 5.17728 19.614 6.39287 19.8187" stroke="#F50756" stroke-width="1.5" stroke-linecap="round" stroke-linejoin="round"/>
<path d="M22.3427 24.2187C21.4582 22.3491 20.0609 20.7691 18.3134 19.6627C16.566 18.5563 14.5402 17.9689 12.4719 17.9689C10.4036 17.9689 8.37785 18.5563 6.63038 19.6627C4.88291 20.7691 3.4856 22.3491 2.60107 24.2187" stroke="#F50756" stroke-width="1.5" stroke-linecap="round" stroke-linejoin="round"/>
<path d="M14.8159 24.2187L16.9347 18.9208" stroke="#F50756" stroke-width="1.5" stroke-linecap="round" stroke-linejoin="round"/>
<path d="M8.00977 18.9208L10.1285 24.2187" stroke="#F50756" stroke-width="1.5" stroke-linecap="round" stroke-linejoin="round"/>
<path d="M12.4718 5.46875C12.4718 5.46875 10.9791 9.21875 7.23119 9.36979C6.98647 10.1863 6.93602 11.0487 7.08385 11.8882C7.23168 12.7277 7.57371 13.521 8.08263 14.2049C8.59156 14.8887 9.25328 15.444 10.015 15.8267C10.7767 16.2093 11.6173 16.4085 12.4697 16.4085C13.3221 16.4085 14.1627 16.2093 14.9245 15.8267C15.6862 15.444 16.3479 14.8887 16.8568 14.2049C17.3657 13.521 17.7078 12.7277 17.8556 11.8882C18.0034 11.0487 17.953 10.1863 17.7083 9.36979C13.9656 9.21562 12.4718 5.46875 12.4718 5.46875Z" stroke="#F50756" stroke-width="1.5" stroke-linecap="round" stroke-linejoin="round"/>
</svg>
