<svg width="25" height="25" viewBox="0 0 25 25" fill="none" xmlns="http://www.w3.org/2000/svg">
<path d="M13.053 5.25208L14.3541 7.8125H16.5686C16.6906 7.80952 16.8106 7.84341 16.913 7.90974C17.0154 7.97608 17.0954 8.07176 17.1426 8.18429C17.1897 8.29681 17.2018 8.42095 17.1773 8.54046C17.1528 8.65998 17.0928 8.76931 17.0051 8.85417L14.9718 10.8563L16.0988 13.4375C16.1481 13.5561 16.1589 13.6872 16.1297 13.8123C16.1006 13.9374 16.033 14.0502 15.9365 14.135C15.8399 14.2197 15.7193 14.272 15.5915 14.2846C15.4636 14.2972 15.3351 14.2694 15.2238 14.2052L12.4999 12.676L9.77593 14.2083C9.66477 14.2729 9.53614 14.3009 9.40821 14.2884C9.28028 14.2759 9.1595 14.2235 9.06292 14.1387C8.96635 14.0539 8.89886 13.9409 8.86998 13.8156C8.8411 13.6903 8.85229 13.5592 8.90197 13.4406L10.0291 10.8521L7.99468 8.85417C7.90694 8.76925 7.84689 8.65982 7.82239 8.5402C7.79789 8.42059 7.81008 8.29636 7.85736 8.18378C7.90464 8.07121 7.98481 7.97554 8.08738 7.90929C8.18994 7.84304 8.31012 7.80931 8.43218 7.8125H10.6468L11.9478 5.25208C12.0009 5.15157 12.0804 5.06744 12.1778 5.00876C12.2752 4.95008 12.3867 4.91907 12.5004 4.91907C12.6141 4.91907 12.7256 4.95008 12.823 5.00876C12.9204 5.06744 12.9999 5.15157 13.053 5.25208V5.25208Z" stroke="#F50756" stroke-width="1.5" stroke-linecap="round" stroke-linejoin="round"/>
<path d="M4.91354 13.7L0.78125 18.75L4.6875 19.5312L6.25 24.2187L10.4073 17.6229" stroke="#F50756" stroke-width="1.5" stroke-linecap="round" stroke-linejoin="round"/>
<path d="M20.0865 13.7L24.2188 18.75L20.3125 19.5312L18.75 24.2187L14.5938 17.6229" stroke="#F50756" stroke-width="1.5" stroke-linecap="round" stroke-linejoin="round"/>
<path d="M12.9906 0.954172L14.9146 2.50001L17.3823 2.37709C17.5603 2.36827 17.736 2.4206 17.8802 2.52538C18.0244 2.63016 18.1284 2.78109 18.175 2.95313L18.8209 5.33855L20.8896 6.69271C21.0398 6.79068 21.1519 6.93721 21.207 7.10784C21.2622 7.27847 21.2571 7.46286 21.1927 7.63021L20.3125 9.93438L21.1927 12.2427C21.256 12.4094 21.2604 12.5927 21.2053 12.7622C21.1502 12.9318 21.0388 13.0774 20.8896 13.175L18.8209 14.5292L18.175 16.9146C18.1284 17.0866 18.0244 17.2376 17.8802 17.3423C17.736 17.4471 17.5603 17.4994 17.3823 17.4906L14.9146 17.3677L12.9906 18.9177C12.8517 19.0294 12.6788 19.0903 12.5005 19.0903C12.3223 19.0903 12.1494 19.0294 12.0104 18.9177L10.0865 17.3646L7.61877 17.4875C7.44062 17.4964 7.26479 17.4441 7.12042 17.3393C6.97606 17.2345 6.87183 17.0836 6.82502 16.9115L6.18023 14.526L4.11148 13.1719C3.96184 13.0747 3.8501 12.9291 3.79493 12.7594C3.73975 12.5897 3.7445 12.4062 3.80836 12.2396L4.68752 9.93438L3.80836 7.62501C3.74334 7.45772 3.738 7.27313 3.79321 7.10235C3.84843 6.93158 3.96084 6.78506 4.11148 6.6875L6.18023 5.33334L6.82502 2.94792C6.87183 2.7758 6.97606 2.62484 7.12042 2.52007C7.26479 2.4153 7.44062 2.36302 7.61877 2.37188L10.0865 2.50001L12.0104 0.954172C12.1494 0.842494 12.3223 0.781616 12.5005 0.781616C12.6788 0.781616 12.8517 0.842494 12.9906 0.954172V0.954172Z" stroke="#F50756" stroke-width="1.5" stroke-linecap="round" stroke-linejoin="round"/>
</svg>
