<svg width="25" height="25" viewBox="0 0 25 25" fill="none" xmlns="http://www.w3.org/2000/svg">
<path d="M13.2812 23.4407V1.56567" stroke="#F50756" stroke-width="1.5" stroke-linecap="round" stroke-linejoin="round"/>
<path d="M17.1875 6.25317C17.1875 7.08197 17.5167 7.87683 18.1028 8.46288C18.6888 9.04893 19.4837 9.37817 20.3125 9.37817C21.1413 9.37817 21.9362 9.04893 22.5222 8.46288C23.1083 7.87683 23.4375 7.08197 23.4375 6.25317C23.4375 5.42437 23.1083 4.62952 22.5222 4.04347C21.9362 3.45741 21.1413 3.12817 20.3125 3.12817C19.4837 3.12817 18.6888 3.45741 18.1028 4.04347C17.5167 4.62952 17.1875 5.42437 17.1875 6.25317V6.25317Z" stroke="#F50756" stroke-width="1.5" stroke-linecap="round" stroke-linejoin="round"/>
<path d="M24.2187 17.1875V14.8437C24.2187 13.8077 23.8072 12.8142 23.0746 12.0816C22.3421 11.3491 21.3485 10.9375 20.3125 10.9375C19.2765 10.9375 18.2829 11.3491 17.5504 12.0816C16.8178 12.8142 16.4062 13.8077 16.4062 14.8437V17.1875H17.9687L18.75 23.4375H21.875L22.6562 17.1875H24.2187Z" stroke="#F50756" stroke-width="1.5" stroke-linecap="round" stroke-linejoin="round"/>
<path d="M7.03125 23.4375L7.8125 18.75H10.1562L8.975 14.4469C8.27396 12.3427 7.40521 10.9375 5.46875 10.9375C3.53229 10.9375 2.66354 12.3396 1.9625 14.4438L0.78125 18.75H3.125L3.90625 23.4375H7.03125Z" stroke="#F50756" stroke-width="1.5" stroke-linecap="round" stroke-linejoin="round"/>
<path d="M2.34375 6.25317C2.34375 7.08197 2.67299 7.87683 3.25904 8.46288C3.84509 9.04893 4.63995 9.37817 5.46875 9.37817C6.29755 9.37817 7.09241 9.04893 7.67846 8.46288C8.26451 7.87683 8.59375 7.08197 8.59375 6.25317C8.59375 5.42437 8.26451 4.62952 7.67846 4.04347C7.09241 3.45741 6.29755 3.12817 5.46875 3.12817C4.63995 3.12817 3.84509 3.45741 3.25904 4.04347C2.67299 4.62952 2.34375 5.42437 2.34375 6.25317V6.25317Z" stroke="#F50756" stroke-width="1.5" stroke-linecap="round" stroke-linejoin="round"/>
</svg>
