<svg width="20" height="20" viewBox="0 0 20 20" fill="none" xmlns="http://www.w3.org/2000/svg">
<g clip-path="url(#clip0)">
<path d="M9.99975 18.2034L2.00975 9.87007C1.30753 9.16841 0.844053 8.26346 0.685052 7.28357C0.526051 6.30369 0.679599 5.29862 1.12392 4.41091V4.41091C1.45896 3.74101 1.94839 3.1603 2.55187 2.71665C3.15536 2.27299 3.85562 1.97907 4.59496 1.85912C5.33431 1.73916 6.09158 1.7966 6.80437 2.0267C7.51717 2.2568 8.16509 2.65297 8.69475 3.18257L9.99975 4.48674L11.3048 3.18257C11.8344 2.65297 12.4823 2.2568 13.1951 2.0267C13.9079 1.7966 14.6652 1.73916 15.4045 1.85912C16.1439 1.97907 16.8441 2.27299 17.4476 2.71665C18.0511 3.1603 18.5405 3.74101 18.8756 4.41091C19.3193 5.29828 19.4726 6.30275 19.3138 7.28208C19.1549 8.2614 18.692 9.16593 17.9906 9.86757L9.99975 18.2034Z" stroke="white" stroke-width="1.5" stroke-linecap="round" stroke-linejoin="round"/>
</g>
<defs>
<clipPath id="clip0">
<rect width="20" height="20" fill="white"/>
</clipPath>
</defs>
</svg>
