<svg width="20" height="20" viewBox="0 0 20 20" fill="none" xmlns="http://www.w3.org/2000/svg">
<path d="M8.40167 7.91675C8.053 7.52457 7.6254 7.21048 7.1469 6.99506C6.66839 6.77965 6.14976 6.66777 5.625 6.66675H4.375C3.38044 6.66675 2.42661 7.06184 1.72335 7.7651C1.02009 8.46836 0.625 9.42219 0.625 10.4167C0.625 11.4113 1.02009 12.3651 1.72335 13.0684C2.42661 13.7717 3.38044 14.1667 4.375 14.1667H5.625C6.14973 14.1655 6.66829 14.0535 7.14676 13.8381C7.62524 13.6227 8.05287 13.3088 8.40167 12.9167" stroke="#F50756" stroke-width="1.25" stroke-linecap="round" stroke-linejoin="round"/>
<path d="M11.5986 7.91675C11.9473 7.52452 12.3749 7.21041 12.8534 6.99499C13.3319 6.77957 13.8505 6.66771 14.3753 6.66675H15.6253C16.6199 6.66675 17.5737 7.06184 18.2769 7.7651C18.9802 8.46836 19.3753 9.42219 19.3753 10.4167C19.3753 11.4113 18.9802 12.3651 18.2769 13.0684C17.5737 13.7717 16.6199 14.1667 15.6253 14.1667H14.3753C13.8506 14.1656 13.332 14.0537 12.8535 13.8383C12.375 13.6229 11.9474 13.3088 11.5986 12.9167" stroke="#F50756" stroke-width="1.25" stroke-linecap="round" stroke-linejoin="round"/>
<path d="M5.625 10.416H14.375" stroke="#F50756" stroke-width="1.25" stroke-linecap="round" stroke-linejoin="round"/>
</svg>
