<svg xmlns="http://www.w3.org/2000/svg" xmlns:xlink="http://www.w3.org/1999/xlink" width="193" height="258" viewBox="0 0 193 258">
    <defs>
        <circle id="a" cx="101" cy="101" r="101"/>
    </defs>
    <g fill="none" fill-rule="evenodd">
        <circle cx="159" cy="101" r="101" fill="#FA2069" fill-rule="nonzero"/>
        <g opacity=".4" transform="translate(0 63)">
            <mask id="b" fill="#fff">
                <use xlink:href="#a"/>
            </mask>
            <g fill="#091D2C" mask="url(#b)">
                <path d="M1.5 192a1.5 1.5 0 1 0 0 3.001 1.5 1.5 0 0 0 0-3.001M1.5 180a1.5 1.5 0 1 0 0 3.001 1.5 1.5 0 0 0 0-3.001M1.5 168a1.5 1.5 0 1 0 0 3.001 1.5 1.5 0 0 0 0-3.001M1.5 156a1.5 1.5 0 1 0 0 3.001 1.5 1.5 0 0 0 0-3.001M1.5 144a1.5 1.5 0 1 0 0 3.001 1.5 1.5 0 0 0 0-3.001M1.5 132a1.5 1.5 0 1 0 0 3.001 1.5 1.5 0 0 0 0-3.001M1.5 120a1.5 1.5 0 1 0 0 3.001 1.5 1.5 0 0 0 0-3.001M1.5 108a1.5 1.5 0 1 0 0 3.001 1.5 1.5 0 0 0 0-3.001M1.5 96a1.5 1.5 0 1 0 0 3.001A1.5 1.5 0 0 0 1.5 96M1.5 84a1.5 1.5 0 1 0 0 3.001A1.5 1.5 0 0 0 1.5 84M1.5 72a1.5 1.5 0 1 0 0 3.001A1.5 1.5 0 0 0 1.5 72M1.5 60a1.5 1.5 0 1 0 0 3.001A1.5 1.5 0 0 0 1.5 60M1.5 48a1.5 1.5 0 1 0 0 3.001A1.5 1.5 0 0 0 1.5 48M1.5 36a1.5 1.5 0 1 0 0 3.001A1.5 1.5 0 0 0 1.5 36M1.5 24a1.5 1.5 0 1 0 0 3.001A1.5 1.5 0 0 0 1.5 24M1.5 12a1.5 1.5 0 1 0 0 3.001A1.5 1.5 0 0 0 1.5 12M1.5 0a1.5 1.5 0 1 0 0 3.001A1.5 1.5 0 0 0 1.5 0"/>
                <g>
                    <path d="M13.5 192a1.5 1.5 0 1 0 0 3.001 1.5 1.5 0 0 0 0-3.001M13.5 180a1.5 1.5 0 1 0 0 3.001 1.5 1.5 0 0 0 0-3.001M13.5 168a1.5 1.5 0 1 0 0 3.001 1.5 1.5 0 0 0 0-3.001M13.5 156a1.5 1.5 0 1 0 0 3.001 1.5 1.5 0 0 0 0-3.001M13.5 144a1.5 1.5 0 1 0 0 3.001 1.5 1.5 0 0 0 0-3.001M13.5 132a1.5 1.5 0 1 0 0 3.001 1.5 1.5 0 0 0 0-3.001M13.5 120a1.5 1.5 0 1 0 0 3.001 1.5 1.5 0 0 0 0-3.001M13.5 108a1.5 1.5 0 1 0 0 3.001 1.5 1.5 0 0 0 0-3.001M13.5 96a1.5 1.5 0 1 0 0 3.001 1.5 1.5 0 0 0 0-3.001M13.5 84a1.5 1.5 0 1 0 0 3.001 1.5 1.5 0 0 0 0-3.001M13.5 72a1.5 1.5 0 1 0 0 3.001 1.5 1.5 0 0 0 0-3.001M13.5 60a1.5 1.5 0 1 0 0 3.001 1.5 1.5 0 0 0 0-3.001M13.5 48a1.5 1.5 0 1 0 0 3.001 1.5 1.5 0 0 0 0-3.001M13.5 36a1.5 1.5 0 1 0 0 3.001 1.5 1.5 0 0 0 0-3.001M13.5 24a1.5 1.5 0 1 0 0 3.001 1.5 1.5 0 0 0 0-3.001M13.5 12a1.5 1.5 0 1 0 0 3.001 1.5 1.5 0 0 0 0-3.001M13.5 0a1.5 1.5 0 1 0 0 3.001A1.5 1.5 0 0 0 13.5 0"/>
                </g>
                <g>
                    <path d="M25.5 192a1.5 1.5 0 1 0 0 3.001 1.5 1.5 0 0 0 0-3.001M25.5 180a1.5 1.5 0 1 0 0 3.001 1.5 1.5 0 0 0 0-3.001M25.5 168a1.5 1.5 0 1 0 0 3.001 1.5 1.5 0 0 0 0-3.001M25.5 156a1.5 1.5 0 1 0 0 3.001 1.5 1.5 0 0 0 0-3.001M25.5 144a1.5 1.5 0 1 0 0 3.001 1.5 1.5 0 0 0 0-3.001M25.5 132a1.5 1.5 0 1 0 0 3.001 1.5 1.5 0 0 0 0-3.001M25.5 120a1.5 1.5 0 1 0 0 3.001 1.5 1.5 0 0 0 0-3.001M25.5 108a1.5 1.5 0 1 0 0 3.001 1.5 1.5 0 0 0 0-3.001M25.5 96a1.5 1.5 0 1 0 0 3.001 1.5 1.5 0 0 0 0-3.001M25.5 84a1.5 1.5 0 1 0 0 3.001 1.5 1.5 0 0 0 0-3.001M25.5 72a1.5 1.5 0 1 0 0 3.001 1.5 1.5 0 0 0 0-3.001M25.5 60a1.5 1.5 0 1 0 0 3.001 1.5 1.5 0 0 0 0-3.001M25.5 48a1.5 1.5 0 1 0 0 3.001 1.5 1.5 0 0 0 0-3.001M25.5 36a1.5 1.5 0 1 0 0 3.001 1.5 1.5 0 0 0 0-3.001M25.5 24a1.5 1.5 0 1 0 0 3.001 1.5 1.5 0 0 0 0-3.001M25.5 12a1.5 1.5 0 1 0 0 3.001 1.5 1.5 0 0 0 0-3.001M25.5 0a1.5 1.5 0 1 0 0 3.001A1.5 1.5 0 0 0 25.5 0"/>
                </g>
                <g>
                    <path d="M37.5 192a1.5 1.5 0 1 0 0 3.001 1.5 1.5 0 0 0 0-3.001M37.5 180a1.5 1.5 0 1 0 0 3.001 1.5 1.5 0 0 0 0-3.001M37.5 168a1.5 1.5 0 1 0 0 3.001 1.5 1.5 0 0 0 0-3.001M37.5 156a1.5 1.5 0 1 0 0 3.001 1.5 1.5 0 0 0 0-3.001M37.5 144a1.5 1.5 0 1 0 0 3.001 1.5 1.5 0 0 0 0-3.001M37.5 132a1.5 1.5 0 1 0 0 3.001 1.5 1.5 0 0 0 0-3.001M37.5 120a1.5 1.5 0 1 0 0 3.001 1.5 1.5 0 0 0 0-3.001M37.5 108a1.5 1.5 0 1 0 0 3.001 1.5 1.5 0 0 0 0-3.001M37.5 96a1.5 1.5 0 1 0 0 3.001 1.5 1.5 0 0 0 0-3.001M37.5 84a1.5 1.5 0 1 0 0 3.001 1.5 1.5 0 0 0 0-3.001M37.5 72a1.5 1.5 0 1 0 0 3.001 1.5 1.5 0 0 0 0-3.001M37.5 60a1.5 1.5 0 1 0 0 3.001 1.5 1.5 0 0 0 0-3.001M37.5 48a1.5 1.5 0 1 0 0 3.001 1.5 1.5 0 0 0 0-3.001M37.5 36a1.5 1.5 0 1 0 0 3.001 1.5 1.5 0 0 0 0-3.001M37.5 24a1.5 1.5 0 1 0 0 3.001 1.5 1.5 0 0 0 0-3.001M37.5 12a1.5 1.5 0 1 0 0 3.001 1.5 1.5 0 0 0 0-3.001M37.5 0a1.5 1.5 0 1 0 0 3.001A1.5 1.5 0 0 0 37.5 0"/>
                </g>
                <g>
                    <path d="M49.5 192a1.5 1.5 0 1 0 0 3.001 1.5 1.5 0 0 0 0-3.001M49.5 180a1.5 1.5 0 1 0 0 3.001 1.5 1.5 0 0 0 0-3.001M49.5 168a1.5 1.5 0 1 0 0 3.001 1.5 1.5 0 0 0 0-3.001M49.5 156a1.5 1.5 0 1 0 0 3.001 1.5 1.5 0 0 0 0-3.001M49.5 144a1.5 1.5 0 1 0 0 3.001 1.5 1.5 0 0 0 0-3.001M49.5 132a1.5 1.5 0 1 0 0 3.001 1.5 1.5 0 0 0 0-3.001M49.5 120a1.5 1.5 0 1 0 0 3.001 1.5 1.5 0 0 0 0-3.001M49.5 108a1.5 1.5 0 1 0 0 3.001 1.5 1.5 0 0 0 0-3.001M49.5 96a1.5 1.5 0 1 0 0 3.001 1.5 1.5 0 0 0 0-3.001M49.5 84a1.5 1.5 0 1 0 0 3.001 1.5 1.5 0 0 0 0-3.001M49.5 72a1.5 1.5 0 1 0 0 3.001 1.5 1.5 0 0 0 0-3.001M49.5 60a1.5 1.5 0 1 0 0 3.001 1.5 1.5 0 0 0 0-3.001M49.5 48a1.5 1.5 0 1 0 0 3.001 1.5 1.5 0 0 0 0-3.001M49.5 36a1.5 1.5 0 1 0 0 3.001 1.5 1.5 0 0 0 0-3.001M49.5 24a1.5 1.5 0 1 0 0 3.001 1.5 1.5 0 0 0 0-3.001M49.5 12a1.5 1.5 0 1 0 0 3.001 1.5 1.5 0 0 0 0-3.001M49.5 0a1.5 1.5 0 1 0 0 3.001A1.5 1.5 0 0 0 49.5 0"/>
                </g>
                <g>
                    <path d="M61.5 192a1.5 1.5 0 1 0 0 3.001 1.5 1.5 0 0 0 0-3.001M61.5 180a1.5 1.5 0 1 0 0 3.001 1.5 1.5 0 0 0 0-3.001M61.5 168a1.5 1.5 0 1 0 0 3.001 1.5 1.5 0 0 0 0-3.001M61.5 156a1.5 1.5 0 1 0 0 3.001 1.5 1.5 0 0 0 0-3.001M61.5 144a1.5 1.5 0 1 0 0 3.001 1.5 1.5 0 0 0 0-3.001M61.5 132a1.5 1.5 0 1 0 0 3.001 1.5 1.5 0 0 0 0-3.001M61.5 120a1.5 1.5 0 1 0 0 3.001 1.5 1.5 0 0 0 0-3.001M61.5 108a1.5 1.5 0 1 0 0 3.001 1.5 1.5 0 0 0 0-3.001M61.5 96a1.5 1.5 0 1 0 0 3.001 1.5 1.5 0 0 0 0-3.001M61.5 84a1.5 1.5 0 1 0 0 3.001 1.5 1.5 0 0 0 0-3.001M61.5 72a1.5 1.5 0 1 0 0 3.001 1.5 1.5 0 0 0 0-3.001M61.5 60a1.5 1.5 0 1 0 0 3.001 1.5 1.5 0 0 0 0-3.001M61.5 48a1.5 1.5 0 1 0 0 3.001 1.5 1.5 0 0 0 0-3.001M61.5 36a1.5 1.5 0 1 0 0 3.001 1.5 1.5 0 0 0 0-3.001M61.5 24a1.5 1.5 0 1 0 0 3.001 1.5 1.5 0 0 0 0-3.001M61.5 12a1.5 1.5 0 1 0 0 3.001 1.5 1.5 0 0 0 0-3.001M61.5 0a1.5 1.5 0 1 0 0 3.001A1.5 1.5 0 0 0 61.5 0"/>
                </g>
                <g>
                    <path d="M73.5 192a1.5 1.5 0 1 0 0 3.001 1.5 1.5 0 0 0 0-3.001M73.5 180a1.5 1.5 0 1 0 0 3.001 1.5 1.5 0 0 0 0-3.001M73.5 168a1.5 1.5 0 1 0 0 3.001 1.5 1.5 0 0 0 0-3.001M73.5 156a1.5 1.5 0 1 0 0 3.001 1.5 1.5 0 0 0 0-3.001M73.5 144a1.5 1.5 0 1 0 0 3.001 1.5 1.5 0 0 0 0-3.001M73.5 132a1.5 1.5 0 1 0 0 3.001 1.5 1.5 0 0 0 0-3.001M73.5 120a1.5 1.5 0 1 0 0 3.001 1.5 1.5 0 0 0 0-3.001M73.5 108a1.5 1.5 0 1 0 0 3.001 1.5 1.5 0 0 0 0-3.001M73.5 96a1.5 1.5 0 1 0 0 3.001 1.5 1.5 0 0 0 0-3.001M73.5 84a1.5 1.5 0 1 0 0 3.001 1.5 1.5 0 0 0 0-3.001M73.5 72a1.5 1.5 0 1 0 0 3.001 1.5 1.5 0 0 0 0-3.001M73.5 60a1.5 1.5 0 1 0 0 3.001 1.5 1.5 0 0 0 0-3.001M73.5 48a1.5 1.5 0 1 0 0 3.001 1.5 1.5 0 0 0 0-3.001M73.5 36a1.5 1.5 0 1 0 0 3.001 1.5 1.5 0 0 0 0-3.001M73.5 24a1.5 1.5 0 1 0 0 3.001 1.5 1.5 0 0 0 0-3.001M73.5 12a1.5 1.5 0 1 0 0 3.001 1.5 1.5 0 0 0 0-3.001M73.5 0a1.5 1.5 0 1 0 0 3.001A1.5 1.5 0 0 0 73.5 0"/>
                </g>
                <g>
                    <path d="M85.5 192a1.5 1.5 0 1 0 0 3.001 1.5 1.5 0 0 0 0-3.001M85.5 180a1.5 1.5 0 1 0 0 3.001 1.5 1.5 0 0 0 0-3.001M85.5 168a1.5 1.5 0 1 0 0 3.001 1.5 1.5 0 0 0 0-3.001M85.5 156a1.5 1.5 0 1 0 0 3.001 1.5 1.5 0 0 0 0-3.001M85.5 144a1.5 1.5 0 1 0 0 3.001 1.5 1.5 0 0 0 0-3.001M85.5 132a1.5 1.5 0 1 0 0 3.001 1.5 1.5 0 0 0 0-3.001M85.5 120a1.5 1.5 0 1 0 0 3.001 1.5 1.5 0 0 0 0-3.001M85.5 108a1.5 1.5 0 1 0 0 3.001 1.5 1.5 0 0 0 0-3.001M85.5 96a1.5 1.5 0 1 0 0 3.001 1.5 1.5 0 0 0 0-3.001M85.5 84a1.5 1.5 0 1 0 0 3.001 1.5 1.5 0 0 0 0-3.001M85.5 72a1.5 1.5 0 1 0 0 3.001 1.5 1.5 0 0 0 0-3.001M85.5 60a1.5 1.5 0 1 0 0 3.001 1.5 1.5 0 0 0 0-3.001M85.5 48a1.5 1.5 0 1 0 0 3.001 1.5 1.5 0 0 0 0-3.001M85.5 36a1.5 1.5 0 1 0 0 3.001 1.5 1.5 0 0 0 0-3.001M85.5 24a1.5 1.5 0 1 0 0 3.001 1.5 1.5 0 0 0 0-3.001M85.5 12a1.5 1.5 0 1 0 0 3.001 1.5 1.5 0 0 0 0-3.001M85.5 0a1.5 1.5 0 1 0 0 3.001A1.5 1.5 0 0 0 85.5 0"/>
                </g>
                <g>
                    <path d="M97.5 192a1.5 1.5 0 1 0 0 3.001 1.5 1.5 0 0 0 0-3.001M97.5 180a1.5 1.5 0 1 0 0 3.001 1.5 1.5 0 0 0 0-3.001M97.5 168a1.5 1.5 0 1 0 0 3.001 1.5 1.5 0 0 0 0-3.001M97.5 156a1.5 1.5 0 1 0 0 3.001 1.5 1.5 0 0 0 0-3.001M97.5 144a1.5 1.5 0 1 0 0 3.001 1.5 1.5 0 0 0 0-3.001M97.5 132a1.5 1.5 0 1 0 0 3.001 1.5 1.5 0 0 0 0-3.001M97.5 120a1.5 1.5 0 1 0 0 3.001 1.5 1.5 0 0 0 0-3.001M97.5 108a1.5 1.5 0 1 0 0 3.001 1.5 1.5 0 0 0 0-3.001M97.5 96a1.5 1.5 0 1 0 0 3.001 1.5 1.5 0 0 0 0-3.001M97.5 84a1.5 1.5 0 1 0 0 3.001 1.5 1.5 0 0 0 0-3.001M97.5 72a1.5 1.5 0 1 0 0 3.001 1.5 1.5 0 0 0 0-3.001M97.5 60a1.5 1.5 0 1 0 0 3.001 1.5 1.5 0 0 0 0-3.001M97.5 48a1.5 1.5 0 1 0 0 3.001 1.5 1.5 0 0 0 0-3.001M97.5 36a1.5 1.5 0 1 0 0 3.001 1.5 1.5 0 0 0 0-3.001M97.5 24a1.5 1.5 0 1 0 0 3.001 1.5 1.5 0 0 0 0-3.001M97.5 12a1.5 1.5 0 1 0 0 3.001 1.5 1.5 0 0 0 0-3.001M97.5 0a1.5 1.5 0 1 0 0 3.001A1.5 1.5 0 0 0 97.5 0"/>
                </g>
                <g>
                    <path d="M109.5 192a1.5 1.5 0 1 0 0 3.001 1.5 1.5 0 0 0 0-3.001M109.5 180a1.5 1.5 0 1 0 0 3.001 1.5 1.5 0 0 0 0-3.001M109.5 168a1.5 1.5 0 1 0 0 3.001 1.5 1.5 0 0 0 0-3.001M109.5 156a1.5 1.5 0 1 0 0 3.001 1.5 1.5 0 0 0 0-3.001M109.5 144a1.5 1.5 0 1 0 0 3.001 1.5 1.5 0 0 0 0-3.001M109.5 132a1.5 1.5 0 1 0 0 3.001 1.5 1.5 0 0 0 0-3.001M109.5 120a1.5 1.5 0 1 0 0 3.001 1.5 1.5 0 0 0 0-3.001M109.5 108a1.5 1.5 0 1 0 0 3.001 1.5 1.5 0 0 0 0-3.001M109.5 96a1.5 1.5 0 1 0 0 3.001 1.5 1.5 0 0 0 0-3.001M109.5 84a1.5 1.5 0 1 0 0 3.001 1.5 1.5 0 0 0 0-3.001M109.5 72a1.5 1.5 0 1 0 0 3.001 1.5 1.5 0 0 0 0-3.001M109.5 60a1.5 1.5 0 1 0 0 3.001 1.5 1.5 0 0 0 0-3.001M109.5 48a1.5 1.5 0 1 0 0 3.001 1.5 1.5 0 0 0 0-3.001M109.5 36a1.5 1.5 0 1 0 0 3.001 1.5 1.5 0 0 0 0-3.001M109.5 24a1.5 1.5 0 1 0 0 3.001 1.5 1.5 0 0 0 0-3.001M109.5 12a1.5 1.5 0 1 0 0 3.001 1.5 1.5 0 0 0 0-3.001M109.5 0a1.5 1.5 0 1 0 0 3.001 1.5 1.5 0 0 0 0-3.001"/>
                </g>
                <g>
                    <path d="M121.5 192a1.5 1.5 0 1 0 0 3.001 1.5 1.5 0 0 0 0-3.001M121.5 180a1.5 1.5 0 1 0 0 3.001 1.5 1.5 0 0 0 0-3.001M121.5 168a1.5 1.5 0 1 0 0 3.001 1.5 1.5 0 0 0 0-3.001M121.5 156a1.5 1.5 0 1 0 0 3.001 1.5 1.5 0 0 0 0-3.001M121.5 144a1.5 1.5 0 1 0 0 3.001 1.5 1.5 0 0 0 0-3.001M121.5 132a1.5 1.5 0 1 0 0 3.001 1.5 1.5 0 0 0 0-3.001M121.5 120a1.5 1.5 0 1 0 0 3.001 1.5 1.5 0 0 0 0-3.001M121.5 108a1.5 1.5 0 1 0 0 3.001 1.5 1.5 0 0 0 0-3.001M121.5 96a1.5 1.5 0 1 0 0 3.001 1.5 1.5 0 0 0 0-3.001M121.5 84a1.5 1.5 0 1 0 0 3.001 1.5 1.5 0 0 0 0-3.001M121.5 72a1.5 1.5 0 1 0 0 3.001 1.5 1.5 0 0 0 0-3.001M121.5 60a1.5 1.5 0 1 0 0 3.001 1.5 1.5 0 0 0 0-3.001M121.5 48a1.5 1.5 0 1 0 0 3.001 1.5 1.5 0 0 0 0-3.001M121.5 36a1.5 1.5 0 1 0 0 3.001 1.5 1.5 0 0 0 0-3.001M121.5 24a1.5 1.5 0 1 0 0 3.001 1.5 1.5 0 0 0 0-3.001M121.5 12a1.5 1.5 0 1 0 0 3.001 1.5 1.5 0 0 0 0-3.001M121.5 0a1.5 1.5 0 1 0 0 3.001 1.5 1.5 0 0 0 0-3.001"/>
                </g>
                <g>
                    <path d="M133.5 192a1.5 1.5 0 1 0 0 3.001 1.5 1.5 0 0 0 0-3.001M133.5 180a1.5 1.5 0 1 0 0 3.001 1.5 1.5 0 0 0 0-3.001M133.5 168a1.5 1.5 0 1 0 0 3.001 1.5 1.5 0 0 0 0-3.001M133.5 156a1.5 1.5 0 1 0 0 3.001 1.5 1.5 0 0 0 0-3.001M133.5 144a1.5 1.5 0 1 0 0 3.001 1.5 1.5 0 0 0 0-3.001M133.5 132a1.5 1.5 0 1 0 0 3.001 1.5 1.5 0 0 0 0-3.001M133.5 120a1.5 1.5 0 1 0 0 3.001 1.5 1.5 0 0 0 0-3.001M133.5 108a1.5 1.5 0 1 0 0 3.001 1.5 1.5 0 0 0 0-3.001M133.5 96a1.5 1.5 0 1 0 0 3.001 1.5 1.5 0 0 0 0-3.001M133.5 84a1.5 1.5 0 1 0 0 3.001 1.5 1.5 0 0 0 0-3.001M133.5 72a1.5 1.5 0 1 0 0 3.001 1.5 1.5 0 0 0 0-3.001M133.5 60a1.5 1.5 0 1 0 0 3.001 1.5 1.5 0 0 0 0-3.001M133.5 48a1.5 1.5 0 1 0 0 3.001 1.5 1.5 0 0 0 0-3.001M133.5 36a1.5 1.5 0 1 0 0 3.001 1.5 1.5 0 0 0 0-3.001M133.5 24a1.5 1.5 0 1 0 0 3.001 1.5 1.5 0 0 0 0-3.001M133.5 12a1.5 1.5 0 1 0 0 3.001 1.5 1.5 0 0 0 0-3.001M133.5 0a1.5 1.5 0 1 0 0 3.001 1.5 1.5 0 0 0 0-3.001"/>
                </g>
                <g>
                    <path d="M145.5 192a1.5 1.5 0 1 0 0 3.001 1.5 1.5 0 0 0 0-3.001M145.5 180a1.5 1.5 0 1 0 0 3.001 1.5 1.5 0 0 0 0-3.001M145.5 168a1.5 1.5 0 1 0 0 3.001 1.5 1.5 0 0 0 0-3.001M145.5 156a1.5 1.5 0 1 0 0 3.001 1.5 1.5 0 0 0 0-3.001M145.5 144a1.5 1.5 0 1 0 0 3.001 1.5 1.5 0 0 0 0-3.001M145.5 132a1.5 1.5 0 1 0 0 3.001 1.5 1.5 0 0 0 0-3.001M145.5 120a1.5 1.5 0 1 0 0 3.001 1.5 1.5 0 0 0 0-3.001M145.5 108a1.5 1.5 0 1 0 0 3.001 1.5 1.5 0 0 0 0-3.001M145.5 96a1.5 1.5 0 1 0 0 3.001 1.5 1.5 0 0 0 0-3.001M145.5 84a1.5 1.5 0 1 0 0 3.001 1.5 1.5 0 0 0 0-3.001M145.5 72a1.5 1.5 0 1 0 0 3.001 1.5 1.5 0 0 0 0-3.001M145.5 60a1.5 1.5 0 1 0 0 3.001 1.5 1.5 0 0 0 0-3.001M145.5 48a1.5 1.5 0 1 0 0 3.001 1.5 1.5 0 0 0 0-3.001M145.5 36a1.5 1.5 0 1 0 0 3.001 1.5 1.5 0 0 0 0-3.001M145.5 24a1.5 1.5 0 1 0 0 3.001 1.5 1.5 0 0 0 0-3.001M145.5 12a1.5 1.5 0 1 0 0 3.001 1.5 1.5 0 0 0 0-3.001M145.5 0a1.5 1.5 0 1 0 0 3.001 1.5 1.5 0 0 0 0-3.001"/>
                </g>
                <g>
                    <path d="M157.5 192a1.5 1.5 0 1 0 0 3.001 1.5 1.5 0 0 0 0-3.001M157.5 180a1.5 1.5 0 1 0 0 3.001 1.5 1.5 0 0 0 0-3.001M157.5 168a1.5 1.5 0 1 0 0 3.001 1.5 1.5 0 0 0 0-3.001M157.5 156a1.5 1.5 0 1 0 0 3.001 1.5 1.5 0 0 0 0-3.001M157.5 144a1.5 1.5 0 1 0 0 3.001 1.5 1.5 0 0 0 0-3.001M157.5 132a1.5 1.5 0 1 0 0 3.001 1.5 1.5 0 0 0 0-3.001M157.5 120a1.5 1.5 0 1 0 0 3.001 1.5 1.5 0 0 0 0-3.001M157.5 108a1.5 1.5 0 1 0 0 3.001 1.5 1.5 0 0 0 0-3.001M157.5 96a1.5 1.5 0 1 0 0 3.001 1.5 1.5 0 0 0 0-3.001M157.5 84a1.5 1.5 0 1 0 0 3.001 1.5 1.5 0 0 0 0-3.001M157.5 72a1.5 1.5 0 1 0 0 3.001 1.5 1.5 0 0 0 0-3.001M157.5 60a1.5 1.5 0 1 0 0 3.001 1.5 1.5 0 0 0 0-3.001M157.5 48a1.5 1.5 0 1 0 0 3.001 1.5 1.5 0 0 0 0-3.001M157.5 36a1.5 1.5 0 1 0 0 3.001 1.5 1.5 0 0 0 0-3.001M157.5 24a1.5 1.5 0 1 0 0 3.001 1.5 1.5 0 0 0 0-3.001M157.5 12a1.5 1.5 0 1 0 0 3.001 1.5 1.5 0 0 0 0-3.001M157.5 0a1.5 1.5 0 1 0 0 3.001 1.5 1.5 0 0 0 0-3.001"/>
                </g>
                <g>
                    <path d="M169.5 192a1.5 1.5 0 1 0 0 3.001 1.5 1.5 0 0 0 0-3.001M169.5 180a1.5 1.5 0 1 0 0 3.001 1.5 1.5 0 0 0 0-3.001M169.5 168a1.5 1.5 0 1 0 0 3.001 1.5 1.5 0 0 0 0-3.001M169.5 156a1.5 1.5 0 1 0 0 3.001 1.5 1.5 0 0 0 0-3.001M169.5 144a1.5 1.5 0 1 0 0 3.001 1.5 1.5 0 0 0 0-3.001M169.5 132a1.5 1.5 0 1 0 0 3.001 1.5 1.5 0 0 0 0-3.001M169.5 120a1.5 1.5 0 1 0 0 3.001 1.5 1.5 0 0 0 0-3.001M169.5 108a1.5 1.5 0 1 0 0 3.001 1.5 1.5 0 0 0 0-3.001M169.5 96a1.5 1.5 0 1 0 0 3.001 1.5 1.5 0 0 0 0-3.001M169.5 84a1.5 1.5 0 1 0 0 3.001 1.5 1.5 0 0 0 0-3.001M169.5 72a1.5 1.5 0 1 0 0 3.001 1.5 1.5 0 0 0 0-3.001M169.5 60a1.5 1.5 0 1 0 0 3.001 1.5 1.5 0 0 0 0-3.001M169.5 48a1.5 1.5 0 1 0 0 3.001 1.5 1.5 0 0 0 0-3.001M169.5 36a1.5 1.5 0 1 0 0 3.001 1.5 1.5 0 0 0 0-3.001M169.5 24a1.5 1.5 0 1 0 0 3.001 1.5 1.5 0 0 0 0-3.001M169.5 12a1.5 1.5 0 1 0 0 3.001 1.5 1.5 0 0 0 0-3.001M169.5 0a1.5 1.5 0 1 0 0 3.001 1.5 1.5 0 0 0 0-3.001"/>
                </g>
                <g>
                    <path d="M181.5 192a1.5 1.5 0 1 0 0 3.001 1.5 1.5 0 0 0 0-3.001M181.5 180a1.5 1.5 0 1 0 0 3.001 1.5 1.5 0 0 0 0-3.001M181.5 168a1.5 1.5 0 1 0 0 3.001 1.5 1.5 0 0 0 0-3.001M181.5 156a1.5 1.5 0 1 0 0 3.001 1.5 1.5 0 0 0 0-3.001M181.5 144a1.5 1.5 0 1 0 0 3.001 1.5 1.5 0 0 0 0-3.001M181.5 132a1.5 1.5 0 1 0 0 3.001 1.5 1.5 0 0 0 0-3.001M181.5 120a1.5 1.5 0 1 0 0 3.001 1.5 1.5 0 0 0 0-3.001M181.5 108a1.5 1.5 0 1 0 0 3.001 1.5 1.5 0 0 0 0-3.001M181.5 96a1.5 1.5 0 1 0 0 3.001 1.5 1.5 0 0 0 0-3.001M181.5 84a1.5 1.5 0 1 0 0 3.001 1.5 1.5 0 0 0 0-3.001M181.5 72a1.5 1.5 0 1 0 0 3.001 1.5 1.5 0 0 0 0-3.001M181.5 60a1.5 1.5 0 1 0 0 3.001 1.5 1.5 0 0 0 0-3.001M181.5 48a1.5 1.5 0 1 0 0 3.001 1.5 1.5 0 0 0 0-3.001M181.5 36a1.5 1.5 0 1 0 0 3.001 1.5 1.5 0 0 0 0-3.001M181.5 24a1.5 1.5 0 1 0 0 3.001 1.5 1.5 0 0 0 0-3.001M181.5 12a1.5 1.5 0 1 0 0 3.001 1.5 1.5 0 0 0 0-3.001M181.5 0a1.5 1.5 0 1 0 0 3.001 1.5 1.5 0 0 0 0-3.001"/>
                </g>
                <g>
                    <path d="M193.5 192a1.5 1.5 0 1 0 0 3.001 1.5 1.5 0 0 0 0-3.001M193.5 180a1.5 1.5 0 1 0 0 3.001 1.5 1.5 0 0 0 0-3.001M193.5 168a1.5 1.5 0 1 0 0 3.001 1.5 1.5 0 0 0 0-3.001M193.5 156a1.5 1.5 0 1 0 0 3.001 1.5 1.5 0 0 0 0-3.001M193.5 144a1.5 1.5 0 1 0 0 3.001 1.5 1.5 0 0 0 0-3.001M193.5 132a1.5 1.5 0 1 0 0 3.001 1.5 1.5 0 0 0 0-3.001M193.5 120a1.5 1.5 0 1 0 0 3.001 1.5 1.5 0 0 0 0-3.001M193.5 108a1.5 1.5 0 1 0 0 3.001 1.5 1.5 0 0 0 0-3.001M193.5 96a1.5 1.5 0 1 0 0 3.001 1.5 1.5 0 0 0 0-3.001M193.5 84a1.5 1.5 0 1 0 0 3.001 1.5 1.5 0 0 0 0-3.001M193.5 72a1.5 1.5 0 1 0 0 3.001 1.5 1.5 0 0 0 0-3.001M193.5 60a1.5 1.5 0 1 0 0 3.001 1.5 1.5 0 0 0 0-3.001M193.5 48a1.5 1.5 0 1 0 0 3.001 1.5 1.5 0 0 0 0-3.001M193.5 36a1.5 1.5 0 1 0 0 3.001 1.5 1.5 0 0 0 0-3.001M193.5 24a1.5 1.5 0 1 0 0 3.001 1.5 1.5 0 0 0 0-3.001M193.5 12a1.5 1.5 0 1 0 0 3.001 1.5 1.5 0 0 0 0-3.001M193.5 0a1.5 1.5 0 1 0 0 3.001 1.5 1.5 0 0 0 0-3.001"/>
                </g>
            </g>
        </g>
    </g>
</svg>
