<svg xmlns="http://www.w3.org/2000/svg" xmlns:xlink="http://www.w3.org/1999/xlink" width="673" height="685" viewBox="0 0 673 685">
    <defs>
        <path id="a" d="M802.62 177.732c-126.834 94.956-194.305 96.766-315.314 58.107-121.018-38.668-219.608-113.326-362.972-48.265-86.958 39.465-202.25 199.978-49.895 470.603 123.245 218.91 441.49 467.21 777.49 387.355 219.149-52.095 435.015-276.591 477.065-569.733 21.823-152.075-4.653-333.087-124.589-428.513-42.284-33.653-81.16-47.26-117.862-47.27C984.183.007 898.677 105.818 802.62 177.732"/>
        <path id="c" d="M802.62 177.732c-126.834 94.956-194.305 96.766-315.314 58.107-121.018-38.668-219.608-113.326-362.972-48.265-86.958 39.465-202.25 199.978-49.895 470.603 123.245 218.91 441.49 467.21 777.49 387.355 219.149-52.095 435.015-276.591 477.065-569.733 21.823-152.075-4.653-333.087-124.589-428.513-42.284-33.653-81.16-47.26-117.862-47.27C984.183.007 898.677 105.818 802.62 177.732"/>
    </defs>
    <g fill="none" fill-rule="evenodd">
        <g transform="rotate(-46 193.144 375.49)">
            <mask id="b" fill="#fff">
                <use xlink:href="#a"/>
            </mask>
            <path fill="#E9F0FF" d="M802.62 177.732c-126.834 94.956-194.305 96.766-315.314 58.107-121.018-38.668-219.608-113.326-362.972-48.265-86.958 39.465-202.25 199.978-49.895 470.603 123.245 218.91 441.49 467.21 777.49 387.355 219.149-52.095 435.015-276.591 477.065-569.733 21.823-152.075-4.653-333.087-124.589-428.513-42.284-33.653-81.16-47.26-117.862-47.27C984.183.007 898.677 105.818 802.62 177.732" mask="url(#b)"/>
        </g>
        <g transform="rotate(-46 208.856 351.576)">
            <mask id="d" fill="#fff">
                <use xlink:href="#c"/>
            </mask>
            <path fill="#2069FA" d="M802.62 177.732c-126.834 94.956-194.305 96.766-315.314 58.107-121.018-38.668-219.608-113.326-362.972-48.265-86.958 39.465-202.25 199.978-49.895 470.603 123.245 218.91 441.49 467.21 777.49 387.355 219.149-52.095 435.015-276.591 477.065-569.733 21.823-152.075-4.653-333.087-124.589-428.513-42.284-33.653-81.16-47.26-117.862-47.27C984.183.007 898.677 105.818 802.62 177.732" mask="url(#d)"/>
        </g>
    </g>
</svg>
