<svg xmlns="http://www.w3.org/2000/svg" width="80" height="80" viewBox="0 0 80 80">
    <g fill="none" fill-rule="evenodd">
        <path fill="#FED2E1" d="M45.405 55.69l-42.587 22c-1.176.607-2.243-.455-1.633-1.627l22.089-42.415L45.405 55.69z"/>
        <path fill="#FB6296" d="M5.58 67.625l19.964-1.675-13.275 6.857-9.817.824zM44.96 55.92l-7.66 3.957-28.95 2.428 3.128-6.006 28.517-2.392c2.235 1.476 4.024 2.231 4.965 2.013zM31.887 47.112c.46.457.918.9 1.375 1.331L14.76 49.995l3.129-6.006 10.3-.864a66.66 66.66 0 0 0 3.698 3.987z"/>
        <path fill="#FA2069" d="M40.237 39.046l1.203 1.199c.2.199.525.199.725 0l3.13-3.119c.2-.199.2-.522 0-.721l-1.203-1.199a.514.514 0 0 0-.724 0l-3.13 3.119c-.2.2-.2.522 0 .721z"/>
        <path fill="#F9CFCF" d="M42.763 12.09l1.203 1.198c.2.2.525.2.725 0l3.13-3.118c.2-.2.2-.523 0-.722L46.619 8.25a.514.514 0 0 0-.724 0l-3.13 3.118c-.201.2-.201.522 0 .722z"/>
        <path fill="#2069FA" d="M68.444 34.779l1.724 1.717a.547.547 0 0 0 .772 0l3.084-3.071a.542.542 0 0 0 0-.769L72.3 30.94a.547.547 0 0 0-.772 0l-3.083 3.071a.541.541 0 0 0 0 .769zM43.948 27.85l1.674 1.668a.543.543 0 0 0 .767 0l3.089-3.076a.538.538 0 0 0 0-.764l-1.675-1.667a.543.543 0 0 0-.766 0l-3.089 3.076a.538.538 0 0 0 0 .764zM57.4 32.871a.97.97 0 0 1-.686-.284.964.964 0 0 1 0-1.368c.99-.986 1.881-1.15 2.597-1.28.61-.113 1.014-.187 1.576-.747s.636-.961.749-1.569c.131-.713.296-1.601 1.286-2.587.99-.986 1.88-1.15 2.597-1.28.61-.113 1.013-.186 1.576-.747.562-.56.636-.96.748-1.568.132-.714.296-1.602 1.286-2.587a.974.974 0 0 1 1.374 0c.38.377.38.99 0 1.368-.562.56-.636.96-.749 1.569-.131.713-.296 1.6-1.285 2.587-.99.986-1.882 1.15-2.598 1.28-.61.113-1.013.186-1.575.746s-.637.961-.75 1.57c-.13.713-.295 1.6-1.285 2.587-.99.986-1.881 1.149-2.598 1.28-.61.113-1.013.186-1.576.746a.97.97 0 0 1-.687.284z"/>
        <path fill="#FA2069" d="M48.319 19.628a.97.97 0 0 1-.687-.283.964.964 0 0 1 0-1.369c.966-.962 1.8-1.17 2.469-1.337.57-.141.98-.244 1.566-.827.586-.584.688-.993.83-1.56.168-.667.376-1.497 1.343-2.46.966-.961 1.8-1.169 2.469-1.336.569-.141.98-.244 1.566-.827.585-.583.688-.992.83-1.56.167-.666.375-1.496 1.342-2.458a.974.974 0 0 1 1.374 0c.38.378.38.99 0 1.368-.586.584-.689.993-.83 1.56-.168.666-.376 1.496-1.342 2.459-.967.962-1.8 1.17-2.47 1.336-.568.142-.98.244-1.565.827-.586.584-.689.993-.83 1.56-.168.667-.376 1.497-1.343 2.46-.966.962-1.8 1.17-2.469 1.336-.57.142-.98.244-1.566.828a.97.97 0 0 1-.687.283z"/>
        <path fill="#BCD2FD" d="M68.128 12.09l1.203 1.198c.2.2.524.2.724 0l3.131-3.118c.2-.2.2-.523 0-.722L71.983 8.25a.514.514 0 0 0-.724 0l-3.131 3.118c-.2.2-.2.522 0 .722z"/>
        <path fill="#6296FB" d="M14.782 11.44a8.83 8.83 0 0 1-3.59 3.942.415.415 0 0 0 0 .723 8.83 8.83 0 0 1 3.59 3.943.416.416 0 0 0 .755 0 8.83 8.83 0 0 1 3.59-3.943.415.415 0 0 0 0-.723 8.83 8.83 0 0 1-3.59-3.943.416.416 0 0 0-.755 0z"/>
        <g fill="#BCD2FD">
            <path d="M15.165 9.707a.98.98 0 0 1-.13-.008c-.84-.113-.846-.93-.848-1.279-.002-.208-.003-.507-.004-.865 0-.712 0-1.66.002-2.61.003-1.895.009-3.791.009-3.791a.97.97 0 0 1 .971-.965h.003a.97.97 0 0 1 .969.971c-.009 2.775-.017 6.98-.005 7.483a.973.973 0 0 1-.967 1.064zM15.165 43.48a.91.91 0 0 1-.05-.002c-.717-.037-.878-.568-.915-1.07v-.003a5.64 5.64 0 0 1-.012-.409c-.001-.334-.003-.819-.003-1.416a.97.97 0 0 1 .97-.969h.001a.97.97 0 0 1 .972.966c.002 1.349.004 1.747.006 1.857a.973.973 0 0 1-.97 1.045z"/>
            <path fill-rule="nonzero" d="M15.155 38.423a.97.97 0 0 1-.972-.968V34.33a.97.97 0 0 1 .972-.968.97.97 0 0 1 .972.968v3.125a.97.97 0 0 1-.972.968zm.002-6.251a.97.97 0 0 1-.971-.968l.002-3.126a.97.97 0 0 1 .972-.967.97.97 0 0 1 .971.969l-.002 3.125a.97.97 0 0 1-.972.967z"/>
            <path d="M15.163 25.924a.97.97 0 0 1-.972-.97l.003-1.934a.97.97 0 0 1 .971-.967h.001a.97.97 0 0 1 .971.969l-.002 1.935a.97.97 0 0 1-.972.967zM22.097 16.848a.969.969 0 0 1-.965-1.097c.114-.837.934-.843 1.285-.846l.869-.003 2.62.001c1.903.003 3.806.01 3.806.01a.97.97 0 0 1 .968.97.97.97 0 0 1-.971.965h-.003c-2.786-.01-7.008-.018-7.514-.005a.846.846 0 0 1-.095.005zM1.262 16.86a.97.97 0 0 1-.964-1.099c.114-.836.933-.842 1.283-.845l.87-.003c.713 0 1.666 0 2.62.002 1.903.003 3.806.009 3.806.009a.97.97 0 0 1 .968.97.97.97 0 0 1-.971.965H8.87c-2.784-.009-7.005-.017-7.512-.004a.938.938 0 0 1-.096.004zM23.655 24.985a.97.97 0 0 1-.69-.286c-1.545-1.552-4.05-4.058-4.387-4.376a.965.965 0 0 1 .044-1.537c.676-.487 1.052-.113 1.96.788l1.537 1.531c1.114 1.114 2.226 2.23 2.226 2.23a.965.965 0 0 1-.006 1.369.97.97 0 0 1-.684.28zM11.771 13.165a.97.97 0 0 1-.69-.286c-1.545-1.551-4.05-4.058-4.386-4.376a.965.965 0 0 1 .044-1.537c.676-.487 1.052-.113 1.96.788a1913.627 1913.627 0 0 1 3.762 3.762.965.965 0 0 1-.005 1.368.972.972 0 0 1-.685.281zM7.315 24.985a.97.97 0 0 1-.69-.286.965.965 0 0 1 .006-1.369c1.558-1.54 4.075-4.035 4.394-4.37a.974.974 0 0 1 1.541.043c.49.675.115 1.05-.79 1.954-.419.419-.978.975-1.538 1.53C9.12 23.597 8 24.704 8 24.704a.971.971 0 0 1-.684.28zM19.183 13.15a.97.97 0 0 1-.69-.286.965.965 0 0 1 .005-1.37c1.558-1.539 4.076-4.034 4.395-4.369a.974.974 0 0 1 1.541.043c.49.675.115 1.05-.79 1.954-.419.419-.978.975-1.538 1.53-1.119 1.11-2.239 2.217-2.239 2.217a.971.971 0 0 1-.684.28z"/>
        </g>
        <path fill="#6296FB" d="M11.138 3.818a3.87 3.87 0 0 1-1.572 1.727.182.182 0 0 0 0 .316 3.867 3.867 0 0 1 1.572 1.727c.065.14.266.14.33 0a3.865 3.865 0 0 1 1.573-1.727.182.182 0 0 0 0-.316 3.864 3.864 0 0 1-1.572-1.727.182.182 0 0 0-.33 0zM18.84 3.818a3.87 3.87 0 0 1-1.572 1.727.182.182 0 0 0 0 .316 3.867 3.867 0 0 1 1.572 1.727c.065.14.266.14.33 0a3.865 3.865 0 0 1 1.572-1.727.182.182 0 0 0 0-.316 3.864 3.864 0 0 1-1.571-1.727.182.182 0 0 0-.331 0zM11.138 24.927a3.87 3.87 0 0 1-1.572 1.727.182.182 0 0 0 0 .317 3.867 3.867 0 0 1 1.572 1.726c.065.141.266.141.33 0a3.865 3.865 0 0 1 1.573-1.726.182.182 0 0 0 0-.317 3.864 3.864 0 0 1-1.572-1.727.182.182 0 0 0-.33 0zM18.84 24.927a3.87 3.87 0 0 1-1.572 1.727.182.182 0 0 0 0 .317 3.867 3.867 0 0 1 1.572 1.726c.065.141.266.141.33 0a3.865 3.865 0 0 1 1.572-1.726.182.182 0 0 0 0-.317 3.864 3.864 0 0 1-1.571-1.727.182.182 0 0 0-.331 0zM25.737 17.841a3.87 3.87 0 0 1-1.572 1.727.182.182 0 0 0 0 .317 3.867 3.867 0 0 1 1.572 1.726c.065.14.266.14.33 0a3.865 3.865 0 0 1 1.573-1.726.182.182 0 0 0 0-.317 3.864 3.864 0 0 1-1.572-1.727.182.182 0 0 0-.331 0zM25.737 10.171a3.87 3.87 0 0 1-1.572 1.727.182.182 0 0 0 0 .317 3.867 3.867 0 0 1 1.572 1.726c.065.14.266.14.33 0a3.865 3.865 0 0 1 1.573-1.726.182.182 0 0 0 0-.317 3.864 3.864 0 0 1-1.572-1.727.182.182 0 0 0-.331 0zM4.902 17.841a3.87 3.87 0 0 1-1.572 1.727.182.182 0 0 0 0 .317 3.867 3.867 0 0 1 1.572 1.726c.065.14.266.14.33 0a3.865 3.865 0 0 1 1.573-1.726.182.182 0 0 0 0-.317 3.864 3.864 0 0 1-1.572-1.727.182.182 0 0 0-.331 0zM4.902 10.171a3.87 3.87 0 0 1-1.572 1.727.182.182 0 0 0 0 .317 3.867 3.867 0 0 1 1.572 1.726c.065.14.266.14.33 0a3.865 3.865 0 0 1 1.573-1.726.182.182 0 0 0 0-.317 3.864 3.864 0 0 1-1.572-1.727.182.182 0 0 0-.331 0zM63.816 54.376a7.95 7.95 0 0 1-3.231 3.549.374.374 0 0 0 0 .65 7.946 7.946 0 0 1 3.23 3.55c.134.289.547.289.68 0a7.95 7.95 0 0 1 3.231-3.55.374.374 0 0 0 0-.65 7.95 7.95 0 0 1-3.23-3.55.375.375 0 0 0-.68 0z"/>
        <path fill="#BCD2FD" d="M64.161 52.375c-.05 0-.101-.004-.152-.01-.979-.132-.986-1.08-.99-1.437a913.782 913.782 0 0 1-.002-3.476c.004-1.897.01-3.792.01-3.792a1.131 1.131 0 0 1 1.134-1.126h.003a1.131 1.131 0 0 1 1.13 1.133c-.008 2.76-.017 6.945-.005 7.472a1.134 1.134 0 0 1-1.128 1.235zM64.161 79.859c-.029 0-.058 0-.087-.003-1.046-.08-1.05-1.063-1.053-1.65-.002-.34-.003-.824-.004-1.409 0-.624.507-1.13 1.133-1.13.627 0 1.134.505 1.135 1.128 0 1.363.004 1.739.006 1.842a1.13 1.13 0 0 1-1.13 1.222zM64.15 74.813a1.131 1.131 0 0 1-1.133-1.13l.003-3.112c0-.623.508-1.128 1.134-1.128.627 0 1.134.507 1.133 1.13l-.003 3.112c0 .623-.508 1.128-1.134 1.128zM64.158 68.592h-.002a1.131 1.131 0 0 1-1.132-1.131l.003-1.936a1.131 1.131 0 0 1 1.134-1.127h.002a1.131 1.131 0 0 1 1.132 1.131l-.004 1.936a1.131 1.131 0 0 1-1.133 1.127zM71.093 59.516a1.13 1.13 0 0 1-1.125-1.28c.132-.976 1.084-.983 1.443-.986a1064.196 1064.196 0 0 1 3.49-.002c1.904.003 3.807.01 3.807.01a1.131 1.131 0 0 1 1.13 1.132 1.131 1.131 0 0 1-1.134 1.125h-.003c-2.771-.009-6.974-.017-7.503-.005a.95.95 0 0 1-.105.006zM50.258 59.526a1.135 1.135 0 0 1-1.125-1.28c.131-.975 1.084-.982 1.443-.985.21-.002.51-.003.87-.004a3215.506 3215.506 0 0 1 6.427.01 1.131 1.131 0 0 1 1.13 1.133 1.131 1.131 0 0 1-1.134 1.126h-.003c-2.771-.01-6.974-.017-7.503-.005a.95.95 0 0 1-.105.005zM72.65 67.653c-.291 0-.583-.112-.804-.334a670.59 670.59 0 0 0-4.38-4.369 1.127 1.127 0 0 1 .055-1.788c.79-.568 1.28-.08 2.171.804.42.417.979.975 1.537 1.532 1.114 1.114 2.226 2.23 2.226 2.23.44.443.438 1.158-.006 1.597-.221.219-.51.328-.799.328zM60.767 55.832c-.292 0-.583-.111-.805-.333-1.535-1.542-4.027-4.035-4.379-4.368a1.127 1.127 0 0 1 .057-1.79c.787-.565 1.278-.08 2.169.805a1913.695 1913.695 0 0 1 3.763 3.762 1.13 1.13 0 1 1-.805 1.925zM56.31 67.653c-.291 0-.583-.112-.804-.334a1.126 1.126 0 0 1 .006-1.597 664.685 664.685 0 0 0 4.387-4.361 1.137 1.137 0 0 1 1.794.055c.571.785.082 1.274-.807 2.162-.418.418-.978.974-1.538 1.53-1.118 1.11-2.239 2.217-2.239 2.217-.22.219-.51.328-.799.328zM68.178 55.817c-.291 0-.583-.111-.804-.333a1.126 1.126 0 0 1 .006-1.597c1.548-1.53 4.051-4.012 4.386-4.362a1.137 1.137 0 0 1 1.797.056c.568.786.079 1.274-.808 2.16-.42.42-.979.975-1.539 1.531-1.118 1.11-2.239 2.217-2.239 2.217-.221.22-.51.328-.799.328z"/>
        <path fill="#6296FB" d="M60.134 46.324a3.87 3.87 0 0 1-1.572 1.727.182.182 0 0 0 0 .317 3.865 3.865 0 0 1 1.572 1.726c.065.14.266.14.33 0a3.865 3.865 0 0 1 1.572-1.726.182.182 0 0 0 0-.317 3.864 3.864 0 0 1-1.572-1.727.182.182 0 0 0-.33 0zM67.835 46.324a3.87 3.87 0 0 1-1.571 1.727.182.182 0 0 0 0 .317 3.865 3.865 0 0 1 1.571 1.726c.065.14.266.14.331 0a3.865 3.865 0 0 1 1.572-1.726.182.182 0 0 0 0-.317 3.864 3.864 0 0 1-1.572-1.727.182.182 0 0 0-.33 0zM60.134 67.434a3.87 3.87 0 0 1-1.572 1.726.182.182 0 0 0 0 .317 3.865 3.865 0 0 1 1.572 1.727c.065.14.266.14.33 0a3.865 3.865 0 0 1 1.572-1.727.182.182 0 0 0 0-.317 3.864 3.864 0 0 1-1.572-1.726.182.182 0 0 0-.33 0zM67.835 67.434a3.87 3.87 0 0 1-1.571 1.726.182.182 0 0 0 0 .317 3.865 3.865 0 0 1 1.571 1.727c.065.14.266.14.331 0a3.865 3.865 0 0 1 1.572-1.727.182.182 0 0 0 0-.317 3.864 3.864 0 0 1-1.572-1.726.182.182 0 0 0-.33 0zM74.733 60.348a3.87 3.87 0 0 1-1.572 1.727.182.182 0 0 0 0 .316 3.865 3.865 0 0 1 1.572 1.727c.064.14.266.14.33 0a3.865 3.865 0 0 1 1.572-1.727.182.182 0 0 0 0-.316 3.864 3.864 0 0 1-1.572-1.727.182.182 0 0 0-.33 0zM74.733 52.677a3.87 3.87 0 0 1-1.572 1.727.182.182 0 0 0 0 .317 3.865 3.865 0 0 1 1.572 1.726c.064.14.266.14.33 0a3.865 3.865 0 0 1 1.572-1.726.182.182 0 0 0 0-.317 3.864 3.864 0 0 1-1.572-1.727.182.182 0 0 0-.33 0zM53.897 60.348a3.87 3.87 0 0 1-1.571 1.727.182.182 0 0 0 0 .316 3.867 3.867 0 0 1 1.571 1.727c.065.14.266.14.331 0A3.865 3.865 0 0 1 55.8 62.39a.182.182 0 0 0 0-.316 3.864 3.864 0 0 1-1.572-1.727.182.182 0 0 0-.33 0zM53.897 52.677a3.87 3.87 0 0 1-1.571 1.727.182.182 0 0 0 0 .317 3.867 3.867 0 0 1 1.571 1.726c.065.14.266.14.331 0a3.865 3.865 0 0 1 1.572-1.726.182.182 0 0 0 0-.317 3.864 3.864 0 0 1-1.572-1.727.182.182 0 0 0-.33 0z"/>
        <path fill="#FA2069" fill-rule="nonzero" d="M2.133 78.51c-.473 0-.92-.173-1.26-.51C.304 77.43.2 76.555.61 75.766l22.089-42.415a.648.648 0 0 1 1.033-.16l22.131 22.043a.644.644 0 0 1-.16 1.029l-42.587 22a2.145 2.145 0 0 1-.983.247zM23.44 34.727L1.76 76.36c-.15.288-.139.56.03.727.168.168.44.18.73.03l41.802-21.594-20.88-20.796z"/>
        <ellipse cx="34.331" cy="44.668" fill="#FDBCD2" rx="3.461" ry="15.615" transform="rotate(-45 34.33 44.668)"/>
        <path fill="#FA2069" fill-rule="nonzero" d="M44.613 56.602c-3.207 0-9.744-5.609-13.184-9.034-3.986-3.97-10.915-12.083-8.613-14.376 2.302-2.294 10.448 4.609 14.434 8.579 2.988 2.975 5.543 6.036 7.195 8.617 1.885 2.948 2.35 4.831 1.418 5.758-.315.314-.741.456-1.25.456zM23.732 34.104c-.677.674 1.75 5.716 8.613 12.551 6.863 6.835 11.926 9.255 12.602 8.579.168-.168.236-1.29-1.595-4.152-1.603-2.505-4.095-5.488-7.018-8.4-6.864-6.835-11.924-9.252-12.602-8.578z"/>
        <path fill="#FA2069" d="M46.236 49.9c-1.084 0-2.08-.431-2.937-.802-1.289-.559-2.125-.88-3.028-.438a.974.974 0 0 1-1.3-.443.966.966 0 0 1 .444-1.295c1.755-.857 3.366-.16 4.66.4 1.289.56 2.125.88 3.028.439.82-.402.915-1.057 1.022-2.277.11-1.243.26-2.944 2.103-3.845 1.755-.857 3.365-.16 4.659.401 1.289.558 2.125.879 3.027.438.82-.4.915-1.056 1.022-2.276.11-1.243.259-2.945 2.102-3.846a.974.974 0 0 1 1.3.443.967.967 0 0 1-.444 1.295c-.82.401-.915 1.056-1.022 2.277-.109 1.242-.258 2.944-2.102 3.845-1.754.858-3.365.16-4.659-.401-1.289-.559-2.125-.879-3.027-.438-.821.4-.916 1.056-1.023 2.276-.109 1.243-.259 2.945-2.102 3.845-.593.29-1.17.402-1.723.402z"/>
        <path fill="#2069FA" d="M31.366 40.962a.97.97 0 0 1-.871-1.394c.443-.899.121-1.732-.44-3.016-.563-1.289-1.263-2.893-.402-4.64.904-1.837 2.613-1.986 3.86-2.095 1.225-.107 1.883-.2 2.286-1.018.443-.899.121-1.731-.44-3.016-.563-1.288-1.263-2.892-.402-4.64.904-1.836 2.613-1.985 3.86-2.093 1.225-.107 1.883-.2 2.286-1.018a.974.974 0 0 1 1.3-.443c.482.236.681.816.445 1.296-.905 1.835-2.613 1.984-3.861 2.093-1.225.107-1.883.2-2.285 1.018-.443.898-.122 1.73.44 3.015.562 1.289 1.263 2.893.402 4.64-.904 1.836-2.613 1.985-3.86 2.094-1.226.107-1.884.201-2.286 1.019-.443.899-.122 1.731.44 3.016.562 1.288 1.263 2.892.402 4.64a.972.972 0 0 1-.874.542z"/>
    </g>
</svg>
