<svg xmlns="http://www.w3.org/2000/svg" xmlns:xlink="http://www.w3.org/1999/xlink" width="159" height="48" viewBox="0 0 159 48">
    <defs>
        <path id="a" d="M0 .286h20.405v32.557H0z"/>
        <path id="c" d="M.088.591h115.879v20.86H.087z"/>
    </defs>
    <g fill="none" fill-rule="evenodd">
        <path fill="#00B7EB" d="M23.74 6.661L11.42 21.193c-1.833 2.164-1.567 5.436.592 7.274a5.157 5.157 0 0 0 7.258-.593l1.835-2.164 2.69-3.173 6.072-7.162a1.466 1.466 0 0 1 2.063-.169c.614.523.69 1.453.17 2.067l-1.975 2.33-4.731 5.58a1.855 1.855 0 0 0 .21 2.603 1.847 1.847 0 0 0 2.598-.212l4.731-5.58 2.447-2.887c1.834-2.163 1.569-5.436-.59-7.273a5.097 5.097 0 0 0-2.471-1.15h-.005l-.082-.014h-.004a4.07 4.07 0 0 0-.245-.03l-.011-.002a4.545 4.545 0 0 0-.24-.018h-.015a4.41 4.41 0 0 0-.235-.007h-.02c-.077 0-.154.002-.23.005l-.023.001a4.08 4.08 0 0 0-.227.017l-.026.002-.071.006-.024.004c-.04.004-.082.01-.123.016l-.034.005-.066.01a.21.21 0 0 0-.032.005l-.114.02-.036.008-.063.012-.04.009-.103.023a1.41 1.41 0 0 0-.04.01l-.059.015-.045.012-.08.022-.061.018-.052.016a.912.912 0 0 0-.05.016l-.052.017-.086.03-.048.017-.054.02-.047.018-.088.034-.041.018c-.02.01-.04.017-.06.026a1.605 1.605 0 0 0-.042.019c-.03.012-.06.027-.09.04l-.032.016-.067.032a.391.391 0 0 1-.038.019c-.027.014-.055.03-.082.043l-.03.016c-.025.013-.05.027-.076.043l-.033.018a2.254 2.254 0 0 0-.076.044l-.024.014-.085.053-.032.02-.073.048-.02.013c-.03.02-.06.04-.09.062l-.028.019a3.731 3.731 0 0 0-.07.051l-.022.016-.087.066-.024.02-.07.056-.022.017a3.31 3.31 0 0 0-.086.074l-.018.015-.07.063-.022.02a3.549 3.549 0 0 0-.083.078l-.015.012a5.497 5.497 0 0 1-.07.07l-.02.021-.081.084-.008.008-.072.08-.02.022c-.027.03-.052.06-.077.09l-6.546 7.72-2.69 3.172-1.362 1.607a1.465 1.465 0 0 1-2.063.168 1.473 1.473 0 0 1-.17-2.066L27.023 8.494c1.834-2.163 1.569-5.435-.59-7.273-2.159-1.837-5.425-1.57-7.26.592l-7.522 8.873-5.27 6.217-5.944 7.011-.03.037-.03.037-.027.037-.027.04c-.008.013-.018.024-.026.038l-.024.039c-.009.012-.016.027-.024.04a1.656 1.656 0 0 0-.044.08l-.02.04-.02.043c-.007.013-.012.027-.018.04l-.017.043-.016.041-.015.043-.014.043a1.226 1.226 0 0 0-.025.087l-.029.13-.007.045-.007.043-.005.045-.004.044-.003.045-.003.044v.133c0 .015 0 .03.003.044l.002.045.004.044.006.044a.683.683 0 0 0 .021.131.644.644 0 0 0 .02.087l.011.043.013.043a.842.842 0 0 0 .013.042l.015.042.015.042.017.042.017.041.019.04a.883.883 0 0 1 .019.041c.008.014.013.027.021.04l.022.04.023.039.023.038.025.038.025.037.027.038c.01.011.019.024.028.037l.029.035c.01.012.019.024.03.035l.03.035.032.034.032.033.035.033.034.032.035.031 12.471 10.615 6.902 5.874 3.97 3.379c2.158 1.837 5.424 1.57 7.259-.592 1.833-2.163 1.567-5.435-.592-7.273l-5.786-4.925-1.918-1.633-.988-.84a1.845 1.845 0 0 0-2.597.211 1.855 1.855 0 0 0 .21 2.603l.99.84 1.917 1.633 5.23 4.451c.613.523.689 1.453.168 2.068a1.466 1.466 0 0 1-2.062.17l-10.317-8.78-11.066-9.42 4.751-5.604 5.27-6.217 7.05-8.316a1.467 1.467 0 0 1 2.063-.167c.614.522.69 1.453.169 2.067"/>
        <path fill="#853493" d="M10.208 24.757a5.152 5.152 0 0 0 1.803 3.71 5.157 5.157 0 0 0 7.259-.593l1.835-2.164 2.69-3.173 6.072-7.162a1.467 1.467 0 0 1 2.064-.169c.613.522.689 1.453.169 2.067l-.62.73c.144.349.42.92 1.02 1.426.498.419 1.218.792 2.008.708l.872-1.03c1.834-2.163 1.568-5.436-.59-7.273-.73-.62-1.587-1-2.47-1.15h-.006l-.081-.014h-.005a6.064 6.064 0 0 0-.245-.031l-.012-.001a5.725 5.725 0 0 0-.24-.018h-.014a4.42 4.42 0 0 0-.236-.007h-.02c-.076 0-.153.001-.23.006h-.022c-.076.004-.151.01-.226.016l-.028.002-.07.008-.023.003c-.041.004-.083.01-.124.016l-.034.005-.066.01a30.688 30.688 0 0 0-.146.026l-.036.006-.062.013-.04.008-.104.024-.04.01-.06.014-.045.013-.078.022-.063.018c-.017.005-.033.011-.051.015l-.051.017-.05.016-.086.03a3.877 3.877 0 0 0-.103.038l-.047.017-.088.036-.04.017a.936.936 0 0 0-.061.026l-.041.018-.09.041-.033.016-.067.032-.037.019-.083.043-.029.016-.076.041-.034.02a1.771 1.771 0 0 0-.077.044l-.023.014c-.029.017-.057.035-.085.054-.012.005-.022.012-.033.019l-.073.048-.02.013-.088.061-.029.02-.07.052-.022.015-.087.067-.024.019c-.024.017-.046.037-.07.056l-.023.018a3.499 3.499 0 0 0-.085.072l-.018.016-.07.062-.022.02a2.446 2.446 0 0 0-.083.078l-.014.014c-.024.022-.047.047-.07.07l-.02.02c-.029.028-.056.056-.082.084l-.008.008-.072.08-.02.022-.078.089-6.545 7.72-2.69 3.173-1.362 1.607c-.522.615-1.45.69-2.064.167-.434-.37-.599-.944-.472-1.467-.55.09-1.109.139-1.662.23-.953.158-1.894.445-2.528.9"/>
        <path fill="#5552A2" d="M23.74 6.662L11.42 21.193a5.18 5.18 0 0 0-.882 5.179c.619.372 1.427.634 2.289.432.757-.177 1.555-.715 2.375-1.498a1.473 1.473 0 0 1-.5-2.279l12.32-14.533c1.834-2.163 1.568-5.435-.59-7.273-2.159-1.837-5.425-1.57-7.26.592L12.606 9.56c.15.318.308.611.469.871.673 1.087 1.396 1.613 1.603 2.389L21.51 4.76a1.467 1.467 0 0 1 2.063-.167c.614.522.69 1.453.169 2.068"/>
        <g transform="translate(0 8.87)">
            <mask id="b" fill="#fff">
                <use xlink:href="#a"/>
            </mask>
            <path fill="#C3178C" d="M12.949.286l-1.299 1.53-5.27 6.217-5.943 7.012-.03.037a.632.632 0 0 0-.03.037l-.028.038c-.01.012-.018.024-.027.038l-.026.038-.024.039c-.009.013-.017.027-.024.04l-.022.04c-.008.013-.016.027-.022.04l-.02.04-.02.043a.613.613 0 0 0-.018.041l-.017.042a.51.51 0 0 0-.016.043l-.015.042-.014.042-.013.043a1.723 1.723 0 0 0-.04.174c-.004.015-.005.03-.008.045l-.007.043-.005.045-.004.045a.74.74 0 0 0-.003.044L0 16.168v.045c0 .015-.002.03 0 .044v.045c.001.014.001.03.003.044l.002.044.004.045a3.359 3.359 0 0 1 .012.087l.007.044.008.043a.812.812 0 0 0 .02.087.64.64 0 0 0 .011.043l.012.043.014.043a.8.8 0 0 0 .03.083c.006.015.01.028.017.042l.017.042.019.04c.007.013.012.027.02.04l.02.04a.596.596 0 0 0 .022.04l.023.04a.929.929 0 0 0 .023.037l.025.039.026.038.026.037.028.036.029.036.03.035.03.034.032.035c.01.012.022.022.032.033l.035.032c.01.011.022.021.034.032.012.011.024.02.035.032L13.12 28.262l5.38 4.58c.482-.274.83-.61 1.1-.916.752-.85.908-1.47.75-2.234-.01-.05-.021-.1-.034-.15l-4.81-4.094-11.067-9.42 4.75-5.604 5.271-6.216 1.421-1.676c-.165-.745-.69-1.343-1.39-1.753-.416-.245-.893-.422-1.541-.493" mask="url(#b)"/>
        </g>
        <g transform="translate(42.021 10.554)">
            <mask id="d" fill="#fff">
                <use xlink:href="#c"/>
            </mask>
            <path fill="#071A27" d="M111.137 15.112c.591 0 1.01-.057 1.255-.172.246-.116.37-.341.37-.674 0-.26-.16-.488-.478-.683-.318-.196-.801-.417-1.45-.663a14.777 14.777 0 0 1-1.377-.586 4.018 4.018 0 0 1-1.05-.726 2.948 2.948 0 0 1-.673-1.01c-.158-.39-.237-.862-.237-1.411 0-1.072.397-1.917 1.191-2.54.794-.622 1.885-.933 3.271-.933.694 0 1.358.061 1.994.185.634.122 1.14.256 1.516.4l-.563 2.519c-.376-.13-.784-.246-1.225-.348a6.656 6.656 0 0 0-1.483-.15c-1.011 0-1.517.281-1.517.845 0 .13.021.246.065.347.043.102.13.2.26.293.13.095.307.196.531.305.223.111.509.231.855.36.709.265 1.293.522 1.755.779.462.253.827.532 1.095.825.266.297.455.626.562.987.109.362.163.778.163 1.256 0 1.126-.422 1.98-1.268 2.558-.845.574-2.04.865-3.584.865-1.011 0-1.853-.087-2.524-.26-.672-.175-1.138-.319-1.398-.435l.541-2.626c.55.217 1.112.387 1.69.51a8.258 8.258 0 0 0 1.713.183zm-10.508 0c.592 0 1.01-.057 1.256-.172.246-.116.37-.341.37-.674 0-.26-.16-.488-.478-.683-.318-.196-.802-.417-1.45-.663a14.777 14.777 0 0 1-1.377-.586 4.037 4.037 0 0 1-1.051-.726 2.958 2.958 0 0 1-.672-1.01c-.158-.39-.237-.862-.237-1.411 0-1.072.397-1.917 1.19-2.54.795-.622 1.886-.933 3.272-.933.694 0 1.358.061 1.994.185.634.122 1.14.256 1.515.4l-.563 2.519c-.375-.13-.783-.246-1.224-.348a6.656 6.656 0 0 0-1.483-.15c-1.012 0-1.517.281-1.517.845 0 .13.021.246.065.347.043.102.13.2.26.293.13.095.306.196.531.305.223.111.509.231.855.36.708.265 1.293.522 1.755.779.462.253.827.532 1.094.825.267.297.456.626.563.987.109.362.162.778.162 1.256 0 1.126-.421 1.98-1.267 2.558-.845.574-2.039.865-3.585.865-1.01 0-1.852-.087-2.524-.26-.671-.175-1.137-.319-1.397-.435l.541-2.626c.55.217 1.112.387 1.69.51a8.256 8.256 0 0 0 1.712.183zM89.472 5.714c.953 0 1.748.108 2.383.326.635.216 1.144.528 1.527.933s.654.896.813 1.476c.158.578.238 1.223.238 1.932v6.729c-.462.1-1.104.22-1.928.358-.823.138-1.82.207-2.99.207a9.5 9.5 0 0 1-2.004-.195c-.599-.13-1.115-.345-1.549-.641a2.95 2.95 0 0 1-.996-1.162c-.231-.477-.347-1.063-.347-1.758 0-.665.134-1.23.401-1.693a3.081 3.081 0 0 1 1.073-1.107c.447-.274.96-.474 1.538-.597a8.567 8.567 0 0 1 1.798-.185c.419 0 .79.018 1.115.055.326.036.589.082.79.141v-.305c0-.549-.165-.99-.497-1.324-.332-.332-.91-.499-1.733-.499-.549 0-1.09.04-1.625.12-.534.08-.997.19-1.386.336l-.412-2.605a11.603 11.603 0 0 1 1.625-.357c.332-.051.682-.095 1.05-.131.369-.037.74-.054 1.116-.054zm.26 9.464c.317 0 .622-.007.91-.022.289-.014.52-.036.692-.065v-2.453a5.633 5.633 0 0 0-.584-.086 6.378 6.378 0 0 0-1.57.01 2.25 2.25 0 0 0-.705.207 1.194 1.194 0 0 0-.475.412c-.116.173-.174.391-.174.65 0 .508.17.859.509 1.053.339.196.805.294 1.397.294zm-6.846-3.452c0 .883-.108 1.686-.325 2.41-.217.723-.534 1.345-.953 1.867a4.31 4.31 0 0 1-1.56 1.216c-.62.29-1.335.434-2.144.434a5.73 5.73 0 0 1-1.257-.131 6.015 6.015 0 0 1-1.126-.368v4.297h-3.228V6.408c.289-.085.621-.17.997-.25.374-.079.769-.148 1.18-.205.411-.058.83-.105 1.256-.142.427-.036.835-.054 1.225-.054.937 0 1.776.142 2.512.424a5.15 5.15 0 0 1 1.863 1.194 5.092 5.092 0 0 1 1.16 1.877c.267.738.4 1.562.4 2.474zm-3.292.088c0-1-.225-1.799-.672-2.4-.448-.6-1.113-.9-1.992-.9-.29 0-.557.01-.803.033a7.058 7.058 0 0 0-.606.075v5.84c.202.13.466.239.79.325.325.087.654.13.986.13 1.531 0 2.297-1.035 2.297-3.103zm-9.62 5.84c-1.242-.03-2.123-.298-2.642-.804-.52-.507-.78-1.296-.78-2.367V.938l2.014-.347v13.566c0 .334.03.608.087.826.058.217.152.39.282.521.13.13.303.227.52.292.217.066.483.12.8.164l-.28 1.693zM58.926 5.865c.81 0 1.492.105 2.047.315.557.21 1.004.506 1.343.89.34.382.583.839.725 1.367.145.528.217 1.111.217 1.747v7.055c-.172.03-.414.069-.725.12-.31.05-.66.097-1.05.14-.39.044-.813.084-1.268.12-.455.036-.907.055-1.354.055-.635 0-1.22-.066-1.755-.195a3.914 3.914 0 0 1-1.386-.62 2.822 2.822 0 0 1-.91-1.118c-.216-.463-.325-1.02-.325-1.671 0-.623.126-1.157.38-1.607a3.04 3.04 0 0 1 1.029-1.085 4.747 4.747 0 0 1 1.515-.607 8.19 8.19 0 0 1 1.82-.196c.203 0 .413.01.628.032.217.023.423.051.618.088.195.036.365.069.51.097.144.029.245.052.303.065v-.565c0-.332-.037-.661-.109-.987a2.272 2.272 0 0 0-.39-.868 1.976 1.976 0 0 0-.769-.607c-.325-.153-.747-.23-1.267-.23-.664 0-1.246.049-1.744.142-.498.094-.87.192-1.115.294l-.24-1.672c.26-.116.694-.228 1.3-.336a11.209 11.209 0 0 1 1.972-.163zm.173 10.115c.477 0 .9-.01 1.268-.032.368-.021.675-.062.921-.12v-3.365c-.144-.07-.38-.133-.704-.184a7.74 7.74 0 0 0-1.182-.075c-.303 0-.624.02-.964.064-.338.043-.65.134-.93.272a1.986 1.986 0 0 0-.704.564c-.188.238-.283.553-.283.944 0 .724.232 1.227.694 1.508.462.283 1.09.424 1.884.424zm-5.892-9.834a56.757 56.757 0 0 1-1.983 6.079 95.812 95.812 0 0 1-2.197 5.21h-1.82a95.777 95.777 0 0 1-2.2-5.21 56.757 56.757 0 0 1-1.982-6.079h2.167c.173.71.378 1.466.617 2.27.238.802.491 1.598.758 2.387.267.788.538 1.552.812 2.29.275.738.534 1.397.78 1.975.246-.578.505-1.237.78-1.974.274-.739.546-1.503.813-2.29.266-.79.52-1.586.757-2.388.24-.804.445-1.56.619-2.27h2.079zm-13.28-2.04c-.361 0-.668-.119-.92-.358-.253-.238-.38-.56-.38-.967 0-.404.127-.726.38-.965.252-.238.559-.358.92-.358.362 0 .668.12.92.358.254.239.38.561.38.965 0 .406-.126.729-.38.967-.252.24-.558.359-.92.359zm-.996 13.329h2.014V6.148h-2.014v11.288zM32.106 6.147h4.268v1.694h-4.268v5.21c0 .564.044 1.03.13 1.4.087.368.217.658.39.869.174.21.39.357.65.443.26.088.563.13.91.13.607 0 1.095-.067 1.463-.205.368-.137.624-.235.769-.293l.39 1.671c-.203.101-.557.228-1.062.38-.506.152-1.083.229-1.733.229-.765 0-1.397-.099-1.895-.294-.5-.195-.9-.488-1.203-.88-.303-.389-.516-.872-.64-1.442a9.6 9.6 0 0 1-.183-1.987V3l2.014-.347v3.494zm-8.925 9.834c.824 0 1.434-.109 1.83-.325.398-.218.596-.565.596-1.042 0-.493-.195-.883-.585-1.172-.39-.29-1.033-.616-1.928-.978a31.235 31.235 0 0 1-1.246-.53 4.39 4.39 0 0 1-1.029-.641 2.803 2.803 0 0 1-.693-.89c-.173-.347-.26-.775-.26-1.281 0-1 .368-1.79 1.105-2.378.737-.586 1.741-.878 3.01-.878.32 0 .637.018.955.054.317.036.613.08.888.13.274.051.516.105.726.163.209.058.37.11.487.152l-.368 1.737c-.217-.116-.556-.235-1.018-.359-.462-.122-1.019-.184-1.67-.184-.561 0-1.053.112-1.472.337-.419.224-.628.574-.628 1.052 0 .246.047.463.141.651.094.189.239.359.433.511.195.151.437.293.726.423.288.13.635.267 1.04.412.534.203 1.01.402 1.43.598.418.194.776.422 1.072.683.296.26.523.575.683.944.158.37.238.822.238 1.357 0 1.042-.386 1.83-1.16 2.366-.773.535-1.873.803-3.303.803-.997 0-1.777-.083-2.34-.25-.563-.166-.946-.292-1.149-.38l.37-1.735c.23.085.599.216 1.104.39.506.173 1.177.26 2.015.26zm-7.625-5.274c.014-.912-.214-1.661-.683-2.247-.47-.587-1.116-.88-1.94-.88-.462 0-.87.09-1.223.272a2.877 2.877 0 0 0-.9.705c-.245.29-.436.623-.573.998-.137.378-.227.76-.27 1.152h5.589zM7.82 11.814c0-1 .145-1.871.434-2.616.288-.746.671-1.365 1.148-1.857a4.66 4.66 0 0 1 1.646-1.106 5.116 5.116 0 0 1 1.906-.369c1.517 0 2.68.474 3.49 1.422.808.948 1.212 2.391 1.212 4.33v.337c0 .137-.008.263-.022.38H9.922c.088 1.172.426 2.06 1.019 2.67.592.608 1.516.91 2.773.91.707 0 1.303-.06 1.787-.184.483-.123.849-.242 1.094-.358l.282 1.693c-.246.13-.675.268-1.29.414a9.184 9.184 0 0 1-2.09.216c-.982 0-1.83-.148-2.546-.445-.714-.296-1.303-.705-1.765-1.227a5.001 5.001 0 0 1-1.028-1.856 7.843 7.843 0 0 1-.337-2.354zM4.485.59c.592 0 1.1.044 1.528.13.425.087.725.167.898.238l-.368 1.737a3.788 3.788 0 0 0-.737-.25 4.906 4.906 0 0 0-1.169-.12c-.939 0-1.597.258-1.972.771-.375.515-.563 1.206-.563 2.074v.976h4.333v1.694H2.102v9.595H.088V5.128c0-1.447.353-2.565 1.06-3.355C1.857.986 2.968.591 4.485.591z" mask="url(#d)"/>
        </g>
        <path fill="#071A27" d="M92.518 35.861a1.202 1.202 0 0 1 0 2.404 1.202 1.202 0 1 1 0-2.404zm-37.731 1.005c.007-.429-.1-.783-.321-1.058-.221-.277-.527-.415-.914-.415-.219 0-.41.043-.577.128a1.358 1.358 0 0 0-.424.332 1.529 1.529 0 0 0-.27.471 2.265 2.265 0 0 0-.127.542h2.633zm-3.644.52c0-.469.068-.88.204-1.23.136-.352.317-.644.541-.875.224-.233.483-.406.776-.522.292-.116.592-.175.898-.175.714 0 1.262.224 1.644.67.38.448.571 1.127.571 2.041v.16c0 .064-.003.124-.01.178h-3.634c.04.553.201.972.48 1.259.278.285.714.428 1.306.428.334 0 .615-.028.842-.086.228-.058.4-.115.516-.169l.133.798c-.116.061-.318.125-.607.194-.29.068-.618.102-.985.102-.464 0-.864-.07-1.2-.21a2.238 2.238 0 0 1-.833-.577 2.353 2.353 0 0 1-.484-.874 3.699 3.699 0 0 1-.158-1.111zM49.57 32.1c.28 0 .52.021.72.062.201.04.342.078.424.112l-.173.818a1.85 1.85 0 0 0-.348-.118 2.326 2.326 0 0 0-.55-.055c-.444 0-.754.12-.93.363-.177.242-.265.567-.265.977v.46h2.041v.798h-2.04v4.521h-.95v-5.8c0-.682.166-1.208.5-1.58.333-.372.857-.558 1.571-.558zm-4.185 1.658a.611.611 0 0 1-.434-.169.6.6 0 0 1-.178-.455.596.596 0 0 1 .612-.624.593.593 0 0 1 .613.624c0 .19-.06.342-.179.455a.612.612 0 0 1-.434.169zm-.47 6.28h.95v-5.319h-.95v5.32zm-1.193.102c-.586-.014-1-.14-1.246-.378-.245-.238-.367-.61-.367-1.115v-6.382l.949-.165v6.394c0 .156.014.286.04.388a.53.53 0 0 0 .134.246.58.58 0 0 0 .244.138c.103.03.228.055.378.076l-.132.798zm42.712-7.874l.95-.163v7.783a9.025 9.025 0 0 1-.837.185c-.34.061-.732.092-1.174.092-.408 0-.776-.065-1.103-.194a2.364 2.364 0 0 1-.837-.552 2.446 2.446 0 0 1-.536-.875 3.36 3.36 0 0 1-.188-1.16c0-.41.052-.786.158-1.126.105-.342.26-.635.464-.88.205-.246.454-.437.75-.572a2.401 2.401 0 0 1 1.016-.205c.306 0 .577.04.811.123.236.082.411.16.526.235v-2.69zm0 3.58a1.972 1.972 0 0 0-.5-.276 1.887 1.887 0 0 0-.715-.133c-.272 0-.505.05-.699.149a1.281 1.281 0 0 0-.474.408 1.72 1.72 0 0 0-.266.62 3.424 3.424 0 0 0-.082.767c0 .62.153 1.1.46 1.437.307.338.715.506 1.225.506.258 0 .475-.012.648-.035.173-.024.308-.05.403-.077v-3.366zm-5.788 1.023c.007-.428-.1-.782-.321-1.06-.221-.275-.527-.413-.914-.413-.218 0-.41.043-.576.128a1.362 1.362 0 0 0-.424.332 1.528 1.528 0 0 0-.27.472 2.349 2.349 0 0 0-.128.541h2.633zm-3.644.521c0-.47.068-.88.205-1.23.135-.353.316-.644.54-.876.224-.232.483-.406.777-.522.292-.115.591-.174.897-.174.715 0 1.262.224 1.644.67.38.447.571 1.127.571 2.04v.16c0 .065-.003.124-.01.178h-3.634c.042.553.201.972.48 1.26.28.285.715.428 1.306.428.334 0 .615-.029.842-.087.229-.058.4-.113.516-.168l.133.797c-.116.062-.318.126-.607.195-.29.067-.618.102-.985.102-.463 0-.863-.07-1.2-.21a2.23 2.23 0 0 1-.832-.578 2.355 2.355 0 0 1-.485-.874 3.703 3.703 0 0 1-.158-1.11zm-.54-2.668a26.86 26.86 0 0 1-.935 2.864 45.819 45.819 0 0 1-1.036 2.455h-.858a45.106 45.106 0 0 1-1.036-2.455 26.859 26.859 0 0 1-.934-2.864h1.02a29.668 29.668 0 0 0 .649 2.194c.125.37.254.73.383 1.078.13.348.252.658.367.932.116-.274.239-.584.367-.932a31.258 31.258 0 0 0 .74-2.204c.113-.378.21-.735.292-1.068h.98zm-6.259-.962a.61.61 0 0 1-.433-.168.598.598 0 0 1-.18-.456.596.596 0 0 1 .613-.625.596.596 0 0 1 .613.625c0 .19-.06.343-.179.456a.611.611 0 0 1-.434.168zm-.47 6.28h.95v-5.318h-.95v5.319zm-1.194.102c-.585-.014-1-.14-1.245-.378-.245-.238-.367-.61-.367-1.115v-6.383l.948-.163v6.393c0 .156.014.286.042.388a.53.53 0 0 0 .132.246c.062.06.143.107.246.138.101.03.227.056.377.077l-.133.797zm42.467-3.273c.008-.428-.1-.781-.321-1.058s-.526-.415-.914-.415c-.217 0-.41.043-.576.13a1.34 1.34 0 0 0-.424.331 1.507 1.507 0 0 0-.27.47 2.318 2.318 0 0 0-.129.542h2.634zm-3.644.522c0-.47.068-.88.204-1.232.136-.35.316-.643.541-.875.225-.231.484-.406.776-.522.293-.115.593-.173.899-.173.714 0 1.262.223 1.643.67.381.446.572 1.126.572 2.04v.159c0 .065-.003.124-.01.178h-3.635c.041.554.2.973.48 1.26.279.285.715.428 1.307.428.332 0 .614-.029.842-.086.228-.059.399-.114.515-.17l.133.798c-.115.062-.319.127-.607.195-.29.068-.619.102-.985.102-.463 0-.863-.07-1.2-.21a2.225 2.225 0 0 1-.831-.578 2.348 2.348 0 0 1-.485-.874 3.693 3.693 0 0 1-.16-1.11zm-.54-2.67c-.267.996-.578 1.951-.935 2.865a46.182 46.182 0 0 1-1.036 2.455h-.858a44.824 44.824 0 0 1-1.036-2.455 26.548 26.548 0 0 1-.933-2.864h1.02c.081.334.178.69.29 1.068a33.05 33.05 0 0 0 .741 2.204c.129.348.252.659.367.932.115-.273.239-.584.368-.932a33.048 33.048 0 0 0 .74-2.204c.113-.378.21-.734.292-1.068h.98zm-6.26-.96a.597.597 0 0 1-.612-.624.594.594 0 0 1 .613-.625.597.597 0 0 1 .614.624.6.6 0 0 1-.18.456.612.612 0 0 1-.434.168zm-.468 6.28h.95v-5.32h-.95v5.32zm-1.194.101c-.586-.013-1.001-.14-1.247-.378-.244-.238-.366-.61-.366-1.114v-6.384l.949-.163v6.393c0 .157.013.286.04.39a.53.53 0 0 0 .134.244c.061.06.143.108.244.138.103.03.228.056.378.077l-.132.797zm-37.68-4.28a1.202 1.202 0 0 1 0 2.404 1.201 1.201 0 1 1 0-2.404z"/>
    </g>
</svg>
