<?xml version="1.0" encoding="UTF-8"?>
<svg width="189px" height="57px" viewBox="0 0 189 57" version="1.1" xmlns="http://www.w3.org/2000/svg" xmlns:xlink="http://www.w3.org/1999/xlink">
    <g id="Page-1" stroke="none" stroke-width="1" fill="none" fill-rule="evenodd">
        <g id="fp18" transform="translate(-82.000000, -149.000000)">
            <g id="Group" transform="translate(82.491000, 149.455754)">
                <path d="M28.248,7.911246 L13.589,25.167246 C11.407,27.736246 11.724,31.622246 14.292,33.804246 C16.861,35.986246 20.747,35.669246 22.929,33.101246 L35.538,18.258246 C36.158,17.527246 37.263,17.437246 37.994,18.058246 C38.723,18.678246 38.814,19.782246 38.195,20.512246 L30.215,29.905246 C29.435,30.824246 29.548,32.215246 30.467,32.996246 C31.386,33.776246 32.776,33.663246 33.557,32.744246 L42.098,22.690246 C44.28,20.121246 43.964,16.235246 41.395,14.053246 C40.527,13.315246 39.508,12.864246 38.455,12.688246 L38.449,12.687246 C38.417,12.681246 38.385,12.676246 38.353,12.671246 L38.347,12.671246 C38.25,12.656246 38.153,12.644246 38.055,12.634246 L38.042,12.633246 C37.947,12.623246 37.852,12.616246 37.757,12.611246 L37.739,12.610246 C37.646,12.606246 37.552,12.603246 37.459,12.603246 L37.435,12.603246 C37.344,12.603246 37.253,12.605246 37.161,12.609246 L37.134,12.610246 C37.044,12.615246 36.955,12.621246 36.865,12.629246 L36.833,12.632246 C36.806,12.635246 36.777,12.638246 36.75,12.641246 L36.722,12.644246 C36.673,12.650246 36.623,12.656246 36.574,12.663246 C36.561,12.665246 36.548,12.667246 36.534,12.669246 C36.508,12.673246 36.482,12.677246 36.455,12.681246 C36.443,12.683246 36.43,12.685246 36.417,12.687246 C36.372,12.695246 36.326,12.703246 36.281,12.711246 C36.267,12.714246 36.253,12.717246 36.239,12.720246 C36.214,12.724246 36.189,12.729246 36.164,12.735246 C36.149,12.738246 36.133,12.741246 36.117,12.745246 C36.076,12.754246 36.035,12.763246 35.994,12.773246 C35.978,12.777246 35.962,12.781246 35.946,12.785246 C35.923,12.790246 35.899,12.796246 35.876,12.802246 C35.858,12.807246 35.84,12.812246 35.822,12.817246 C35.791,12.825246 35.76,12.834246 35.728,12.843246 C35.704,12.850246 35.679,12.857246 35.654,12.864246 C35.634,12.870246 35.613,12.877246 35.593,12.883246 C35.572,12.889246 35.552,12.896246 35.532,12.902246 C35.512,12.909246 35.492,12.915246 35.472,12.922246 C35.437,12.933246 35.403,12.945246 35.369,12.957246 C35.35,12.964246 35.331,12.971246 35.312,12.978246 C35.29,12.986246 35.269,12.994246 35.247,13.002246 C35.229,13.009246 35.21,13.016246 35.192,13.023246 C35.157,13.037246 35.122,13.051246 35.087,13.065246 C35.071,13.072246 35.055,13.078246 35.038,13.085246 C35.015,13.095246 34.99,13.106246 34.967,13.116246 C34.95,13.123246 34.934,13.130246 34.918,13.137246 C34.882,13.154246 34.846,13.170246 34.811,13.186246 C34.797,13.192246 34.785,13.199246 34.772,13.205246 C34.745,13.218246 34.719,13.230246 34.693,13.243246 C34.678,13.251246 34.663,13.258246 34.648,13.266246 C34.615,13.283246 34.582,13.300246 34.549,13.317246 L34.515,13.336246 C34.484,13.352246 34.454,13.368246 34.424,13.385246 L34.384,13.408246 C34.354,13.425246 34.323,13.443246 34.293,13.460246 L34.265,13.477246 C34.231,13.498246 34.197,13.519246 34.163,13.540246 C34.15,13.548246 34.138,13.556246 34.125,13.564246 C34.096,13.582246 34.067,13.601246 34.038,13.620246 L34.014,13.636246 C33.979,13.660246 33.943,13.684246 33.909,13.709246 C33.897,13.716246 33.886,13.725246 33.875,13.732246 C33.846,13.752246 33.819,13.773246 33.791,13.793246 C33.782,13.799246 33.774,13.806246 33.765,13.812246 C33.73,13.838246 33.696,13.864246 33.661,13.891246 C33.652,13.898246 33.642,13.906246 33.633,13.913246 C33.605,13.935246 33.577,13.958246 33.549,13.980246 C33.541,13.987246 33.532,13.994246 33.523,14.001246 C33.489,14.030246 33.455,14.058246 33.422,14.088246 L33.4,14.107246 C33.372,14.131246 33.344,14.156246 33.316,14.181246 L33.29,14.204246 C33.257,14.235246 33.224,14.265246 33.191,14.297246 L33.175,14.313246 C33.147,14.340246 33.118,14.368246 33.09,14.396246 L33.066,14.420246 C33.034,14.453246 33.002,14.486246 32.97,14.520246 L32.961,14.530246 C32.932,14.560246 32.904,14.592246 32.875,14.623246 L32.851,14.650246 C32.82,14.685246 32.789,14.720246 32.759,14.756246 L20.15,29.599246 C19.529,30.330246 18.424,30.420246 17.694,29.799246 C16.964,29.179246 16.874,28.075246 17.493,27.345246 L32.153,10.087246 C34.335,7.519246 34.019,3.632246 31.45,1.450246 C28.882,-0.730753999 24.996,-0.414753999 22.814,2.153246 L0.519,28.399246 C0.507,28.413246 0.495,28.428246 0.483,28.442246 C0.472,28.457246 0.46,28.471246 0.449,28.486246 C0.437,28.501246 0.426,28.516246 0.415,28.531246 C0.404,28.546246 0.394,28.561246 0.383,28.576246 C0.373,28.591246 0.362,28.607246 0.353,28.622246 C0.343,28.638246 0.333,28.653246 0.323,28.668246 C0.313,28.684246 0.304,28.700246 0.295,28.716246 C0.286,28.731246 0.277,28.747246 0.268,28.763246 C0.259,28.779246 0.251,28.795246 0.243,28.811246 C0.234,28.827246 0.226,28.844246 0.218,28.860246 C0.211,28.876246 0.203,28.892246 0.196,28.909246 C0.188,28.925246 0.181,28.942246 0.174,28.958246 C0.167,28.975246 0.16,28.991246 0.153,29.008246 C0.147,29.024246 0.141,29.041246 0.134,29.058246 C0.128,29.075246 0.122,29.092246 0.116,29.109246 C0.111,29.125246 0.105,29.142246 0.1,29.159246 C0.095,29.176246 0.089,29.193246 0.085,29.210246 C0.08,29.227246 0.075,29.245246 0.07,29.262246 C0.057,29.313246 0.046,29.365246 0.036,29.417246 C0.033,29.435246 0.03,29.452246 0.027,29.470246 C0.025,29.487246 0.022,29.504246 0.02,29.522246 C0.017,29.540246 0.015,29.557246 0.013,29.574246 C0.012,29.592246 0.01,29.610246 0.008,29.627246 C0.007,29.644246 0.006,29.662246 0.004,29.680246 C0.003,29.697246 0.002,29.715246 0.002,29.732246 C0.001,29.750246 0.001,29.767246 7.10542736e-15,29.785246 C7.10542736e-15,29.803246 7.10542736e-15,29.820246 7.10542736e-15,29.838246 C7.10542736e-15,29.855246 0.001,29.873246 0.002,29.890246 L0.001,29.890246 C0.002,29.908246 0.003,29.926246 0.004,29.943246 C0.005,29.961246 0.006,29.978246 0.008,29.996246 C0.009,30.013246 0.011,30.031246 0.012,30.048246 C0.014,30.066246 0.016,30.083246 0.019,30.101246 C0.021,30.118246 0.023,30.135246 0.026,30.153246 C0.029,30.170246 0.031,30.187246 0.034,30.205246 C0.038,30.222246 0.041,30.239246 0.044,30.256246 C0.048,30.274246 0.052,30.291246 0.055,30.308246 C0.059,30.325246 0.063,30.342246 0.068,30.359246 C0.072,30.376246 0.077,30.393246 0.081,30.410246 C0.086,30.427246 0.091,30.444246 0.096,30.461246 C0.101,30.478246 0.107,30.495246 0.112,30.512246 C0.118,30.528246 0.124,30.545246 0.129,30.562246 C0.135,30.578246 0.142,30.595246 0.148,30.611246 C0.154,30.628246 0.161,30.644246 0.167,30.661246 C0.174,30.677246 0.181,30.694246 0.188,30.710246 C0.196,30.726246 0.203,30.742246 0.211,30.758246 C0.218,30.774246 0.226,30.790246 0.234,30.806246 C0.242,30.822246 0.25,30.838246 0.258,30.853246 C0.267,30.869246 0.275,30.885246 0.284,30.900246 C0.293,30.916246 0.302,30.931246 0.311,30.947246 C0.32,30.962246 0.33,30.978246 0.339,30.993246 C0.349,31.008246 0.359,31.023246 0.369,31.038246 C0.379,31.053246 0.389,31.068246 0.399,31.082246 C0.41,31.097246 0.42,31.112246 0.431,31.126246 C0.442,31.141246 0.453,31.156246 0.464,31.170246 C0.475,31.184246 0.487,31.198246 0.498,31.212246 C0.51,31.226246 0.521,31.240246 0.534,31.254246 C0.546,31.268246 0.558,31.282246 0.57,31.295246 C0.582,31.309246 0.595,31.323246 0.608,31.336246 C0.621,31.349246 0.634,31.362246 0.647,31.375246 C0.66,31.388246 0.673,31.401246 0.687,31.414246 C0.701,31.427246 0.714,31.440246 0.728,31.452246 C0.742,31.465246 0.756,31.477246 0.771,31.489246 L28.545,55.082246 C31.114,57.264246 35,56.948246 37.182,54.379246 C39.364,51.811246 39.047,47.924246 36.479,45.743246 L26.136,36.957246 C25.217,36.176246 23.826,36.289246 23.045,37.208246 C22.265,38.127246 22.378,39.518246 23.297,40.299246 L32.977,48.522246 C33.707,49.142246 33.797,50.247246 33.177,50.977246 C32.557,51.707246 31.453,51.798246 30.723,51.178246 L5.281,29.566246 L25.593,5.655246 C26.213,4.925246 27.318,4.835246 28.048,5.455246 C28.779,6.075246 28.869,7.180246 28.248,7.911246" id="Fill-2" fill="#21AFD9"></path>
                <path d="M12.146,29.398246 C12.218,31.045246 12.945,32.659246 14.292,33.804246 C16.861,35.986246 20.747,35.669246 22.929,33.101246 L35.538,18.257246 C36.158,17.527246 37.263,17.437246 37.994,18.058246 C38.723,18.678246 38.814,19.782246 38.195,20.512246 L37.457,21.380246 C37.629,21.792246 37.957,22.472246 38.671,23.072246 C39.263,23.570246 40.12,24.012246 41.059,23.912246 L42.098,22.690246 C44.28,20.121246 43.964,16.235246 41.395,14.053246 C40.527,13.315246 39.508,12.864246 38.455,12.688246 L38.45,12.687246 C38.417,12.681246 38.385,12.676246 38.353,12.671246 L38.347,12.671246 C38.25,12.656246 38.153,12.644246 38.056,12.634246 L38.042,12.633246 C37.947,12.623246 37.852,12.616246 37.757,12.612246 L37.739,12.610246 C37.646,12.606246 37.552,12.603246 37.459,12.603246 L37.435,12.603246 C37.344,12.603246 37.253,12.605246 37.161,12.609246 L37.134,12.610246 C37.044,12.615246 36.955,12.621246 36.865,12.629246 L36.833,12.632246 C36.806,12.635246 36.778,12.638246 36.75,12.641246 L36.722,12.644246 C36.673,12.650246 36.624,12.656246 36.574,12.663246 C36.561,12.665246 36.548,12.667246 36.534,12.669246 C36.508,12.673246 36.482,12.677246 36.455,12.681246 C36.443,12.683246 36.43,12.685246 36.417,12.687246 C36.372,12.695246 36.327,12.703246 36.281,12.711246 C36.267,12.714246 36.253,12.717246 36.239,12.720246 C36.214,12.724246 36.189,12.730246 36.165,12.735246 C36.149,12.738246 36.133,12.741246 36.117,12.745246 C36.076,12.754246 36.035,12.763246 35.993,12.773246 C35.978,12.777246 35.962,12.780246 35.946,12.785246 C35.922,12.790246 35.9,12.796246 35.876,12.802246 C35.858,12.807246 35.84,12.812246 35.822,12.817246 C35.791,12.825246 35.76,12.834246 35.728,12.843246 C35.703,12.849246 35.679,12.857246 35.654,12.864246 C35.634,12.870246 35.613,12.877246 35.593,12.883246 C35.572,12.889246 35.552,12.896246 35.532,12.903246 C35.512,12.909246 35.492,12.915246 35.472,12.922246 C35.438,12.934246 35.404,12.945246 35.369,12.957246 C35.35,12.964246 35.331,12.971246 35.312,12.978246 C35.29,12.986246 35.269,12.994246 35.247,13.002246 C35.229,13.009246 35.21,13.016246 35.192,13.023246 C35.157,13.037246 35.122,13.051246 35.087,13.065246 C35.071,13.072246 35.055,13.078246 35.038,13.085246 C35.014,13.095246 34.991,13.105246 34.967,13.116246 C34.95,13.123246 34.934,13.130246 34.918,13.137246 C34.882,13.154246 34.846,13.169246 34.811,13.186246 C34.798,13.192246 34.785,13.199246 34.772,13.205246 C34.745,13.218246 34.719,13.231246 34.692,13.243246 C34.678,13.251246 34.662,13.258246 34.648,13.266246 C34.615,13.283246 34.582,13.300246 34.549,13.317246 L34.514,13.335246 C34.484,13.352246 34.454,13.368246 34.424,13.385246 L34.384,13.408246 C34.354,13.425246 34.323,13.442246 34.293,13.461246 L34.265,13.477246 C34.231,13.497246 34.197,13.519246 34.163,13.540246 C34.15,13.548246 34.138,13.556246 34.125,13.564246 C34.096,13.582246 34.067,13.601246 34.038,13.620246 L34.014,13.636246 C33.979,13.660246 33.944,13.684246 33.909,13.708246 C33.897,13.717246 33.886,13.725246 33.875,13.732246 C33.846,13.753246 33.818,13.773246 33.791,13.793246 C33.782,13.800246 33.773,13.806246 33.765,13.812246 C33.73,13.838246 33.695,13.864246 33.661,13.891246 C33.652,13.898246 33.643,13.906246 33.633,13.913246 C33.605,13.935246 33.577,13.957246 33.549,13.980246 C33.541,13.987246 33.532,13.994246 33.523,14.001246 C33.489,14.030246 33.455,14.058246 33.422,14.088246 L33.4,14.107246 C33.372,14.131246 33.344,14.156246 33.316,14.181246 L33.29,14.204246 C33.257,14.235246 33.224,14.266246 33.191,14.297246 L33.175,14.313246 C33.147,14.340246 33.118,14.368246 33.09,14.395246 L33.066,14.420246 C33.034,14.453246 33.002,14.486246 32.97,14.520246 L32.961,14.530246 C32.932,14.560246 32.903,14.592246 32.875,14.623246 L32.851,14.650246 C32.82,14.685246 32.789,14.720246 32.759,14.756246 L20.15,29.599246 C19.529,30.330246 18.424,30.420246 17.694,29.799246 C17.176,29.360246 16.981,28.676246 17.131,28.056246 C16.477,28.163246 15.813,28.221246 15.155,28.329246 C14.021,28.517246 12.901,28.857246 12.146,29.398246" id="Fill-3" fill="#76337F"></path>
                <path d="M28.248,7.911246 L13.589,25.167246 C12.098,26.923246 11.774,29.294246 12.539,31.316246 C13.276,31.758246 14.237,32.070246 15.262,31.830246 C16.163,31.619246 17.113,30.982246 18.088,30.051246 C17.949,29.987246 17.816,29.903246 17.694,29.799246 C16.964,29.179246 16.874,28.075246 17.493,27.345246 L32.153,10.087246 C34.335,7.519246 34.018,3.632246 31.45,1.450246 C28.882,-0.731753999 24.996,-0.414753999 22.814,2.153246 L14.999,11.353246 C15.177,11.730246 15.365,12.078246 15.556,12.387246 C16.357,13.678246 17.218,14.302246 17.464,15.224246 L25.593,5.655246 C26.213,4.925246 27.318,4.835246 28.048,5.455246 C28.779,6.075246 28.869,7.180246 28.248,7.911246" id="Fill-4" fill="#4E4C8D"></path>
                <path d="M15.408,10.872246 L0.519,28.399246 C0.507,28.413246 0.495,28.427246 0.483,28.442246 C0.472,28.456246 0.46,28.471246 0.448,28.486246 C0.437,28.501246 0.426,28.516246 0.415,28.531246 C0.404,28.546246 0.394,28.561246 0.383,28.576246 C0.373,28.591246 0.363,28.607246 0.353,28.622246 C0.343,28.638246 0.333,28.653246 0.323,28.668246 C0.314,28.684246 0.304,28.700246 0.295,28.716246 C0.286,28.731246 0.277,28.748246 0.268,28.763246 C0.259,28.779246 0.251,28.795246 0.243,28.811246 C0.234,28.827246 0.226,28.843246 0.218,28.860246 C0.211,28.876246 0.203,28.892246 0.196,28.909246 C0.188,28.925246 0.181,28.941246 0.174,28.958246 C0.167,28.975246 0.16,28.991246 0.153,29.008246 C0.147,29.024246 0.141,29.041246 0.134,29.058246 C0.128,29.075246 0.122,29.092246 0.116,29.108246 C0.111,29.126246 0.105,29.142246 0.1,29.159246 L0.1,29.160246 C0.095,29.176246 0.089,29.193246 0.085,29.210246 C0.08,29.228246 0.075,29.244246 0.071,29.262246 C0.057,29.313246 0.046,29.365246 0.036,29.417246 C0.033,29.435246 0.03,29.452246 0.027,29.470246 C0.025,29.487246 0.022,29.504246 0.02,29.522246 C0.017,29.540246 0.015,29.557246 0.014,29.574246 C0.011,29.592246 0.01,29.610246 0.008,29.627246 C0.007,29.644246 0.005,29.662246 0.004,29.680246 C0.003,29.697246 0.002,29.715246 0.002,29.732246 C0.001,29.750246 0.001,29.767246 0,29.785246 C0,29.803246 0,29.820246 0,29.838246 C0,29.855246 0.001,29.873246 0.002,29.890246 C0.002,29.908246 0.003,29.926246 0.004,29.943246 C0.005,29.960246 0.006,29.978246 0.008,29.996246 C0.009,30.013246 0.01,30.031246 0.012,30.048246 C0.014,30.066246 0.016,30.083246 0.019,30.101246 C0.021,30.118246 0.023,30.135246 0.026,30.152246 C0.029,30.170246 0.032,30.188246 0.034,30.205246 C0.038,30.222246 0.041,30.239246 0.044,30.256246 C0.048,30.274246 0.052,30.291246 0.055,30.308246 C0.059,30.325246 0.064,30.342246 0.068,30.359246 C0.072,30.377246 0.077,30.393246 0.081,30.410246 C0.086,30.427246 0.091,30.444246 0.096,30.461246 C0.101,30.478246 0.107,30.495246 0.112,30.512246 C0.118,30.529246 0.124,30.545246 0.129,30.562246 C0.135,30.578246 0.142,30.595246 0.148,30.611246 C0.154,30.628246 0.161,30.644246 0.167,30.661246 C0.175,30.677246 0.181,30.694246 0.188,30.710246 C0.196,30.726246 0.203,30.742246 0.211,30.758246 C0.218,30.774246 0.226,30.790246 0.234,30.806246 C0.242,30.822246 0.25,30.838246 0.258,30.854246 C0.267,30.869246 0.275,30.885246 0.284,30.900246 C0.293,30.916246 0.302,30.931246 0.311,30.947246 C0.32,30.962246 0.33,30.978246 0.34,30.993246 C0.349,31.008246 0.359,31.023246 0.369,31.038246 C0.379,31.053246 0.389,31.068246 0.399,31.083246 C0.41,31.097246 0.42,31.112246 0.431,31.127246 C0.442,31.141246 0.453,31.155246 0.464,31.170246 C0.475,31.184246 0.487,31.198246 0.498,31.213246 C0.51,31.226246 0.521,31.241246 0.534,31.254246 C0.546,31.268246 0.558,31.282246 0.57,31.295246 C0.582,31.309246 0.595,31.323246 0.608,31.336246 C0.621,31.349246 0.634,31.362246 0.647,31.376246 C0.66,31.388246 0.673,31.401246 0.687,31.414246 C0.701,31.427246 0.714,31.439246 0.728,31.452246 C0.742,31.465246 0.756,31.477246 0.771,31.489246 L22.012,49.533246 C22.585,49.207246 22.999,48.808246 23.321,48.445246 C24.215,47.436246 24.4,46.700246 24.213,45.792246 C24.201,45.733246 24.187,45.674246 24.172,45.614246 L5.281,29.566246 L18.895,13.539246 C18.698,12.656246 18.074,11.944246 17.241,11.457246 C16.746,11.167246 16.178,10.957246 15.408,10.872246" id="Fill-5" fill="#B01E7B"></path>
                <path d="M55.336,13.234246 C56.041,13.234246 56.647,13.286246 57.154,13.389246 C57.661,13.492246 58.017,13.586246 58.224,13.672246 L57.785,15.735246 C57.579,15.632246 57.287,15.532246 56.909,15.438246 C56.531,15.344246 56.067,15.296246 55.517,15.296246 C54.4,15.296246 53.618,15.601246 53.171,16.211246 C52.724,16.822246 52.501,17.642246 52.501,18.673246 L52.501,19.833246 L57.656,19.833246 L57.656,21.844246 L52.501,21.844246 L52.501,33.237246 L50.104,33.237246 L50.104,18.622246 C50.104,16.903246 50.525,15.576246 51.367,14.639246 C52.209,13.703246 53.532,13.234246 55.336,13.234246 Z M59.306,26.561246 C59.306,25.375246 59.478,24.340246 59.822,23.455246 C60.166,22.570246 60.621,21.835246 61.188,21.251246 C61.756,20.667246 62.408,20.228246 63.148,19.936246 C63.886,19.644246 64.642,19.498246 65.416,19.498246 C67.22,19.498246 68.603,20.061246 69.566,21.186246 C70.528,22.312246 71.009,24.026246 71.009,26.329246 C71.009,26.432246 71.009,26.565246 71.009,26.729246 C71.009,26.892246 71.001,27.042246 70.984,27.180246 L61.807,27.180246 C61.91,28.572246 62.314,29.628246 63.018,30.351246 C63.723,31.072246 64.823,31.433246 66.318,31.433246 C67.16,31.433246 67.869,31.360246 68.444,31.214246 C69.02,31.068246 69.454,30.926246 69.746,30.788246 L70.081,32.799246 C69.789,32.954246 69.278,33.117246 68.547,33.289246 C67.817,33.461246 66.988,33.547246 66.06,33.547246 C64.891,33.547246 63.882,33.371246 63.031,33.018246 C62.18,32.666246 61.48,32.180246 60.93,31.562246 C60.381,30.943246 59.973,30.209246 59.706,29.358246 C59.44,28.507246 59.306,27.575246 59.306,26.561246 Z M68.509,25.246246 C68.526,24.164246 68.256,23.274246 67.697,22.578246 C67.138,21.882246 66.369,21.534246 65.39,21.534246 C64.84,21.534246 64.354,21.642246 63.934,21.857246 C63.512,22.072246 63.156,22.351246 62.864,22.694246 C62.572,23.038246 62.344,23.433246 62.18,23.880246 C62.017,24.327246 61.91,24.782246 61.858,25.246246 L68.509,25.246246 Z M77.582,31.510246 C78.562,31.510246 79.288,31.381246 79.761,31.124246 C80.233,30.866246 80.469,30.453246 80.469,29.887246 C80.469,29.302246 80.237,28.838246 79.773,28.494246 C79.309,28.150246 78.545,27.764246 77.48,27.334246 C76.964,27.128246 76.47,26.917246 75.997,26.703246 C75.524,26.488246 75.116,26.235246 74.773,25.942246 C74.429,25.650246 74.154,25.298246 73.948,24.885246 C73.741,24.473246 73.638,23.966246 73.638,23.364246 C73.638,22.179246 74.077,21.238246 74.953,20.542246 C75.829,19.846246 77.024,19.498246 78.536,19.498246 C78.914,19.498246 79.292,19.520246 79.67,19.562246 C80.049,19.606246 80.4,19.657246 80.727,19.717246 C81.054,19.777246 81.341,19.842246 81.591,19.911246 C81.84,19.979246 82.033,20.040246 82.171,20.091246 L81.733,22.153246 C81.474,22.016246 81.071,21.874246 80.521,21.728246 C79.971,21.582246 79.309,21.508246 78.536,21.508246 C77.866,21.508246 77.282,21.642246 76.783,21.908246 C76.285,22.175246 76.036,22.591246 76.036,23.158246 C76.036,23.451246 76.092,23.708246 76.203,23.932246 C76.315,24.155246 76.487,24.357246 76.719,24.538246 C76.951,24.718246 77.238,24.885246 77.582,25.040246 C77.926,25.195246 78.339,25.358246 78.82,25.530246 C79.455,25.771246 80.022,26.007246 80.521,26.239246 C81.019,26.471246 81.445,26.741246 81.797,27.051246 C82.149,27.360246 82.419,27.734246 82.609,28.172246 C82.798,28.610246 82.893,29.147246 82.893,29.783246 C82.893,31.020246 82.433,31.957246 81.514,32.593246 C80.594,33.229246 79.284,33.547246 77.582,33.547246 C76.397,33.547246 75.469,33.448246 74.799,33.250246 C74.128,33.053246 73.673,32.902246 73.432,32.799246 L73.87,30.737246 C74.146,30.840246 74.583,30.995246 75.185,31.201246 C75.787,31.407246 76.586,31.510246 77.582,31.510246 Z M88.203,19.833246 L93.281,19.833246 L93.281,21.844246 L88.203,21.844246 L88.203,28.030246 C88.203,28.700246 88.254,29.255246 88.358,29.693246 C88.461,30.131246 88.615,30.475246 88.822,30.724246 C89.028,30.973246 89.286,31.149246 89.595,31.252246 C89.904,31.356246 90.265,31.407246 90.678,31.407246 C91.399,31.407246 91.979,31.325246 92.417,31.162246 C92.856,30.999246 93.161,30.883246 93.333,30.814246 L93.797,32.799246 C93.556,32.919246 93.135,33.070246 92.534,33.250246 C91.932,33.430246 91.245,33.521246 90.471,33.521246 C89.56,33.521246 88.808,33.405246 88.216,33.173246 C87.623,32.941246 87.146,32.593246 86.785,32.129246 C86.424,31.665246 86.171,31.093246 86.024,30.415246 C85.879,29.736246 85.806,28.950246 85.806,28.056246 L85.806,16.096246 L88.203,15.683246 L88.203,19.833246 Z M96.323,33.237246 L98.72,33.237246 L98.72,19.833246 L96.323,19.833246 L96.323,33.237246 Z M97.509,17.410246 C97.079,17.410246 96.714,17.269246 96.413,16.985246 C96.112,16.701246 95.962,16.318246 95.962,15.837246 C95.962,15.356246 96.112,14.974246 96.413,14.690246 C96.714,14.407246 97.079,14.265246 97.509,14.265246 C97.938,14.265246 98.303,14.407246 98.604,14.690246 C98.905,14.974246 99.055,15.356246 99.055,15.837246 C99.055,16.318246 98.905,16.701246 98.604,16.985246 C98.303,17.269246 97.938,17.410246 97.509,17.410246 Z M113.31,19.833246 C112.639,22.342246 111.853,24.748246 110.951,27.051246 C110.049,29.354246 109.177,31.416246 108.335,33.237246 L106.17,33.237246 C105.327,31.416246 104.455,29.354246 103.553,27.051246 C102.651,24.748246 101.865,22.342246 101.194,19.833246 L103.772,19.833246 C103.978,20.675246 104.223,21.573246 104.507,22.527246 C104.791,23.481246 105.091,24.426246 105.409,25.362246 C105.727,26.299246 106.049,27.205246 106.375,28.082246 C106.702,28.958246 107.011,29.740246 107.303,30.428246 C107.596,29.740246 107.905,28.958246 108.232,28.082246 C108.558,27.205246 108.881,26.299246 109.198,25.362246 C109.516,24.426246 109.817,23.481246 110.1,22.527246 C110.384,21.573246 110.629,20.675246 110.835,19.833246 L113.31,19.833246 Z M120.321,31.510246 C120.888,31.510246 121.391,31.498246 121.829,31.471246 C122.267,31.446246 122.632,31.398246 122.925,31.330246 L122.925,27.334246 C122.753,27.249246 122.473,27.175246 122.087,27.115246 C121.7,27.055246 121.232,27.025246 120.682,27.025246 C120.321,27.025246 119.938,27.051246 119.535,27.102246 C119.131,27.154246 118.761,27.261246 118.427,27.425246 C118.091,27.588246 117.812,27.811246 117.589,28.095246 C117.365,28.378246 117.254,28.752246 117.254,29.216246 C117.254,30.075246 117.528,30.673246 118.078,31.007246 C118.628,31.343246 119.376,31.510246 120.321,31.510246 Z M120.115,19.498246 C121.077,19.498246 121.889,19.623246 122.551,19.872246 C123.213,20.121246 123.745,20.473246 124.149,20.929246 C124.553,21.384246 124.841,21.925246 125.012,22.553246 C125.184,23.180246 125.27,23.872246 125.27,24.628246 L125.27,33.005246 C125.064,33.039246 124.776,33.087246 124.407,33.147246 C124.037,33.207246 123.621,33.263246 123.156,33.315246 C122.692,33.366246 122.19,33.413246 121.648,33.456246 C121.107,33.499246 120.57,33.521246 120.038,33.521246 C119.281,33.521246 118.585,33.444246 117.95,33.289246 C117.313,33.134246 116.763,32.890246 116.299,32.554246 C115.835,32.219246 115.475,31.776246 115.217,31.227246 C114.959,30.677246 114.83,30.015246 114.83,29.242246 C114.83,28.503246 114.981,27.867246 115.282,27.334246 C115.582,26.802246 115.99,26.372246 116.506,26.045246 C117.022,25.719246 117.623,25.478246 118.31,25.324246 C118.997,25.169246 119.719,25.092246 120.475,25.092246 C120.716,25.092246 120.966,25.105246 121.223,25.130246 C121.481,25.156246 121.726,25.190246 121.957,25.234246 C122.19,25.276246 122.392,25.315246 122.563,25.349246 C122.735,25.384246 122.856,25.410246 122.925,25.427246 L122.925,24.756246 C122.925,24.361246 122.881,23.970246 122.795,23.584246 C122.709,23.197246 122.555,22.853246 122.331,22.553246 C122.108,22.252246 121.803,22.011246 121.416,21.831246 C121.03,21.650246 120.527,21.560246 119.909,21.560246 C119.118,21.560246 118.427,21.616246 117.833,21.728246 C117.24,21.840246 116.798,21.955246 116.506,22.076246 L116.222,20.091246 C116.532,19.953246 117.047,19.820246 117.769,19.691246 C118.491,19.562246 119.273,19.498246 120.115,19.498246 Z M133.261,33.495246 C131.783,33.461246 130.735,33.143246 130.116,32.541246 C129.498,31.940246 129.188,31.003246 129.188,29.732246 L129.188,13.647246 L131.586,13.234246 L131.586,29.345246 C131.586,29.740246 131.62,30.067246 131.688,30.324246 C131.757,30.582246 131.869,30.788246 132.024,30.943246 C132.179,31.097246 132.385,31.214246 132.643,31.291246 C132.9,31.368246 133.218,31.433246 133.596,31.484246 L133.261,33.495246 Z M144.707,26.561246 C144.707,25.375246 144.44,24.426246 143.907,23.713246 C143.374,23.000246 142.584,22.643246 141.536,22.643246 C141.192,22.643246 140.874,22.656246 140.582,22.682246 C140.289,22.707246 140.049,22.737246 139.86,22.772246 L139.86,29.706246 C140.101,29.860246 140.414,29.989246 140.801,30.092246 C141.188,30.196246 141.579,30.247246 141.974,30.247246 C143.796,30.247246 144.707,29.018246 144.707,26.561246 Z M148.624,26.458246 C148.624,27.506246 148.495,28.460246 148.238,29.319246 C147.98,30.178246 147.602,30.917246 147.104,31.536246 C146.605,32.155246 145.986,32.636246 145.248,32.980246 C144.509,33.323246 143.658,33.495246 142.696,33.495246 C142.163,33.495246 141.664,33.444246 141.2,33.340246 C140.736,33.237246 140.289,33.091246 139.86,32.902246 L139.86,38.006246 L136.019,38.006246 L136.019,20.143246 C136.363,20.040246 136.759,19.940246 137.205,19.846246 C137.652,19.752246 138.12,19.670246 138.61,19.601246 C139.1,19.532246 139.598,19.477246 140.105,19.434246 C140.612,19.391246 141.098,19.369246 141.562,19.369246 C142.678,19.369246 143.675,19.537246 144.552,19.872246 C145.428,20.207246 146.167,20.680246 146.768,21.290246 C147.37,21.900246 147.83,22.643246 148.148,23.519246 C148.465,24.396246 148.624,25.375246 148.624,26.458246 Z M156.77,30.556246 C157.148,30.556246 157.509,30.548246 157.852,30.531246 C158.196,30.514246 158.471,30.487246 158.677,30.453246 L158.677,27.540246 C158.523,27.506246 158.291,27.472246 157.982,27.437246 C157.672,27.403246 157.388,27.385246 157.131,27.385246 C156.77,27.385246 156.43,27.408246 156.113,27.450246 C155.795,27.494246 155.515,27.575246 155.275,27.695246 C155.034,27.815246 154.845,27.979246 154.708,28.185246 C154.57,28.391246 154.501,28.649246 154.501,28.958246 C154.501,29.559246 154.704,29.977246 155.107,30.209246 C155.511,30.440246 156.065,30.556246 156.77,30.556246 Z M156.46,19.318246 C157.595,19.318246 158.54,19.447246 159.296,19.704246 C160.052,19.962246 160.658,20.331246 161.113,20.813246 C161.568,21.294246 161.891,21.878246 162.08,22.565246 C162.269,23.253246 162.364,24.018246 162.364,24.860246 L162.364,32.851246 C161.813,32.971246 161.049,33.112246 160.07,33.276246 C159.09,33.439246 157.904,33.521246 156.512,33.521246 C155.636,33.521246 154.841,33.444246 154.128,33.289246 C153.415,33.134246 152.8,32.880246 152.284,32.528246 C151.769,32.176246 151.374,31.716246 151.099,31.149246 C150.824,30.582246 150.687,29.887246 150.687,29.061246 C150.687,28.271246 150.846,27.601246 151.163,27.051246 C151.481,26.501246 151.906,26.063246 152.439,25.736246 C152.972,25.410246 153.582,25.173246 154.27,25.027246 C154.957,24.881246 155.67,24.808246 156.409,24.808246 C156.907,24.808246 157.35,24.830246 157.737,24.873246 C158.123,24.915246 158.437,24.971246 158.677,25.040246 L158.677,24.679246 C158.677,24.026246 158.48,23.502246 158.084,23.107246 C157.689,22.711246 157.002,22.514246 156.023,22.514246 C155.369,22.514246 154.725,22.561246 154.089,22.656246 C153.453,22.751246 152.903,22.883246 152.439,23.055246 L151.95,19.962246 C152.173,19.894246 152.452,19.820246 152.787,19.743246 C153.122,19.666246 153.488,19.597246 153.883,19.537246 C154.278,19.477246 154.694,19.425246 155.133,19.382246 C155.572,19.339246 156.013,19.318246 156.46,19.318246 Z M169.736,30.479246 C170.44,30.479246 170.938,30.410246 171.231,30.273246 C171.523,30.135246 171.669,29.869246 171.669,29.473246 C171.669,29.164246 171.48,28.894246 171.102,28.662246 C170.724,28.430246 170.148,28.168246 169.375,27.876246 C168.773,27.652246 168.228,27.420246 167.738,27.180246 C167.248,26.939246 166.831,26.651246 166.488,26.316246 C166.144,25.981246 165.878,25.582246 165.688,25.118246 C165.5,24.653246 165.405,24.095246 165.405,23.442246 C165.405,22.170246 165.878,21.165246 166.823,20.426246 C167.768,19.687246 169.066,19.318246 170.715,19.318246 C171.54,19.318246 172.331,19.391246 173.087,19.537246 C173.843,19.683246 174.444,19.842246 174.891,20.013246 L174.221,23.004246 C173.774,22.849246 173.288,22.711246 172.765,22.591246 C172.24,22.471246 171.652,22.411246 170.999,22.411246 C169.795,22.411246 169.195,22.746246 169.195,23.416246 C169.195,23.571246 169.22,23.708246 169.272,23.828246 C169.323,23.949246 169.427,24.065246 169.581,24.177246 C169.736,24.288246 169.946,24.409246 170.213,24.538246 C170.479,24.670246 170.818,24.812246 171.231,24.967246 C172.073,25.280246 172.769,25.586246 173.319,25.891246 C173.869,26.192246 174.303,26.522246 174.621,26.870246 C174.938,27.223246 175.162,27.613246 175.29,28.043246 C175.419,28.473246 175.484,28.967246 175.484,29.534246 C175.484,30.870246 174.981,31.884246 173.976,32.571246 C172.971,33.254246 171.549,33.598246 169.71,33.598246 C168.507,33.598246 167.506,33.495246 166.707,33.289246 C165.908,33.083246 165.354,32.911246 165.044,32.773246 L165.688,29.654246 C166.342,29.912246 167.012,30.114246 167.699,30.260246 C168.387,30.406246 169.066,30.479246 169.736,30.479246 Z M182.238,30.479246 C182.943,30.479246 183.441,30.410246 183.733,30.273246 C184.025,30.135246 184.171,29.869246 184.171,29.473246 C184.171,29.164246 183.982,28.894246 183.604,28.662246 C183.226,28.430246 182.65,28.168246 181.877,27.876246 C181.276,27.652246 180.73,27.420246 180.24,27.180246 C179.75,26.939246 179.333,26.651246 178.99,26.316246 C178.646,25.981246 178.38,25.582246 178.191,25.118246 C178.002,24.653246 177.907,24.095246 177.907,23.442246 C177.907,22.170246 178.38,21.165246 179.325,20.426246 C180.27,19.687246 181.568,19.318246 183.217,19.318246 C184.042,19.318246 184.833,19.391246 185.589,19.537246 C186.345,19.683246 186.946,19.842246 187.393,20.013246 L186.723,23.004246 C186.276,22.849246 185.791,22.711246 185.267,22.591246 C184.743,22.471246 184.154,22.411246 183.501,22.411246 C182.298,22.411246 181.697,22.746246 181.697,23.416246 C181.697,23.571246 181.722,23.708246 181.774,23.828246 C181.825,23.949246 181.929,24.065246 182.083,24.177246 C182.238,24.288246 182.448,24.409246 182.715,24.538246 C182.981,24.670246 183.321,24.812246 183.733,24.967246 C184.575,25.280246 185.271,25.586246 185.821,25.891246 C186.371,26.192246 186.805,26.522246 187.123,26.870246 C187.441,27.223246 187.664,27.613246 187.793,28.043246 C187.922,28.473246 187.986,28.967246 187.986,29.534246 C187.986,30.870246 187.483,31.884246 186.478,32.571246 C185.473,33.254246 184.051,33.598246 182.212,33.598246 C181.009,33.598246 180.008,33.495246 179.209,33.289246 C178.41,33.083246 177.856,32.911246 177.547,32.773246 L178.191,29.654246 C178.844,29.912246 179.514,30.114246 180.201,30.260246 C180.889,30.406246 181.568,30.479246 182.238,30.479246 L182.238,30.479246 Z" id="Fill-6" fill="#FFFFFF"></path>
                <path d="M72.845,42.585246 C73.634,42.585246 74.273,43.225246 74.273,44.013246 C74.273,44.802246 73.634,45.441246 72.845,45.441246 C72.057,45.441246 71.418,44.802246 71.418,44.013246 C71.418,43.225246 72.057,42.585246 72.845,42.585246 Z M117.678,47.668246 C116.981,47.652246 116.487,47.502246 116.196,47.219246 C115.904,46.936246 115.759,46.494246 115.759,45.895246 L115.759,38.316246 L116.888,38.121246 L116.888,45.713246 C116.888,45.899246 116.904,46.053246 116.937,46.174246 C116.969,46.296246 117.022,46.393246 117.095,46.466246 C117.168,46.539246 117.265,46.593246 117.386,46.630246 C117.508,46.666246 117.658,46.697246 117.836,46.721246 L117.678,47.668246 Z M119.099,47.547246 L120.229,47.547246 L120.229,41.231246 L119.099,41.231246 L119.099,47.547246 Z M119.658,40.089246 C119.455,40.089246 119.283,40.022246 119.141,39.889246 C119,39.755246 118.929,39.575246 118.929,39.348246 C118.929,39.121246 119,38.941246 119.141,38.807246 C119.283,38.674246 119.455,38.607246 119.658,38.607246 C119.86,38.607246 120.032,38.674246 120.174,38.807246 C120.316,38.941246 120.386,39.121246 120.386,39.348246 C120.386,39.575246 120.316,39.755246 120.174,39.889246 C120.032,40.022246 119.86,40.089246 119.658,40.089246 Z M127.103,41.231246 C126.787,42.413246 126.417,43.547246 125.992,44.632246 C125.567,45.717246 125.156,46.689246 124.759,47.547246 L123.739,47.547246 C123.342,46.689246 122.931,45.717246 122.506,44.632246 C122.081,43.547246 121.71,42.413246 121.394,41.231246 L122.609,41.231246 C122.706,41.628246 122.822,42.051246 122.955,42.500246 C123.089,42.949246 123.231,43.395246 123.38,43.836246 C123.53,44.277246 123.682,44.705246 123.836,45.118246 C123.99,45.531246 124.136,45.899246 124.273,46.223246 C124.411,45.899246 124.556,45.531246 124.71,45.118246 C124.864,44.705246 125.016,44.277246 125.166,43.836246 C125.316,43.395246 125.458,42.949246 125.591,42.500246 C125.725,42.051246 125.84,41.628246 125.937,41.231246 L127.103,41.231246 Z M127.747,44.401246 C127.747,43.842246 127.828,43.354246 127.99,42.938246 C128.152,42.520246 128.367,42.174246 128.634,41.899246 C128.901,41.624246 129.209,41.417246 129.557,41.279246 C129.905,41.141246 130.262,41.073246 130.626,41.073246 C131.476,41.073246 132.128,41.338246 132.582,41.868246 C133.035,42.399246 133.262,43.206246 133.262,44.292246 C133.262,44.340246 133.262,44.403246 133.262,44.480246 C133.262,44.557246 133.258,44.628246 133.25,44.693246 L128.925,44.693246 C128.974,45.348246 129.165,45.846246 129.496,46.187246 C129.828,46.527246 130.347,46.697246 131.051,46.697246 C131.448,46.697246 131.782,46.662246 132.053,46.593246 C132.324,46.525246 132.529,46.458246 132.667,46.393246 L132.825,47.340246 C132.687,47.413246 132.446,47.490246 132.102,47.571246 C131.758,47.652246 131.367,47.693246 130.93,47.693246 C130.379,47.693246 129.903,47.610246 129.502,47.444246 C129.102,47.278246 128.772,47.049246 128.513,46.757246 C128.253,46.466246 128.061,46.120246 127.935,45.719246 C127.81,45.318246 127.747,44.879246 127.747,44.401246 Z M132.084,43.782246 C132.092,43.271246 131.964,42.852246 131.701,42.524246 C131.438,42.196246 131.075,42.032246 130.614,42.032246 C130.355,42.032246 130.126,42.083246 129.928,42.184246 C129.729,42.286246 129.561,42.417246 129.424,42.579246 C129.286,42.741246 129.178,42.927246 129.102,43.138246 C129.025,43.348246 128.974,43.563246 128.95,43.782246 L132.084,43.782246 Z M81.553,47.668246 C80.856,47.652246 80.363,47.502246 80.071,47.219246 C79.78,46.935246 79.634,46.494246 79.634,45.895246 L79.634,38.315246 L80.763,38.121246 L80.763,45.713246 C80.763,45.899246 80.78,46.052246 80.812,46.174246 C80.845,46.296246 80.897,46.393246 80.97,46.465246 C81.043,46.538246 81.14,46.593246 81.262,46.630246 C81.383,46.666246 81.533,46.696246 81.711,46.721246 L81.553,47.668246 Z M82.975,47.546246 L84.105,47.546246 L84.105,41.230246 L82.975,41.230246 L82.975,47.546246 Z M83.533,40.089246 C83.331,40.089246 83.158,40.022246 83.017,39.888246 C82.875,39.754246 82.804,39.574246 82.804,39.348246 C82.804,39.121246 82.875,38.941246 83.017,38.807246 C83.158,38.674246 83.331,38.607246 83.533,38.607246 C83.736,38.607246 83.907,38.674246 84.049,38.807246 C84.191,38.941246 84.262,39.121246 84.262,39.348246 C84.262,39.574246 84.191,39.754246 84.049,39.888246 C83.907,40.022246 83.736,40.089246 83.533,40.089246 Z M90.979,41.230246 C90.663,42.412246 90.292,43.546246 89.867,44.631246 C89.442,45.717246 89.031,46.688246 88.635,47.547246 L87.614,47.547246 C87.217,46.688246 86.806,45.717246 86.381,44.631246 C85.956,43.546246 85.586,42.412246 85.27,41.230246 L86.485,41.230246 C86.582,41.627246 86.697,42.050246 86.831,42.500246 C86.964,42.949246 87.106,43.394246 87.256,43.836246 C87.406,44.277246 87.558,44.704246 87.711,45.117246 C87.865,45.530246 88.011,45.899246 88.149,46.223246 C88.286,45.899246 88.432,45.530246 88.586,45.117246 C88.74,44.704246 88.892,44.277246 89.042,43.836246 C89.191,43.394246 89.333,42.949246 89.466,42.500246 C89.6,42.050246 89.716,41.627246 89.813,41.230246 L90.979,41.230246 Z M91.623,44.401246 C91.623,43.842246 91.704,43.354246 91.866,42.937246 C92.028,42.520246 92.242,42.174246 92.509,41.898246 C92.777,41.623246 93.084,41.417246 93.433,41.279246 C93.781,41.141246 94.137,41.073246 94.501,41.073246 C95.352,41.073246 96.003,41.338246 96.457,41.868246 C96.91,42.399246 97.137,43.206246 97.137,44.291246 C97.137,44.340246 97.137,44.403246 97.137,44.480246 C97.137,44.557246 97.133,44.627246 97.125,44.692246 L92.801,44.692246 C92.85,45.348246 93.04,45.846246 93.372,46.186246 C93.704,46.526246 94.222,46.696246 94.927,46.696246 C95.323,46.696246 95.658,46.662246 95.929,46.593246 C96.2,46.524246 96.404,46.458246 96.542,46.393246 L96.7,47.340246 C96.562,47.413246 96.321,47.490246 95.977,47.571246 C95.633,47.652246 95.242,47.692246 94.805,47.692246 C94.254,47.692246 93.779,47.610246 93.378,47.443246 C92.977,47.277246 92.647,47.049246 92.388,46.757246 C92.129,46.465246 91.937,46.119246 91.811,45.719246 C91.685,45.318246 91.623,44.878246 91.623,44.401246 Z M95.959,43.781246 C95.967,43.271246 95.84,42.852246 95.576,42.524246 C95.313,42.196246 94.951,42.032246 94.489,42.032246 C94.23,42.032246 94.001,42.083246 93.803,42.184246 C93.604,42.285246 93.437,42.416246 93.299,42.579246 C93.161,42.740246 93.054,42.927246 92.977,43.137246 C92.9,43.348246 92.85,43.563246 92.825,43.781246 L95.959,43.781246 Z M102.846,42.566246 C102.708,42.453246 102.51,42.344246 102.251,42.238246 C101.992,42.133246 101.708,42.081246 101.401,42.081246 C101.077,42.081246 100.799,42.140246 100.569,42.257246 C100.338,42.374246 100.15,42.536246 100.004,42.742246 C99.858,42.949246 99.753,43.194246 99.688,43.477246 C99.623,43.761246 99.591,44.065246 99.591,44.388246 C99.591,45.126246 99.773,45.694246 100.137,46.095246 C100.502,46.496246 100.988,46.696246 101.595,46.696246 C101.903,46.696246 102.16,46.682246 102.366,46.654246 C102.573,46.626246 102.733,46.595246 102.846,46.563246 L102.846,42.566246 Z M102.846,38.315246 L103.976,38.121246 L103.976,47.364246 C103.716,47.437246 103.385,47.510246 102.979,47.583246 C102.575,47.656246 102.109,47.692246 101.583,47.692246 C101.097,47.692246 100.66,47.616246 100.271,47.462246 C99.882,47.308246 99.55,47.089246 99.275,46.806246 C99,46.522246 98.787,46.176246 98.637,45.767246 C98.487,45.358246 98.413,44.898246 98.413,44.388246 C98.413,43.903246 98.476,43.457246 98.601,43.053246 C98.726,42.648246 98.911,42.299246 99.153,42.008246 C99.397,41.716246 99.694,41.490246 100.046,41.328246 C100.398,41.166246 100.801,41.085246 101.255,41.085246 C101.619,41.085246 101.941,41.133246 102.22,41.230246 C102.5,41.328246 102.708,41.421246 102.846,41.510246 L102.846,38.315246 Z M52.023,47.665246 C51.326,47.649246 50.832,47.499246 50.541,47.216246 C50.249,46.932246 50.104,46.491246 50.104,45.892246 L50.104,38.312246 L51.233,38.118246 L51.233,45.710246 C51.233,45.896246 51.249,46.050246 51.282,46.171246 C51.314,46.293246 51.367,46.390246 51.44,46.463246 C51.513,46.535246 51.61,46.590246 51.731,46.627246 C51.853,46.663246 52.003,46.694246 52.181,46.718246 L52.023,47.665246 Z M53.444,47.544246 L54.574,47.544246 L54.574,41.228246 L53.444,41.228246 L53.444,47.544246 Z M54.003,40.086246 C53.8,40.086246 53.628,40.019246 53.487,39.885246 C53.345,39.752246 53.274,39.571246 53.274,39.345246 C53.274,39.118246 53.345,38.938246 53.487,38.804246 C53.628,38.671246 53.8,38.604246 54.003,38.604246 C54.205,38.604246 54.377,38.671246 54.519,38.804246 C54.661,38.938246 54.732,39.118246 54.732,39.345246 C54.732,39.571246 54.661,39.752246 54.519,39.885246 C54.377,40.019246 54.205,40.086246 54.003,40.086246 Z M58.983,38.118246 C59.315,38.118246 59.6,38.142246 59.839,38.191246 C60.078,38.240246 60.246,38.284246 60.343,38.324246 L60.137,39.296246 C60.039,39.248246 59.902,39.201246 59.724,39.157246 C59.546,39.112246 59.327,39.090246 59.068,39.090246 C58.541,39.090246 58.173,39.233246 57.962,39.521246 C57.752,39.808246 57.647,40.195246 57.647,40.681246 L57.647,41.228246 L60.076,41.228246 L60.076,42.175246 L57.647,42.175246 L57.647,47.544246 L56.517,47.544246 L56.517,40.657246 C56.517,39.847246 56.715,39.221246 57.112,38.780246 C57.509,38.339246 58.133,38.118246 58.983,38.118246 Z M60.854,44.398246 C60.854,43.839246 60.934,43.351246 61.096,42.934246 C61.258,42.517246 61.473,42.171246 61.74,41.895246 C62.008,41.621246 62.315,41.414246 62.663,41.276246 C63.011,41.138246 63.368,41.070246 63.732,41.070246 C64.582,41.070246 65.234,41.335246 65.688,41.865246 C66.141,42.396246 66.368,43.203246 66.368,44.289246 C66.368,44.337246 66.368,44.400246 66.368,44.477246 C66.368,44.554246 66.364,44.625246 66.356,44.689246 L62.032,44.689246 C62.08,45.345246 62.271,45.843246 62.603,46.183246 C62.934,46.523246 63.453,46.694246 64.157,46.694246 C64.554,46.694246 64.888,46.659246 65.159,46.590246 C65.43,46.521246 65.635,46.454246 65.773,46.390246 L65.931,47.337246 C65.793,47.410246 65.552,47.487246 65.208,47.568246 C64.864,47.649246 64.473,47.689246 64.036,47.689246 C63.485,47.689246 63.009,47.607246 62.608,47.440246 C62.208,47.274246 61.878,47.046246 61.619,46.754246 C61.36,46.463246 61.167,46.117246 61.042,45.716246 C60.916,45.315246 60.854,44.876246 60.854,44.398246 Z M65.19,43.779246 C65.198,43.268246 65.07,42.849246 64.807,42.521246 C64.544,42.193246 64.181,42.029246 63.72,42.029246 C63.461,42.029246 63.232,42.080246 63.034,42.181246 C62.835,42.282246 62.667,42.414246 62.53,42.576246 C62.392,42.738246 62.285,42.924246 62.208,43.134246 C62.131,43.345246 62.08,43.560246 62.056,43.779246 L65.19,43.779246 Z M110.085,42.585246 C110.873,42.585246 111.513,43.225246 111.513,44.013246 C111.513,44.802246 110.873,45.441246 110.085,45.441246 C109.296,45.441246 108.657,44.802246 108.657,44.013246 C108.657,43.225246 109.296,42.585246 110.085,42.585246 L110.085,42.585246 Z" id="Fill-7" fill="#FFFFFF"></path>
            </g>
        </g>
    </g>
</svg>