<svg width="32" height="42" viewBox="0 0 32 42" fill="none" xmlns="http://www.w3.org/2000/svg">
<path fill-rule="evenodd" clip-rule="evenodd" d="M20.7569 6.03971L9.98533 18.5448C8.38198 20.4064 8.61491 23.2224 10.5019 24.8036C12.3889 26.384 15.2451 26.1558 16.8485 24.2934L18.4525 22.4311L20.8039 19.7014L26.1137 13.5383C26.5693 13.0086 27.3812 12.9434 27.9176 13.3926C28.454 13.8426 28.5202 14.6427 28.0653 15.1716L26.3393 17.176L22.2023 21.9782C21.6291 22.6441 21.7114 23.6521 22.3867 24.2181C23.062 24.7833 24.0841 24.7014 24.658 24.0355L28.7943 19.2333L30.934 16.7492C32.5374 14.8883 32.3052 12.0716 30.4175 10.4912C29.7796 9.9564 29.0309 9.62886 28.2571 9.50132L28.2527 9.5006C28.2292 9.49697 28.2057 9.49335 28.1814 9.48973H28.1778C28.1065 9.47886 28.0345 9.46944 27.9632 9.46291L27.9536 9.46219C27.8838 9.45494 27.814 9.44987 27.7435 9.44625L27.731 9.44552C27.6619 9.4419 27.5936 9.44045 27.5252 9.44045H27.5076C27.4407 9.44045 27.3731 9.4419 27.3063 9.4448L27.2864 9.44552C27.2203 9.44842 27.1549 9.4535 27.0888 9.46002L27.0653 9.46146L27.0035 9.46726L26.983 9.47016C26.9469 9.47378 26.9109 9.47886 26.8749 9.48393C26.8654 9.48538 26.8551 9.48683 26.8455 9.48828L26.7875 9.49697C26.7779 9.4977 26.7691 9.49915 26.7596 9.50132C26.7265 9.50639 26.6927 9.51292 26.6596 9.51871L26.628 9.52523C26.6104 9.52813 26.592 9.53176 26.5737 9.53538C26.5619 9.53755 26.5509 9.54045 26.5391 9.54335C26.509 9.54987 26.4789 9.55639 26.4487 9.56291C26.4363 9.56581 26.4245 9.56871 26.4135 9.57161C26.3958 9.57596 26.3789 9.58031 26.362 9.58465L26.3224 9.5948L26.2533 9.61436C26.2357 9.61871 26.2173 9.62379 26.1989 9.62958C26.1835 9.63393 26.1688 9.639 26.1541 9.64335C26.1387 9.6477 26.124 9.65205 26.1093 9.65712C26.0946 9.66219 26.0799 9.66654 26.0644 9.67161C26.0395 9.67958 26.0145 9.68828 25.9895 9.69697C25.9755 9.70205 25.9616 9.70712 25.9476 9.71219C25.9314 9.71726 25.916 9.72379 25.8998 9.72958C25.8859 9.73466 25.8727 9.739 25.8594 9.7448C25.8337 9.75495 25.808 9.76509 25.7823 9.77451C25.7698 9.77958 25.758 9.78466 25.7463 9.78973C25.7286 9.7977 25.711 9.80422 25.6934 9.81219C25.6816 9.81726 25.6698 9.82234 25.6574 9.82813C25.6316 9.839 25.6052 9.85132 25.5787 9.86292C25.5692 9.86726 25.5604 9.87234 25.5501 9.87669C25.531 9.88611 25.5111 9.8948 25.492 9.90422C25.481 9.91002 25.47 9.91582 25.459 9.92016C25.4347 9.93248 25.4105 9.94553 25.3869 9.95712L25.3612 9.97161C25.3392 9.98248 25.3171 9.9948 25.2944 10.0078L25.2657 10.0238C25.2429 10.0361 25.2209 10.0484 25.1988 10.0615L25.1783 10.0738C25.1525 10.089 25.1283 10.1035 25.1033 10.1194C25.0938 10.1252 25.0849 10.131 25.0754 10.1361C25.0541 10.1499 25.0328 10.1636 25.0115 10.1774L24.9938 10.189C24.9674 10.2064 24.9417 10.2231 24.9159 10.2419C24.9079 10.247 24.8998 10.2528 24.891 10.2586C24.8704 10.2731 24.8498 10.2876 24.8292 10.3028C24.8233 10.3071 24.8167 10.3122 24.8109 10.3165C24.7844 10.3354 24.7594 10.3542 24.7344 10.3731C24.7271 10.3789 24.7205 10.3847 24.7139 10.3897C24.6926 10.4057 24.6727 10.4223 24.6521 10.4383L24.633 10.4535C24.608 10.4738 24.5831 10.4948 24.5581 10.5165L24.5419 10.5296C24.5221 10.5477 24.5015 10.5658 24.4809 10.5839L24.4618 10.6006C24.4376 10.6223 24.4133 10.6448 24.3891 10.668L24.3766 10.6789C24.356 10.6992 24.3354 10.7194 24.3149 10.739L24.2972 10.7571C24.2737 10.781 24.2502 10.805 24.2267 10.8289L24.2193 10.8361C24.1988 10.8586 24.1775 10.8818 24.1569 10.9042L24.1392 10.9238C24.1157 10.9492 24.0937 10.9752 24.0716 11.0006L18.3489 17.6441L15.9968 20.3738L14.8057 21.7565C14.3501 22.2854 13.5381 22.3514 13.0017 21.9014C12.4653 21.4528 12.3992 20.6521 12.854 20.1231L23.6263 7.61725C25.2297 5.75565 24.9975 2.93969 23.1098 1.35853C21.2228 -0.222642 18.3673 0.00706926 16.7632 1.86795L10.1859 9.50349L5.57794 14.8528L0.381366 20.8862C0.372549 20.897 0.363731 20.9079 0.354913 20.918C0.346095 20.9289 0.338013 20.9391 0.329195 20.9499C0.321112 20.9608 0.313029 20.9709 0.304946 20.9818C0.296863 20.9934 0.289515 21.0036 0.281432 21.0151C0.274084 21.0267 0.266001 21.0369 0.258653 21.0485C0.251305 21.0601 0.243957 21.0709 0.237344 21.0818C0.229996 21.0927 0.223382 21.105 0.216769 21.1166C0.210156 21.1275 0.203542 21.1391 0.196929 21.1507C0.190316 21.1623 0.183702 21.1738 0.177824 21.1854L0.160189 21.2202C0.15431 21.2325 0.149166 21.2441 0.143288 21.2565C0.137409 21.268 0.133001 21.2796 0.127122 21.292C0.121978 21.3036 0.11757 21.3159 0.112426 21.3282C0.107282 21.3398 0.102873 21.3521 0.0984645 21.3637C0.0940557 21.3767 0.0896468 21.3891 0.085238 21.4007C0.0808291 21.413 0.077155 21.4253 0.073481 21.4376C0.0690721 21.4507 0.0653981 21.4623 0.061724 21.4746C0.0587848 21.4869 0.0551107 21.4999 0.0514367 21.5123C0.0418842 21.5492 0.0338013 21.5869 0.0264532 21.6246C0.0242487 21.6369 0.0220443 21.6499 0.0198399 21.663C0.0176354 21.6753 0.0161658 21.6876 0.0139614 21.6999C0.0124918 21.713 0.0110221 21.7253 0.00955253 21.7383C0.00808291 21.7514 0.0073481 21.7637 0.00587848 21.7767C0.00440886 21.7891 0.00367405 21.8021 0.00293924 21.8152C0.00220443 21.8275 0.00146962 21.8405 0.00073481 21.8528C0.00073481 21.8659 0 21.8782 0 21.8912C0 21.9043 0 21.9166 0 21.9296C0 21.942 0 21.955 0.00073481 21.9673C0.00146962 21.9804 0.00146962 21.9934 0.00293924 22.0057C0.00367405 22.0188 0.00440886 22.0311 0.00514367 22.0441C0.00661329 22.0565 0.0073481 22.0688 0.00881772 22.0818C0.0102873 22.0941 0.011757 22.1072 0.0139614 22.1195C0.0146962 22.1325 0.0169006 22.1456 0.0191051 22.1572C0.0205747 22.1702 0.0227791 22.1825 0.0249835 22.1949C0.0279228 22.2079 0.0301272 22.2202 0.0323316 22.2325C0.0345361 22.2449 0.0374753 22.2579 0.0404145 22.2695C0.0433538 22.2825 0.046293 22.2949 0.0499671 22.3072C0.0529063 22.3195 0.0565804 22.3318 0.0595196 22.3441C0.0631936 22.3572 0.0668677 22.3688 0.0705417 22.3811C0.0742158 22.3934 0.0778899 22.4057 0.0822987 22.4181C0.0867076 22.4296 0.0903816 22.442 0.0947905 22.4536C0.0991993 22.4659 0.104343 22.4782 0.108017 22.4898C0.113161 22.5021 0.118304 22.5137 0.122713 22.526C0.127857 22.5376 0.133001 22.5492 0.138144 22.5615C0.143288 22.5724 0.149166 22.5847 0.15431 22.5963C0.160189 22.6079 0.166067 22.6195 0.171211 22.6311H0.171946C0.177824 22.6427 0.182968 22.6543 0.189581 22.6652C0.196194 22.6768 0.202073 22.6883 0.208686 22.6992C0.215299 22.7108 0.221913 22.7217 0.228526 22.7333C0.235139 22.7441 0.242487 22.755 0.249101 22.7659C0.256449 22.7775 0.263062 22.7876 0.271145 22.7992C0.277758 22.8101 0.285841 22.8202 0.293189 22.8311C0.301272 22.842 0.30862 22.8528 0.316703 22.863C0.324786 22.8731 0.332869 22.884 0.340952 22.8949C0.349035 22.905 0.357118 22.9152 0.365935 22.9253C0.374753 22.9354 0.382836 22.9456 0.392388 22.9557C0.400471 22.9652 0.410024 22.9753 0.418842 22.9854C0.427659 22.9949 0.437212 23.005 0.446764 23.0152C0.456317 23.0246 0.465869 23.034 0.474687 23.0434C0.484975 23.0536 0.494527 23.0623 0.504814 23.0717C0.515102 23.0811 0.524654 23.0898 0.534942 23.0992C0.545229 23.1086 0.555516 23.1166 0.565804 23.126L11.4696 32.2601L17.5039 37.3145L20.9751 40.2225C22.8621 41.8037 25.7176 41.5739 27.3217 39.7131C28.9243 37.8522 28.6921 35.0362 26.8044 33.4543L21.7452 29.2166L20.0684 27.8116L19.2043 27.0884C18.529 26.5224 17.5076 26.6043 16.9337 27.2703C16.3605 27.9362 16.4428 28.9434 17.1181 29.5101L17.9823 30.2333L19.6591 31.6384L24.2318 35.4681C24.7682 35.9181 24.8344 36.7189 24.3788 37.2478C23.9232 37.7768 23.112 37.8428 22.5756 37.3942L13.5558 29.8384L3.8798 21.7325L8.03441 16.9101L12.6417 11.5608L18.806 4.40492C19.2616 3.87665 20.0735 3.81144 20.6099 4.26071C21.1464 4.70999 21.2125 5.51145 20.7569 6.03971Z" fill="#00B7EB"/>
<path fill-rule="evenodd" clip-rule="evenodd" d="M8.9248 21.6113C8.97771 22.804 9.51192 23.9743 10.5017 24.8033C12.3894 26.3845 15.2449 26.1555 16.8483 24.2939L18.4523 22.4316L20.8045 19.7011L26.1135 13.538C26.5691 13.0091 27.381 12.9438 27.9182 13.3931C28.4546 13.8424 28.5207 14.6431 28.0659 15.1714L27.5243 15.8004C27.65 16.0996 27.8917 16.5917 28.4156 17.0272C28.8514 17.3873 29.4804 17.7084 30.1711 17.6359L30.9338 16.7497C32.5372 14.8888 32.305 12.0721 30.418 10.4909C29.7794 9.95686 29.0307 9.63005 28.2577 9.50179L28.2532 9.50106C28.229 9.49744 28.2055 9.49309 28.182 9.48947H28.1776C28.1063 9.47932 28.035 9.4699 27.9637 9.46266L27.9534 9.46193C27.8836 9.45541 27.8138 9.45034 27.744 9.44672L27.7315 9.44599C27.6625 9.44237 27.5941 9.44092 27.525 9.44092H27.5081C27.4405 9.44092 27.3737 9.44164 27.3061 9.44527L27.287 9.44599C27.2208 9.44889 27.1547 9.45396 27.0893 9.45903L27.0651 9.46121C27.0452 9.46338 27.0246 9.46556 27.0041 9.46773L26.9835 9.47063C26.9475 9.47425 26.9115 9.47932 26.8755 9.4844C26.8652 9.48585 26.8556 9.4873 26.8453 9.48874C26.8262 9.49092 26.8071 9.49382 26.788 9.49672C26.7785 9.49816 26.7697 9.49961 26.7601 9.50179C26.7263 9.50759 26.6932 9.51338 26.6602 9.51918L26.6286 9.52498C26.6102 9.5286 26.5918 9.53222 26.5742 9.53585C26.5624 9.53802 26.5507 9.54092 26.5397 9.54309C26.5095 9.54961 26.4787 9.55686 26.4486 9.56338C26.4368 9.56628 26.425 9.56918 26.4133 9.57208C26.3956 9.57643 26.3795 9.58005 26.3618 9.5844L26.3222 9.59527L26.2538 9.61411C26.2355 9.61918 26.2171 9.62425 26.1987 9.63005C26.184 9.6344 26.1693 9.63947 26.1539 9.64309C26.1392 9.64744 26.1238 9.65251 26.1091 9.65759C26.0944 9.66193 26.0797 9.66701 26.065 9.67135C26.04 9.68005 26.015 9.68875 25.99 9.69744C25.9761 9.70179 25.9621 9.70686 25.9481 9.71266C25.932 9.71846 25.9158 9.72425 25.9004 9.73005C25.8864 9.7344 25.8732 9.73947 25.8592 9.74454C25.8335 9.75469 25.8078 9.76483 25.7821 9.77498C25.7703 9.78005 25.7586 9.78512 25.7468 9.7902C25.7292 9.79672 25.7115 9.80469 25.6939 9.81266C25.6821 9.81773 25.6704 9.82208 25.6579 9.82788C25.6314 9.83947 25.605 9.85107 25.5793 9.86338C25.5697 9.86773 25.5602 9.8728 25.5506 9.87715C25.5308 9.88585 25.5117 9.89527 25.4918 9.90469C25.4815 9.91049 25.4705 9.91556 25.4595 9.92063C25.4352 9.93295 25.411 9.94527 25.3875 9.95759L25.3618 9.97136L25.2949 10.0069L25.2655 10.0243C25.2435 10.0358 25.2207 10.0489 25.1986 10.0619L25.1781 10.0735C25.1531 10.0887 25.1281 10.104 25.1038 10.1199C25.0936 10.125 25.0847 10.1308 25.0752 10.1366C25.0539 10.1503 25.0326 10.1641 25.0113 10.1779L24.9944 10.1887C24.9679 10.2069 24.9422 10.2243 24.9165 10.2416C24.9077 10.2474 24.8996 10.2532 24.8915 10.259C24.8709 10.2735 24.8503 10.288 24.8298 10.3032C24.8232 10.3076 24.8165 10.3119 24.8107 10.3163C24.7849 10.3351 24.76 10.3547 24.735 10.3743C24.7276 10.3793 24.721 10.3851 24.7137 10.3902C24.6931 10.4054 24.6733 10.4221 24.6527 10.4387L24.6328 10.454C24.6079 10.4743 24.5829 10.4953 24.5586 10.5163L24.5425 10.5301C24.5219 10.5474 24.5013 10.5663 24.4807 10.5837L24.4624 10.6011C24.4374 10.6228 24.4131 10.6453 24.3896 10.6677L24.3771 10.6793C24.3565 10.6989 24.336 10.7199 24.3154 10.7395L24.2978 10.7569C24.2735 10.7815 24.25 10.8054 24.2265 10.8293L24.2199 10.8366C24.1986 10.859 24.178 10.8815 24.1567 10.9047L24.139 10.9243C24.1163 10.9496 24.0942 10.975 24.0714 11.0003L18.3487 17.6439L15.9974 20.3743L14.8062 21.7569C14.3499 22.2859 13.5387 22.3511 13.0015 21.9011C12.6216 21.583 12.4776 21.0881 12.5886 20.6381C12.1073 20.7163 11.6194 20.7576 11.1358 20.8366C10.3026 20.9721 9.47959 21.2192 8.9248 21.6113Z" fill="#853493"/>
<path fill-rule="evenodd" clip-rule="evenodd" d="M20.7573 6.04044L9.98569 18.5449C8.89008 19.8173 8.65201 21.5355 9.21414 23.0007C9.75496 23.321 10.4618 23.5463 11.215 23.3731C11.8771 23.2202 12.5744 22.7579 13.2916 22.084C13.1895 22.0376 13.0917 21.9768 13.0021 21.9014C12.4657 21.4528 12.3995 20.6521 12.8544 20.1231L23.6267 7.61726C25.2301 5.75565 24.9971 2.93969 23.1101 1.35853C21.2231 -0.222642 18.3677 0.00706908 16.7636 1.86795L11.021 8.53393C11.1518 8.80784 11.2907 9.06002 11.4311 9.28393C12.0196 10.2194 12.6516 10.6716 12.8331 11.339L18.8063 4.40492C19.2619 3.87666 20.0739 3.81144 20.6103 4.26072C21.1467 4.70999 21.2136 5.51145 20.7573 6.04044Z" fill="#5552A2"/>
<mask id="mask0" mask-type="alpha" maskUnits="userSpaceOnUse" x="0" y="8" width="18" height="29">
<path fill-rule="evenodd" clip-rule="evenodd" d="M0 8.18604H17.8407V36.2014H0V8.18604Z" fill="white"/>
</mask>
<g mask="url(#mask0)">
<path fill-rule="evenodd" clip-rule="evenodd" d="M11.3215 8.18604L10.1863 9.50343L5.57827 14.8527L0.381693 20.8861C0.372875 20.897 0.364057 20.9071 0.35524 20.918C0.346422 20.9281 0.337604 20.939 0.329521 20.9499C0.321439 20.9607 0.313356 20.9716 0.305273 20.9825C0.29719 20.9933 0.289107 21.0035 0.281759 21.0151C0.273676 21.0267 0.267063 21.0368 0.25898 21.0484C0.251632 21.06 0.244283 21.0709 0.23767 21.0818C0.230322 21.0933 0.222974 21.1049 0.217096 21.1165C0.209747 21.1274 0.203869 21.139 0.197256 21.1506C0.190642 21.1622 0.184029 21.1738 0.178151 21.1854C0.172272 21.197 0.166394 21.2093 0.160515 21.2202C0.154637 21.2325 0.148758 21.2441 0.143615 21.2564C0.137736 21.268 0.132592 21.2796 0.127449 21.2919C0.122305 21.3042 0.117161 21.3158 0.112752 21.3281C0.107609 21.3397 0.1032 21.352 0.0987911 21.3651L0.0855645 21.4006C0.0811557 21.4136 0.0774816 21.4252 0.0730728 21.4376C0.0693987 21.4506 0.0657247 21.4622 0.0620506 21.4745C0.0583766 21.4868 0.0547025 21.4991 0.0524981 21.5122C0.0422107 21.5491 0.0341278 21.5868 0.0267797 21.6245C0.0238405 21.6368 0.0223709 21.6499 0.0201664 21.6629C0.017962 21.6752 0.0164924 21.6876 0.014288 21.6999C0.0128184 21.7129 0.0113487 21.726 0.00987911 21.7383C0.00840949 21.7513 0.00767468 21.7636 0.00620506 21.7767C0.00473544 21.789 0.00400063 21.802 0.00326582 21.8151C0.00253101 21.8274 0.0017962 21.8405 0.00106139 21.8528L0.000326582 21.8912C0.000326582 21.9042 -0.000408228 21.9165 0.000326582 21.9296C0.000326582 21.9419 0.000326582 21.9549 0.00106139 21.968C0.0017962 21.9803 0.0017962 21.9934 0.00326582 22.0057C0.00326582 22.018 0.00473544 22.031 0.00547025 22.0441C0.00693987 22.0564 0.00767468 22.0687 0.0091443 22.0825C0.0106139 22.0941 0.0120835 22.1071 0.0135532 22.1202C0.0150228 22.1325 0.0172272 22.1455 0.0194316 22.1571C0.0209013 22.1702 0.0231057 22.1825 0.0253101 22.1955C0.0275145 22.2078 0.0304538 22.2202 0.0326582 22.2325C0.0348626 22.2448 0.0378019 22.2578 0.0407411 22.2702C0.0436804 22.2825 0.0466196 22.2948 0.0502937 22.3071C0.0532329 22.3202 0.0561721 22.3318 0.0598462 22.3441C0.0635202 22.3571 0.0671943 22.3687 0.0701335 22.381C0.0745424 22.3934 0.0782164 22.4057 0.0826253 22.418C0.0862993 22.4296 0.0907082 22.4419 0.0951171 22.4535C0.0995259 22.4658 0.103935 22.4781 0.108344 22.4897C0.113487 22.5021 0.117896 22.5136 0.12304 22.526C0.128183 22.5376 0.133327 22.5492 0.138471 22.5615C0.143615 22.5731 0.149493 22.5847 0.154637 22.5963C0.160515 22.6078 0.165659 22.6194 0.171537 22.631C0.177416 22.6419 0.183294 22.6542 0.189908 22.6651C0.195786 22.6767 0.202399 22.6883 0.209013 22.6992C0.215626 22.7107 0.222239 22.7223 0.228852 22.7332C0.235466 22.7441 0.242079 22.755 0.249427 22.7658C0.25604 22.7774 0.263389 22.7876 0.270737 22.7992C0.278085 22.81 0.285433 22.8202 0.293516 22.8318C0.300864 22.8426 0.308947 22.8528 0.316295 22.8636C0.325113 22.8738 0.332461 22.8839 0.341278 22.8948C0.349361 22.905 0.357444 22.9151 0.366262 22.926C0.37508 22.9354 0.383163 22.9455 0.39198 22.9557C0.400798 22.9658 0.409616 22.9752 0.419168 22.9854C0.427986 22.9955 0.437538 23.005 0.447091 23.0151C0.455909 23.0252 0.466196 23.0339 0.475014 23.0441C0.484566 23.0535 0.494854 23.0622 0.505141 23.0716C0.514693 23.081 0.524981 23.0897 0.535268 23.0992C0.545556 23.1086 0.555843 23.1165 0.56613 23.126L11.47 32.2601L16.175 36.2014C16.596 35.9652 16.8995 35.6768 17.1361 35.413C17.7937 34.6818 17.9297 34.1485 17.7923 33.4905C17.7827 33.4478 17.7732 33.405 17.7621 33.3608L13.5561 29.8383L3.88012 21.7325L8.034 16.91L12.642 11.5607L13.8846 10.1187C13.7398 9.47807 13.2805 8.96285 12.6692 8.60995C12.3055 8.3998 11.8881 8.24763 11.3215 8.18604Z" fill="#C3178C"/>
</g>
</svg>
